<?xml version="1.0" encoding="UTF-8" standalone="no"?>
<!DOCTYPE svg PUBLIC "-//W3C//DTD SVG 1.1//EN" "http://www.w3.org/Graphics/SVG/1.1/DTD/svg11.dtd">
<svg width="24px" height="21px" version="1.1" xmlns="http://www.w3.org/2000/svg" xmlns:xlink="http://www.w3.org/1999/xlink" xml:space="preserve" xmlns:serif="http://www.serif.com/" style="fill-rule:evenodd;clip-rule:evenodd;stroke-linejoin:round;stroke-miterlimit:1.41421;">
    <path d="M8.125,19.705C8.125,19.961 8.049,20.212 7.908,20.425C7.766,20.638 7.564,20.803 7.328,20.901C7.092,20.999 6.832,21.025 6.582,20.975C6.331,20.925 6.101,20.802 5.921,20.621C5.74,20.44 5.617,20.209 5.567,19.958C5.517,19.707 5.543,19.447 5.641,19.21C5.739,18.974 5.904,18.771 6.116,18.629C6.329,18.487 6.578,18.411 6.834,18.411C7.176,18.411 7.505,18.547 7.747,18.79C7.989,19.033 8.125,19.362 8.125,19.705Z" style="fill:rgb(255,195,0);fill-rule:nonzero;stroke:rgb(255,195,0);stroke-width:1px;"/>
    <path d="M19.61,19.705C19.61,19.961 19.535,20.212 19.393,20.425C19.251,20.638 19.049,20.803 18.813,20.901C18.577,20.999 18.318,21.025 18.067,20.975C17.817,20.925 17.586,20.802 17.406,20.621C17.225,20.44 17.102,20.209 17.052,19.958C17.003,19.707 17.028,19.447 17.126,19.21C17.224,18.974 17.389,18.771 17.602,18.629C17.814,18.487 18.064,18.411 18.319,18.411C18.661,18.411 18.99,18.547 19.232,18.79C19.474,19.033 19.61,19.362 19.61,19.705Z" style="fill:rgb(255,195,0);fill-rule:nonzero;stroke:rgb(255,195,0);stroke-width:1px;"/>
    <path d="M22.586,4.535C22.568,4.476 22.532,4.423 22.484,4.385C22.436,4.346 22.377,4.323 22.315,4.318L5.403,2.69C5.324,2.682 5.248,2.656 5.181,2.614C5.113,2.572 5.056,2.515 5.014,2.448C4.839,2.105 4.626,1.783 4.381,1.486C3.981,1.001 3.228,1.016 1.847,1.006C1.742,0.993 1.637,1.002 1.536,1.032C1.436,1.063 1.342,1.114 1.263,1.182C1.183,1.251 1.119,1.336 1.073,1.431C1.028,1.526 1.003,1.629 1,1.734C1.001,1.837 1.024,1.938 1.066,2.031C1.109,2.125 1.17,2.208 1.246,2.277C1.322,2.345 1.411,2.397 1.508,2.429C1.606,2.461 1.708,2.473 1.81,2.463C2.262,2.452 2.714,2.485 3.16,2.561C3.404,2.633 3.602,3.032 3.674,3.378C3.674,3.381 3.674,3.383 3.675,3.386C3.676,3.389 3.678,3.391 3.68,3.393C3.69,3.455 3.783,3.92 3.783,3.925L5.859,14.86C5.95,15.529 6.209,16.164 6.61,16.705C6.808,16.972 7.067,17.187 7.364,17.333C7.662,17.479 7.99,17.551 8.322,17.544L20.607,17.544C20.797,17.548 20.981,17.477 21.12,17.348C21.259,17.219 21.343,17.041 21.355,16.852C21.359,16.754 21.343,16.656 21.309,16.564C21.274,16.472 21.221,16.389 21.153,16.318C21.085,16.248 21.003,16.192 20.913,16.154C20.823,16.116 20.726,16.097 20.628,16.098L8.311,16.098C8.155,16.108 8.001,16.056 7.882,15.955C7.7,15.8 7.452,15.443 7.285,14.611L7.06,13.383C7.059,13.377 7.06,13.37 7.064,13.364C7.068,13.358 7.074,13.354 7.08,13.352L21.5,10.924C21.566,10.914 21.627,10.882 21.673,10.833C21.719,10.784 21.748,10.722 21.755,10.655L22.586,4.671C22.596,4.626 22.596,4.58 22.586,4.535Z" style="fill:none;stroke:rgb(255,195,0);stroke-width:1.5px;stroke-linejoin:miter;stroke-miterlimit:4;"/>
</svg>
