<?xml version="1.0" encoding="UTF-8" standalone="no"?>
<!DOCTYPE svg PUBLIC "-//W3C//DTD SVG 1.1//EN" "http://www.w3.org/Graphics/SVG/1.1/DTD/svg11.dtd">
<svg width="44px" height="44px" version="1.1" xmlns="http://www.w3.org/2000/svg" xmlns:xlink="http://www.w3.org/1999/xlink" xml:space="preserve" xmlns:serif="http://www.serif.com/" style="fill-rule:evenodd;clip-rule:evenodd;stroke-linejoin:round;stroke-miterlimit:1.41421;">
    <circle cx="22" cy="18" r="18" style="fill:rgb(255,195,0);"/>
    <path d="M28.775,22.915L27.733,13.115C27.733,12.499 27.256,12 26.667,12L22.4,12L18.133,12C17.544,12 17.067,12.499 17.067,13.115L16.025,22.915C16.01,22.991 16,23.07 16,23.151C16,23.768 16.477,24.267 17.067,24.267L27.733,24.267C28.323,24.267 28.8,23.768 28.8,23.151C28.8,23.07 28.79,22.991 28.775,22.915ZM25.067,14.737L25.067,15.346C25.067,16.883 23.87,18.133 22.4,18.133C20.93,18.133 19.733,16.883 19.733,15.346L19.733,14.737C19.424,14.622 19.2,14.315 19.2,13.951C19.2,13.49 19.558,13.115 20,13.115C20.442,13.115 20.8,13.49 20.8,13.951L20.8,15.346C20.8,16.268 21.518,17.018 22.4,17.018C23.282,17.018 24,16.268 24,15.346L24,13.951C24,13.49 24.358,13.115 24.8,13.115C25.242,13.115 25.6,13.49 25.6,13.951C25.6,14.315 25.377,14.622 25.067,14.737Z" style="fill:rgb(249,249,249);fill-rule:nonzero;"/>
</svg>
