<?xml version="1.0" encoding="UTF-8" standalone="no"?>
<!DOCTYPE svg PUBLIC "-//W3C//DTD SVG 1.1//EN" "http://www.w3.org/Graphics/SVG/1.1/DTD/svg11.dtd">
<svg width="22px" height="20px" version="1.1" xmlns="http://www.w3.org/2000/svg" xmlns:xlink="http://www.w3.org/1999/xlink" xml:space="preserve" xmlns:serif="http://www.serif.com/" style="fill-rule:evenodd;clip-rule:evenodd;">
    <path d="M10.255,2.764L10.826,3.436L11.398,2.764C11.929,2.139 12.589,1.635 13.332,1.288C14.075,0.941 14.884,0.757 15.704,0.75C16.39,0.746 17.071,0.878 17.706,1.14C18.341,1.402 18.918,1.788 19.402,2.275C19.886,2.763 20.268,3.342 20.526,3.979C20.783,4.615 20.911,5.297 20.902,5.984L20.902,5.984L20.902,5.994C20.902,7.809 20.098,9.514 18.533,11.441C16.959,13.378 14.693,15.449 11.891,18.007L11.89,18.008L10.825,18.984L9.763,18.019L9.761,18.017L9.761,18.017C6.959,15.454 4.694,13.381 3.12,11.443C1.555,9.514 0.751,7.81 0.751,5.995L0.751,5.995L0.75,5.985C0.741,5.298 0.869,4.616 1.127,3.979C1.385,3.342 1.767,2.763 2.251,2.276C2.735,1.788 3.312,1.402 3.947,1.14C4.582,0.878 5.262,0.746 5.949,0.75C6.769,0.757 7.578,0.941 8.321,1.288C9.064,1.635 9.724,2.139 10.255,2.764Z" style="fill:none;stroke:rgb(255,195,0);stroke-width:1.5px;"/>
</svg>
