<?xml version="1.0" encoding="UTF-8" standalone="no"?>
<!DOCTYPE svg PUBLIC "-//W3C//DTD SVG 1.1//EN" "http://www.w3.org/Graphics/SVG/1.1/DTD/svg11.dtd">
<svg width="18px" height="20px" version="1.1" xmlns="http://www.w3.org/2000/svg" xmlns:xlink="http://www.w3.org/1999/xlink" xml:space="preserve" xmlns:serif="http://www.serif.com/" style="fill-rule:evenodd;clip-rule:evenodd;">
    <path d="M15.345,15.252L15.345,15.252L2.025,15.252L2.025,15.251L2.015,15.252C1.85,15.254 1.686,15.223 1.533,15.161C1.379,15.099 1.24,15.008 1.122,14.892C1.004,14.776 0.911,14.637 0.847,14.485C0.783,14.332 0.75,14.169 0.75,14.003C0.75,13.838 0.783,13.674 0.846,13.522C0.91,13.369 1.003,13.231 1.121,13.114C1.238,12.998 1.378,12.906 1.531,12.844C1.684,12.782 1.848,12.751 2.014,12.753L2.772,12.762L2.772,12.003L2.772,6.622C2.783,5.061 3.411,3.568 4.518,2.468C5.626,1.368 7.124,0.75 8.686,0.75C10.248,0.75 11.746,1.368 12.854,2.468C13.961,3.568 14.588,5.061 14.6,6.622L14.6,12.751L15.348,12.753C15.679,12.753 15.997,12.886 16.231,13.12C16.465,13.354 16.596,13.671 16.597,14.002C16.596,14.334 16.464,14.652 16.23,14.886C15.995,15.12 15.677,15.252 15.345,15.252ZM7.095,18.591C6.856,18.352 6.676,18.064 6.565,17.751L10.805,17.751C10.694,18.064 10.515,18.352 10.275,18.591C9.854,19.013 9.282,19.25 8.685,19.25C8.089,19.25 7.517,19.013 7.095,18.591Z" style="fill:none;stroke:rgb(255,195,0);stroke-width:1.5px;"/>
</svg>
