<?xml version="1.0" encoding="UTF-8" standalone="no"?>
<!DOCTYPE svg PUBLIC "-//W3C//DTD SVG 1.1//EN" "http://www.w3.org/Graphics/SVG/1.1/DTD/svg11.dtd">
<svg width="20px" height="20px" version="1.1" xmlns="http://www.w3.org/2000/svg" xmlns:xlink="http://www.w3.org/1999/xlink" xml:space="preserve" xmlns:serif="http://www.serif.com/" style="fill-rule:evenodd;clip-rule:evenodd;stroke-linejoin:round;stroke-miterlimit:1.41421;">
    <g id="email" transform="matrix(1,0,0,1,-128,-1267)">
        <g id="Rectangle_2687" transform="matrix(1,0,0,1,128,1267)">
            <rect x="0" y="0" width="20" height="20" style="fill:none;"/>
        </g>
        <g id="Path_5946" transform="matrix(1,0,0,1,128.569,1185.56)">
            <path d="M17.773,85.333L0.961,85.333C0.434,85.335 0.002,85.767 0,86.294L0,96.862C0.002,97.389 0.434,97.821 0.961,97.823L17.774,97.823C18.301,97.821 18.733,97.389 18.735,96.862L18.735,86.294C18.733,85.767 18.3,85.334 17.773,85.333ZM17.412,86.052L9.92,91.672C9.586,91.894 9.149,91.894 8.815,91.672L1.322,86.052L17.412,86.052ZM13.412,92.044L17.495,97.087C17.495,97.092 17.504,97.096 17.509,97.101L1.227,97.101L1.241,97.087L5.324,92.044C5.376,91.98 5.404,91.9 5.404,91.817C5.404,91.619 5.242,91.457 5.044,91.457C4.935,91.457 4.832,91.506 4.764,91.59L0.721,96.586L0.721,86.5L8.383,92.245C8.973,92.657 9.762,92.657 10.352,92.245L18.013,86.5L18.013,96.586L13.97,91.591C13.902,91.507 13.799,91.458 13.69,91.458C13.492,91.458 13.33,91.62 13.33,91.818C13.33,91.901 13.358,91.981 13.41,92.045L13.412,92.044Z" style="fill:rgb(255,195,0);fill-rule:nonzero;"/>
        </g>
    </g>
</svg>
