<?xml version="1.0" encoding="UTF-8" standalone="no"?>
<!DOCTYPE svg PUBLIC "-//W3C//DTD SVG 1.1//EN" "http://www.w3.org/Graphics/SVG/1.1/DTD/svg11.dtd">
<svg width="282px" height="177px" version="1.1" xmlns="http://www.w3.org/2000/svg" xmlns:xlink="http://www.w3.org/1999/xlink" xml:space="preserve" xmlns:serif="http://www.serif.com/" style="fill-rule:evenodd;clip-rule:evenodd;stroke-linejoin:round;stroke-miterlimit:1.41421;">
    <g id="empty_cart" transform="matrix(1,0,0,1,-951.928,-424.488)">
        <g id="Group_4865" transform="matrix(1,0,0,1,951.927,539.606)">
            <g id="Plant" transform="matrix(1,0,0,1,225.046,4.51)">
                <g id="Path_5192" transform="matrix(1,0,0,1,-109.986,-364.916)">
                    <path d="M127.211,393.547C131.363,390.668 132.321,385.298 132.177,380.467C132.255,379.666 132.149,378.857 131.869,378.103C131.518,377.355 130.653,376.984 129.869,377.246C129.269,377.527 129.006,378.22 128.669,378.788C128.218,379.555 127.559,380.179 126.769,380.588C126.274,380.903 125.655,380.958 125.113,380.733C124.419,380.348 124.339,379.386 124.349,378.575L124.392,374.093C124.443,373.297 124.366,372.497 124.164,371.725C123.951,370.943 123.369,370.313 122.607,370.039C121.818,369.805 120.976,370.257 120.736,371.044C120.704,371.376 120.695,371.71 120.708,372.044C120.716,372.384 120.518,372.697 120.208,372.836C119.871,372.873 119.539,372.732 119.33,372.466C118.539,371.612 117.895,370.632 117.425,369.566C116.955,368.503 116.359,367.5 115.649,366.579C114.935,365.654 113.878,365.056 112.718,364.92C111.533,364.826 110.427,365.556 110.048,366.683C109.901,367.857 110.298,369.037 111.125,369.883C112.18,371.244 113.427,372.445 114.825,373.45C115.096,373.603 115.312,373.839 115.441,374.122C115.614,374.658 115.105,375.186 114.578,375.355C113.963,375.486 113.336,375.553 112.707,375.555C112.066,375.566 111.478,375.92 111.166,376.48C110.836,377.297 111.517,378.16 112.19,378.724C113.537,379.856 115.069,380.748 116.719,381.36C117.326,381.531 117.896,381.811 118.402,382.187C118.784,382.425 119.017,382.845 119.017,383.295C119.017,384.011 118.428,384.6 117.712,384.6C117.545,384.6 117.379,384.568 117.224,384.505C116.621,384.327 116.033,384.101 115.467,383.827C114.375,383.31 113.067,383.553 112.233,384.427C111.794,385.09 111.691,385.921 111.955,386.671C112.22,387.407 112.63,388.082 113.16,388.657C114.899,390.761 117.167,392.365 119.729,393.306C122.107,394.284 124.763,394.363 127.195,393.528" style="fill:rgb(189,189,189);fill-rule:nonzero;"/>
                </g>
                <g id="Path_5193" transform="matrix(1,0,0,1,-112.755,-366.431)">
                    <path d="M129.715,396.422C129.599,394.92 129.276,393.442 128.753,392.029C127.961,389.395 127.018,386.808 125.929,384.282L125.084,382.291C124.806,381.637 124.529,380.991 124.218,380.373C123.618,379.192 122.954,378.046 122.227,376.939C121.543,375.875 120.855,374.889 120.208,373.973C119.561,373.057 118.93,372.216 118.331,371.473C117.392,370.296 116.361,369.195 115.248,368.181C114.853,367.823 114.539,367.565 114.323,367.373L114.076,367.173C114.049,367.149 114.021,367.127 113.99,367.108C114.013,367.136 114.039,367.162 114.067,367.185L114.304,367.398C114.514,367.583 114.822,367.86 115.21,368.225C116.309,369.253 117.329,370.361 118.262,371.541C118.857,372.287 119.474,373.129 120.112,374.047C120.75,374.965 121.44,375.952 122.119,377.016C122.837,378.124 123.493,379.27 124.086,380.45C124.394,381.066 124.666,381.708 124.946,382.361L125.791,384.352C126.878,386.872 127.823,389.451 128.622,392.077C129.148,393.479 129.479,394.947 129.608,396.439" style="fill:rgb(38,50,56);fill-rule:nonzero;"/>
                </g>
                <g id="Path_5194" transform="matrix(1,0,0,1,-135.588,-376.429)">
                    <path d="M147,390.365C147.039,390.254 147.066,390.14 147.08,390.023C147.123,389.801 147.18,389.48 147.23,389.08C147.347,388.28 147.47,387.175 147.6,385.954C147.73,384.733 147.868,383.63 148,382.834C148.062,382.434 148.117,382.116 148.157,381.909C148.185,381.795 148.2,381.678 148.203,381.561C148.157,381.669 148.124,381.782 148.103,381.897C148.044,382.116 147.978,382.433 147.903,382.822C147.749,383.614 147.595,384.722 147.462,385.942L147.136,389.071L147.036,390.017C147.015,390.132 147.007,390.248 147.011,390.365L147,390.365Z" style="fill:rgb(38,50,56);fill-rule:nonzero;"/>
                </g>
                <g id="Path_5195" transform="matrix(1,0,0,1,-112.469,-391.767)">
                    <path d="M113.577,403.739C113.712,403.768 113.849,403.785 113.987,403.789C114.252,403.814 114.634,403.848 115.106,403.903C116.049,404.003 117.35,404.211 118.771,404.473C120.192,404.735 121.471,405.052 122.39,405.303C122.849,405.423 123.219,405.531 123.475,405.611C123.605,405.657 123.739,405.69 123.875,405.711C123.752,405.648 123.623,405.596 123.49,405.557C123.239,405.468 122.874,405.344 122.413,405.212C121.488,404.936 120.221,404.617 118.794,404.34C117.576,404.102 116.346,403.926 115.11,403.814C114.634,403.771 114.25,403.752 113.985,403.746C113.849,403.733 113.711,403.733 113.575,403.746L113.577,403.739Z" style="fill:rgb(38,50,56);fill-rule:nonzero;"/>
                </g>
                <g id="Path_5196" transform="matrix(1,0,0,1,-145.578,-392.432)">
                    <path d="M161.44,417.842C161.469,417.804 161.493,417.762 161.511,417.717L161.69,417.344C161.844,417.02 162.051,416.544 162.306,415.957C162.806,414.776 163.45,413.126 164.131,411.296C164.812,409.466 165.441,407.809 165.916,406.623L166.483,405.217L166.633,404.835C166.654,404.791 166.668,404.744 166.676,404.696C166.647,404.734 166.623,404.776 166.605,404.821L166.426,405.194C166.272,405.518 166.065,405.994 165.81,406.581C165.31,407.762 164.666,409.412 163.981,411.242C163.296,413.072 162.671,414.729 162.196,415.915L161.629,417.321L161.479,417.703C161.46,417.747 161.446,417.794 161.439,417.842L161.44,417.842Z" style="fill:rgb(38,50,56);fill-rule:nonzero;"/>
                </g>
                <g id="Path_5197" transform="matrix(1,0,0,1,-114.872,-411.914)">
                    <path d="M117.05,432.86C117.093,432.884 117.138,432.903 117.186,432.915L117.586,433.051L119.05,433.532C120.283,433.939 121.991,434.518 123.871,435.163C125.751,435.808 127.463,436.371 128.708,436.754C129.324,436.945 129.835,437.093 130.188,437.189L130.588,437.297C130.635,437.313 130.684,437.322 130.733,437.325C130.69,437.301 130.645,437.282 130.597,437.27L130.197,437.134L128.744,436.653C127.511,436.246 125.803,435.667 123.923,435.022C122.043,434.377 120.335,433.814 119.086,433.431C118.47,433.24 117.959,433.092 117.606,432.996L117.199,432.888C117.151,432.872 117.101,432.862 117.05,432.86Z" style="fill:rgb(38,50,56);fill-rule:nonzero;"/>
                </g>
            </g>
            <g id="Plant-2" transform="matrix(1,0,0,1,236.067,0)">
                <g id="Path_5192-2" transform="matrix(1,0,0,1,-109.984,-364.913)">
                    <path d="M117.441,407.784C111.223,403.473 109.788,395.432 110.005,388.199C109.889,386.999 110.047,385.789 110.467,384.659C110.993,383.541 112.286,382.986 113.458,383.376C114.358,383.796 114.751,384.835 115.258,385.684C115.931,386.834 116.915,387.77 118.097,388.384C118.838,388.857 119.765,388.938 120.577,388.601C121.616,388.025 121.736,386.584 121.722,385.37L121.657,378.659C121.581,377.467 121.697,376.27 121.999,375.114C122.317,373.944 123.189,373 124.33,372.589C125.509,372.239 126.768,372.914 127.13,374.089C127.178,374.587 127.192,375.089 127.172,375.589C127.159,376.097 127.452,376.566 127.915,376.775C128.419,376.83 128.918,376.62 129.231,376.221C130.416,374.943 131.38,373.476 132.084,371.882C132.787,370.289 133.68,368.788 134.743,367.409C135.812,366.025 137.396,365.129 139.133,364.926C140.908,364.787 142.563,365.879 143.133,367.566C143.576,369.254 142.593,370.977 141.522,372.353C139.942,374.39 138.076,376.189 135.983,377.693C135.577,377.922 135.254,378.275 135.06,378.699C134.801,379.499 135.56,380.291 136.353,380.545C137.273,380.741 138.212,380.842 139.153,380.845C140.113,380.861 140.995,381.39 141.461,382.23C141.955,383.453 140.935,384.746 139.928,385.59C137.911,387.285 135.617,388.62 133.147,389.537C132.239,389.792 131.385,390.212 130.627,390.774C130.06,391.132 129.716,391.757 129.716,392.427C129.716,393.5 130.598,394.382 131.671,394.382C131.917,394.382 132.161,394.336 132.39,394.245C133.293,393.979 134.173,393.639 135.02,393.229C136.668,392.601 138.8,392.707 139.862,394.129C140.519,395.121 140.672,396.367 140.277,397.489C139.879,398.591 139.264,399.602 138.468,400.462C135.863,403.613 132.468,406.016 128.63,407.424C124.808,408.763 121.244,409.137 117.45,407.756" style="fill:rgb(189,189,189);fill-rule:nonzero;"/>
                </g>
                <g id="Path_5193-2" transform="matrix(1,0,0,1,-106.136,-366.093)">
                    <path d="M113.99,411C114.244,408.134 114.373,408.073 115.43,404.422C116.616,400.478 118.028,396.605 119.658,392.822L120.923,389.841C121.338,388.862 121.754,387.893 122.223,386.97C123.121,385.202 124.116,383.486 125.204,381.828C126.229,380.236 127.258,378.758 128.227,377.388C129.196,376.018 130.138,374.758 131.038,373.644C132.444,371.881 133.987,370.233 135.654,368.714C136.245,368.178 136.716,367.791 137.039,367.505L137.408,367.205C137.448,367.168 137.491,367.134 137.537,367.105C137.502,367.147 137.464,367.185 137.422,367.22L137.067,367.539C136.753,367.816 136.29,368.231 135.71,368.776C134.065,370.315 132.538,371.975 131.142,373.742C130.251,374.859 129.328,376.119 128.373,377.495C127.418,378.871 126.384,380.348 125.367,381.94C124.293,383.599 123.309,385.316 122.422,387.082C121.96,388.005 121.554,388.965 121.134,389.944L119.869,392.925C118.242,396.699 116.828,400.56 115.632,404.492C114.566,408.129 114.423,408.185 114.154,411.024" style="fill:rgb(38,50,56);fill-rule:nonzero;"/>
                </g>
                <g id="Path_5194-2" transform="matrix(1,0,0,1,-132.637,-373.876)">
                    <path d="M148.8,394.743C148.742,394.577 148.701,394.406 148.68,394.231C148.615,393.899 148.537,393.419 148.455,392.819C148.28,391.619 148.095,389.966 147.901,388.139C147.707,386.312 147.501,384.659 147.301,383.468C147.209,382.868 147.126,382.392 147.066,382.083C147.024,381.912 147.001,381.737 146.997,381.561C147.066,381.722 147.117,381.889 147.149,382.061C147.237,382.389 147.338,382.861 147.449,383.446C147.68,384.632 147.911,386.289 148.109,388.117L148.598,392.801L148.755,394.218C148.786,394.39 148.799,394.565 148.792,394.74L148.8,394.743Z" style="fill:rgb(38,50,56);fill-rule:nonzero;"/>
                </g>
                <g id="Path_5195-2" transform="matrix(1,0,0,1,-97.41,-385.811)">
                    <path d="M129,403.737C128.798,403.781 128.593,403.805 128.386,403.811C127.986,403.848 127.417,403.899 126.71,403.982C125.297,404.139 123.35,404.444 121.222,404.836C119.094,405.228 117.179,405.704 115.803,406.078C115.115,406.258 114.561,406.42 114.178,406.54C113.983,406.608 113.782,406.657 113.578,406.688C113.762,406.593 113.955,406.516 114.154,406.457C114.528,406.323 115.077,406.138 115.765,405.94C117.15,405.529 119.046,405.049 121.184,404.634C123.008,404.277 124.849,404.014 126.7,403.845C127.411,403.78 127.988,403.753 128.385,403.745C128.589,403.726 128.795,403.726 128.999,403.745L129,403.737Z" style="fill:rgb(38,50,56);fill-rule:nonzero;"/>
                </g>
                <g id="Path_5196-2" transform="matrix(1,0,0,1,-159.788,-386.331)">
                    <path d="M169.285,424.378C169.241,424.32 169.205,424.257 169.179,424.189L168.911,423.63C168.68,423.145 168.371,422.43 167.988,421.553C167.237,419.785 166.275,417.316 165.255,414.574C164.235,411.832 163.293,409.353 162.582,407.574L161.733,405.474L161.508,404.902C161.477,404.836 161.455,404.766 161.443,404.694C161.487,404.752 161.522,404.816 161.549,404.883L161.817,405.442C162.048,405.927 162.357,406.642 162.74,407.519C163.491,409.287 164.453,411.756 165.477,414.498C166.501,417.24 167.439,419.719 168.15,421.498L168.999,423.598L169.224,424.17C169.254,424.236 169.274,424.306 169.285,424.378Z" style="fill:rgb(38,50,56);fill-rule:nonzero;"/>
                </g>
                <g id="Path_5197-2" transform="matrix(1,0,0,1,-107.554,-401.497)">
                    <path d="M137.541,432.86C137.478,432.896 137.411,432.924 137.341,432.943L136.741,433.143L134.548,433.863C132.702,434.472 130.148,435.341 127.329,436.305C124.51,437.269 121.951,438.115 120.087,438.687C119.164,438.973 118.398,439.195 117.871,439.338L117.271,439.5C117.201,439.524 117.128,439.538 117.054,439.542C117.117,439.506 117.184,439.478 117.254,439.459L117.854,439.259L120.028,438.539C121.874,437.93 124.428,437.061 127.247,436.097C130.066,435.133 132.62,434.287 134.489,433.715C135.412,433.429 136.178,433.207 136.705,433.064L137.314,432.902C137.387,432.877 137.464,432.863 137.541,432.86Z" style="fill:rgb(38,50,56);fill-rule:nonzero;"/>
                </g>
            </g>
            <g id="Path_5742" transform="matrix(1,0,0,1,0,22.54)">
                <path d="M139.352,0C216.314,0 282,38.975 282,38.975L0,38.975C0,38.975 62.39,0 139.352,0Z" style="fill:url(#_Linear1);fill-rule:nonzero;"/>
            </g>
        </g>
        <g id="Group_4868" transform="matrix(1,0,0,1,1005.71,423.12)">
            <g id="Group_4980" transform="matrix(0.992546,-0.121869,0.121869,0.992546,0,21.598)">
                <g id="Group_4913" transform="matrix(1,0,0,1,26.265,0)">
                    <g>
                        <g id="Group_4882" transform="matrix(1,0,0,1,89.925,0.02)">
                            <g id="Path_5743" transform="matrix(1,0,0,1,0.02,26.873)">
                                <path d="M0.45,27.481C0.214,27.48 0.02,27.286 0.02,27.05C0.02,26.967 0.045,26.885 0.09,26.815C0.752,25.804 1.39,24.752 1.972,23.688C2.048,23.551 2.192,23.466 2.349,23.466C2.584,23.466 2.779,23.66 2.779,23.896C2.779,23.969 2.76,24.04 2.725,24.104C2.125,25.186 1.483,26.257 0.809,27.286C0.73,27.407 0.595,27.481 0.45,27.481ZM4.5,19.916C4.499,19.916 4.498,19.916 4.496,19.916C4.26,19.916 4.065,19.721 4.065,19.485C4.065,19.427 4.077,19.369 4.1,19.316C4.577,18.202 5.018,17.055 5.41,15.909C5.472,15.74 5.634,15.626 5.814,15.626C6.05,15.626 6.244,15.82 6.244,16.056C6.244,16.101 6.237,16.146 6.223,16.189C5.823,17.356 5.374,18.523 4.89,19.656C4.822,19.816 4.664,19.92 4.49,19.918L4.5,19.916ZM7.18,11.758C6.944,11.758 6.75,11.563 6.75,11.327C6.75,11.294 6.753,11.261 6.761,11.229C6.967,10.35 7.15,9.455 7.305,8.568C7.322,8.468 7.338,8.371 7.355,8.278C6.801,8.399 6.235,8.461 5.668,8.463L5.646,8.463C5.41,8.463 5.216,8.269 5.216,8.033C5.216,7.797 5.41,7.603 5.646,7.603L5.665,7.603C6.832,7.577 7.982,7.313 9.043,6.827C9.096,6.805 9.152,6.794 9.209,6.794C9.445,6.794 9.639,6.988 9.639,7.224C9.639,7.393 9.539,7.547 9.385,7.616C9.018,7.775 8.644,7.915 8.263,8.036C8.231,8.248 8.194,8.473 8.151,8.717C7.993,9.617 7.807,10.53 7.597,11.425C7.552,11.619 7.378,11.757 7.179,11.757L7.18,11.758ZM1.409,6.377C1.268,6.377 1.136,6.308 1.056,6.192C0.598,5.546 0.32,4.789 0.251,4C0.243,3.908 0.24,3.813 0.24,3.719C0.241,3.231 0.332,2.747 0.508,2.292C0.579,2.142 0.731,2.046 0.896,2.046C1.132,2.046 1.326,2.241 1.326,2.476C1.326,2.519 1.32,2.561 1.308,2.601C1.17,2.958 1.1,3.337 1.1,3.72C1.1,3.793 1.1,3.865 1.108,3.937C1.165,4.572 1.39,5.181 1.76,5.7C1.81,5.772 1.838,5.858 1.838,5.946C1.838,6.181 1.644,6.375 1.409,6.375C1.408,6.375 1.408,6.375 1.408,6.375L1.409,6.377ZM13.323,5C13.322,5 13.322,5 13.321,5C13.085,5 12.891,4.806 12.891,4.57C12.891,4.446 12.944,4.329 13.037,4.247C13.935,3.454 14.745,2.567 15.452,1.6C15.533,1.49 15.662,1.424 15.799,1.424C16.035,1.424 16.229,1.618 16.229,1.855C16.229,1.946 16.2,2.035 16.146,2.109C15.402,3.125 14.55,4.058 13.606,4.892C13.529,4.961 13.429,4.999 13.325,5L13.323,5ZM7.48,3.308C7.312,3.308 7.158,3.209 7.088,3.056C6.629,2.029 5.773,1.23 4.717,0.842C4.534,0.789 4.407,0.62 4.407,0.429C4.407,0.193 4.601,-0.001 4.837,-0.001C4.887,-0.001 4.937,0.008 4.984,0.025C6.267,0.49 7.309,1.456 7.87,2.7C7.896,2.756 7.909,2.817 7.909,2.879C7.909,3.114 7.715,3.308 7.48,3.308C7.48,3.308 7.479,3.308 7.479,3.308L7.48,3.308Z" style="fill:rgb(255,195,0);fill-rule:nonzero;"/>
                            </g>
                            <g id="Path_5744" transform="matrix(1,0,0,1,16.638,9.62)">
                                <path d="M32.226,15.183C32.087,15.765 31.646,16.231 31.072,16.4L11.049,22.29C10.639,22.411 10.199,22.371 9.818,22.177L0.931,17.677C0.367,17.392 0.011,16.811 0.011,16.179C0.011,15.881 0.09,15.589 0.24,15.332L5.255,6.74C5.47,6.371 5.818,6.099 6.227,5.979L26.249,0.088C27.131,-0.17 28.07,0.342 28.331,1.223L32.203,14.323C32.287,14.604 32.295,14.903 32.226,15.188L32.226,15.183Z" style="fill:rgb(255,195,0);fill-rule:nonzero;"/>
                            </g>
                            <g id="Path_5745" transform="matrix(1,0,0,1,16.596,0.012)">
                                <path d="M3.007,13.814L0.063,25.394C0.034,25.518 0.019,25.644 0.019,25.771C0.019,26.582 0.621,27.278 1.424,27.394L13.281,28.915C13.625,28.962 13.975,28.88 14.263,28.686L33,15.954C33.674,15.462 33.825,14.502 33.334,13.827L24.418,0.725C23.97,0.021 23.024,-0.191 22.318,0.253L3.581,12.986C3.295,13.182 3.091,13.477 3.007,13.814ZM6.656,22.377C6.832,22.636 6.925,22.942 6.925,23.256C6.925,24.115 6.218,24.823 5.358,24.823C4.499,24.823 3.791,24.115 3.791,23.256C3.791,22.737 4.049,22.252 4.477,21.96C4.737,21.783 5.044,21.689 5.358,21.689C5.878,21.689 6.365,21.947 6.656,22.377Z" style="fill:rgb(255,195,0);fill-rule:nonzero;"/>
                            </g>
                        </g>
                        <g id="Group_4912" transform="matrix(1,0,0,1,0.134,43.926)">
                            <g id="Group_4904" transform="matrix(1,0,0,1,0.033,0)">
                                <g id="Path_5758" transform="matrix(1,0,0,1,0.175,0.175)">
                                    <path d="M135.536,1.26L119.843,0.091L119.779,0.091L119.747,0.091L119.709,0.091C119.579,0.1 119.452,0.137 119.337,0.198L119.312,0.211L119.286,0.228C119.206,0.277 119.134,0.338 119.072,0.409C119.06,0.422 119.049,0.435 119.038,0.449L119.023,0.47C119.01,0.488 118.996,0.507 118.984,0.526L104.452,23.826L20.312,1.254C20.232,1.232 20.15,1.221 20.067,1.221C19.552,1.221 19.128,1.645 19.128,2.16C19.128,2.163 19.128,2.165 19.128,2.168L19.535,50.468C19.54,50.89 19.827,51.26 20.235,51.368L20.251,51.368L66.435,63.768L66.943,63.904L78.891,67.111L78.9,67.111L84.138,68.517C86.652,69.192 88.314,70.35 89.08,71.961C89.751,73.663 89.793,75.549 89.2,77.28C88.179,81.067 84.224,83.345 80.436,82.328L1.23,61.068C1.151,61.047 1.069,61.036 0.987,61.036C0.472,61.036 0.048,61.46 0.048,61.975C0.048,62.399 0.334,62.773 0.744,62.883L79.955,84.143C84.739,85.427 89.733,82.55 91.022,77.767C91.735,75.606 91.648,73.259 90.776,71.157C89.762,69.025 87.691,67.527 84.62,66.702L80.6,65.624L105.665,25.424L105.672,25.413L120.272,2.001L135.4,3.133C135.423,3.135 135.446,3.136 135.47,3.136C135.985,3.136 136.41,2.711 136.41,2.196C136.41,1.705 136.026,1.293 135.537,1.258L135.536,1.26ZM86.164,20.874L81.842,30.143L60.079,24.3L62.679,14.57L86.164,20.874ZM55.95,36.34L53.121,46.913L36.421,42.43L37.382,31.356L55.95,36.34ZM37.459,30.469L38.42,19.4L59,24.92L56.176,35.493L37.459,30.469ZM56.798,36.569L76.398,41.829L71.7,51.9L53.97,47.14L56.798,36.569ZM57.025,35.722L59.853,25.15L81.466,30.95L76.766,41.021L57.025,35.722ZM61.834,14.344L59.234,24.074L38.5,18.508L39.384,8.316L61.834,14.344ZM21.02,3.389L38.52,8.089L37.636,18.281L21.108,13.841L21.02,3.389ZM21.12,14.752L37.562,19.166L36.6,30.239L21.214,26.109L21.12,14.752ZM21.22,27.019L36.52,31.126L35.559,42.2L21.314,38.376L21.22,27.019ZM21.411,49.739L21.323,39.286L35.483,43.086L34.6,53.278L21.411,49.739ZM35.46,53.509L36.344,43.317L52.895,47.76L50.295,57.49L35.46,53.509ZM51.141,57.718L53.741,47.987L71.32,52.705L67,61.975L51.141,57.718ZM78.703,65.118L67.863,62.209L72.185,52.94L84.274,56.185L78.703,65.118ZM84.759,55.4L72.559,52.126L77.259,42.055L90.811,45.7L84.759,55.4ZM91.3,44.92L77.632,41.252L82.332,31.181L97.353,35.213L91.3,44.92ZM97.838,34.435L82.7,30.374L87.026,21.1L103.405,25.5L97.838,34.435Z" style="fill:rgb(255,195,0);fill-rule:nonzero;"/>
                                </g>
                                <path id="Path_5759" d="M82.477,84.8C81.669,84.799 80.864,84.692 80.084,84.482L0.874,63.224C0.389,63.094 0.049,62.652 0.049,62.149C0.049,61.539 0.551,61.037 1.161,61.037C1.258,61.037 1.354,61.05 1.448,61.075L80.658,82.335C84.355,83.327 88.214,81.104 89.21,77.408C89.789,75.716 89.748,73.872 89.094,72.208C88.351,70.645 86.725,69.518 84.263,68.857L79.029,67.457L79.02,67.457L79.008,67.457L20.37,51.709L20.361,51.709C19.879,51.579 19.54,51.141 19.534,50.642L19.127,2.342C19.127,2.339 19.127,2.336 19.127,2.333C19.127,1.723 19.628,1.222 20.238,1.222C20.336,1.222 20.433,1.235 20.527,1.26L104.536,23.809L119,0.607C119.014,0.585 119.029,0.565 119.044,0.544L119.058,0.524L119.092,0.484L119.099,0.476C119.172,0.392 119.257,0.32 119.352,0.262L119.358,0.262L119.383,0.247L119.406,0.235L119.412,0.235C119.548,0.162 119.699,0.119 119.853,0.108L120.019,0.108L135.709,1.277C136.287,1.319 136.74,1.807 136.74,2.387C136.74,2.997 136.238,3.499 135.628,3.499C135.601,3.499 135.574,3.498 135.547,3.496L120.537,2.36L81.045,65.693L84.837,66.711C87.96,67.549 90.068,69.079 91.105,71.259C91.995,73.398 92.086,75.787 91.361,77.987C90.279,81.991 86.622,84.794 82.475,84.8L82.477,84.8ZM1.16,61.383C1.159,61.383 1.159,61.383 1.158,61.383C0.737,61.383 0.391,61.729 0.391,62.15C0.391,62.496 0.625,62.802 0.96,62.891L80.171,84.152C84.864,85.413 89.764,82.592 91.029,77.9C91.731,75.779 91.647,73.474 90.794,71.409C89.803,69.325 87.769,67.857 84.749,67.047L80.506,65.909L80.629,65.709L120.355,2L135.585,3.135C135.604,3.136 135.622,3.137 135.641,3.137C136.062,3.137 136.408,2.791 136.408,2.37C136.408,1.97 136.096,1.634 135.697,1.605L120.009,0.438L119.893,0.438C119.788,0.446 119.686,0.475 119.593,0.525L119.577,0.533L119.566,0.539L119.55,0.549C119.485,0.589 119.426,0.638 119.375,0.696L119.367,0.705C119.36,0.713 119.353,0.721 119.346,0.73L119.336,0.744C119.325,0.759 119.314,0.774 119.304,0.789L119.304,0.796L104.7,24.211L104.576,24.178L20.44,1.6C20.375,1.583 20.308,1.574 20.241,1.574C19.82,1.574 19.474,1.92 19.474,2.341C19.474,2.342 19.474,2.344 19.474,2.346L19.881,50.646C19.885,50.988 20.116,51.288 20.445,51.38L20.471,51.38L84.352,68.529C86.917,69.217 88.617,70.408 89.406,72.066C90.097,73.804 90.146,75.732 89.544,77.502C88.69,80.691 85.778,82.925 82.477,82.925C81.833,82.925 81.191,82.84 80.569,82.672L1.359,61.412C1.294,61.394 1.227,61.384 1.16,61.383ZM78.954,65.49L67.792,62.49L72.261,52.903L84.716,56.25L78.954,65.49ZM68.279,62.267L78.8,65.09L84.18,56.462L72.453,53.316L68.279,62.267ZM67.269,62.353L51.1,58.015L53.792,47.951L71.737,52.768L67.269,62.353ZM51.525,57.77L67.079,61.945L71.251,52.993L54.037,48.373L51.525,57.77ZM50.587,57.875L35.448,53.813L36.363,43.272L53.28,47.813L50.587,57.875ZM35.816,53.554L50.342,57.454L52.856,48.054L36.67,43.711L35.816,53.554ZM85.009,55.778L72.489,52.418L77.332,42.029L91.253,45.766L85.009,55.778ZM72.976,52.191L84.852,55.379L90.714,45.979L77.524,42.439L72.976,52.191ZM34.924,53.672L21.411,50.045L21.32,39.234L35.84,43.134L34.924,53.672ZM21.754,49.78L34.615,53.232L35.469,43.389L21.669,39.689L21.754,49.78ZM71.965,52.28L53.929,47.44L56.846,36.534L57.013,36.579L76.813,41.892L71.965,52.28ZM54.352,47.192L71.774,51.868L76.321,42.114L57.09,36.953L54.352,47.192ZM53.414,47.297L53.247,47.252L36.407,42.732L37.4,31.309L56.333,36.391L53.414,47.297ZM36.776,42.475L53.17,46.875L55.909,36.636L37.709,31.75L36.776,42.475ZM91.546,45.293L77.559,41.539L82.4,31.15L97.787,35.28L91.546,45.293ZM78.046,41.312L91.388,44.893L97.25,35.493L82.593,31.558L78.046,41.312ZM35.884,42.592L21.314,38.681L21.214,26.966L36.874,31.166L35.884,42.592ZM21.657,38.417L35.576,42.154L36.507,31.43L21.565,27.42L21.657,38.417ZM77.036,41.4L76.896,41.362L56.984,36.016L59.9,25.11L81.879,31.01L77.036,41.4ZM57.406,35.774L76.845,40.99L81.392,31.236L60.145,25.536L57.406,35.774ZM56.468,35.879L56.301,35.834L37.444,30.772L38.436,19.348L59.387,24.971L56.468,35.879ZM37.814,30.513L56.225,35.453L58.964,25.214L38.744,19.787L37.814,30.513ZM98.084,34.807L82.63,30.659L87.1,21.072L103.845,25.566L98.084,34.807ZM83.117,30.433L97.925,34.408L103.305,25.78L87.29,21.48L83.117,30.433ZM36.917,30.633L21.21,26.413L21.11,14.698L37.918,19.21L36.917,30.633ZM21.553,26.148L36.613,30.19L37.544,19.466L21.461,15.15L21.553,26.148ZM82.108,30.519L81.968,30.481L60.037,24.6L62.729,14.536L86.576,20.936L82.108,30.519ZM60.461,24.351L81.916,30.11L86.088,21.158L62.973,14.958L60.461,24.351ZM59.524,24.456L38.482,18.809L39.4,8.268L39.6,8.321L62.22,14.392L59.524,24.456ZM38.851,18.551L59.28,24.033L61.794,14.633L39.707,8.708L38.851,18.551ZM37.959,18.669L21.107,14.145L21.015,3.335L38.874,8.128L37.959,18.669ZM21.45,13.88L37.65,18.228L38.5,8.386L21.36,3.786L21.45,13.88Z" style="fill:rgb(255,195,0);fill-rule:nonzero;"/>
                            </g>
                            <g id="Group_4905" transform="matrix(1,0,0,1,13.653,70.133)">
                                <g id="Path_5760" transform="matrix(1,0,0,1,0.168,0.166)">
                                    <path d="M6.873,0.193C6.415,0.071 5.943,0.009 5.469,0.009C2.476,0.009 0.013,2.472 0.013,5.465C0.013,8.458 2.476,10.921 5.469,10.921C7.929,10.921 10.099,9.258 10.738,6.882C10.863,6.418 10.927,5.94 10.927,5.46C10.927,2.996 9.255,0.824 6.873,0.193ZM8.921,6.393C8.504,7.954 7.079,9.048 5.463,9.048C3.5,9.048 1.884,7.432 1.884,5.469C1.884,3.505 3.5,1.89 5.463,1.89C5.775,1.89 6.086,1.931 6.387,2.011C7.948,2.425 9.043,3.848 9.043,5.463C9.043,5.777 9.002,6.09 8.92,6.393L8.921,6.393Z" style="fill:rgb(255,195,0);fill-rule:nonzero;"/>
                                </g>
                                <path id="Path_5761" d="M5.635,11.262C2.551,11.26 0.013,8.721 0.013,5.637C0.013,2.551 2.553,0.012 5.638,0.012C8.724,0.012 11.263,2.551 11.263,5.637C11.263,6.128 11.199,6.617 11.072,7.092C10.41,9.542 8.173,11.258 5.635,11.262ZM5.629,0.344C5.627,0.344 5.626,0.344 5.624,0.344C2.72,0.344 0.331,2.733 0.331,5.637C0.331,8.541 2.72,10.93 5.624,10.93C8.528,10.93 10.917,8.541 10.917,5.637C10.917,3.251 9.304,1.146 7,0.526C6.553,0.405 6.092,0.344 5.629,0.344ZM5.639,9.382C5.637,9.382 5.635,9.382 5.633,9.382C3.576,9.382 1.884,7.69 1.884,5.633C1.884,3.576 3.576,1.884 5.633,1.884C7.689,1.884 9.382,3.576 9.382,5.633C9.382,5.959 9.339,6.285 9.255,6.6L9.088,6.555L9.255,6.6C8.818,8.233 7.328,9.378 5.638,9.381L5.639,9.382ZM5.63,2.226C5.628,2.226 5.626,2.226 5.624,2.226C3.752,2.226 2.212,3.766 2.212,5.638C2.212,7.51 3.752,9.05 5.624,9.05C7.496,9.05 9.036,7.51 9.036,5.638C9.036,4.1 7.996,2.742 6.51,2.343C6.223,2.266 5.927,2.226 5.63,2.226Z" style="fill:rgb(255,195,0);fill-rule:nonzero;"/>
                            </g>
                            <g id="Group_4906" transform="matrix(1,0,0,1,60.091,82.577)">
                                <g id="Path_5762" transform="matrix(1,0,0,1,0.172,0.171)">
                                    <path d="M6.873,0.193C6.415,0.071 5.942,0.009 5.468,0.009C2.474,0.009 0.011,2.472 0.011,5.466C0.011,8.46 2.474,10.923 5.468,10.923C7.929,10.923 10.099,9.258 10.738,6.882C10.863,6.418 10.927,5.94 10.927,5.46C10.927,2.996 9.255,0.824 6.873,0.193ZM8.92,6.393C8.503,7.954 7.078,9.048 5.462,9.048C3.499,9.048 1.883,7.432 1.883,5.469C1.883,3.505 3.499,1.89 5.462,1.89C5.775,1.89 6.085,1.93 6.387,2.011C7.948,2.425 9.043,3.848 9.043,5.463C9.043,5.777 9.002,6.09 8.92,6.393Z" style="fill:rgb(255,195,0);fill-rule:nonzero;"/>
                                </g>
                                <path id="Path_5763" d="M5.639,11.267C2.554,11.265 0.016,8.725 0.016,5.64C0.016,2.553 2.556,0.013 5.643,0.013C8.73,0.013 11.27,2.553 11.27,5.64C11.27,6.133 11.205,6.624 11.077,7.1C10.415,9.55 8.178,11.265 5.64,11.27L5.639,11.267ZM5.633,0.348C5.63,0.348 5.626,0.348 5.623,0.348C2.715,0.348 0.323,2.74 0.323,5.648C0.323,8.555 2.715,10.948 5.623,10.948C8.53,10.948 10.923,8.555 10.923,5.648C10.923,3.259 9.307,1.151 7,0.53C6.554,0.41 6.095,0.349 5.633,0.348ZM5.639,9.385C3.584,9.385 1.893,7.693 1.893,5.638C1.893,3.582 3.584,1.891 5.64,1.891C7.695,1.891 9.387,3.582 9.387,5.638C9.387,5.966 9.344,6.292 9.259,6.608C8.821,8.241 7.329,9.385 5.638,9.385L5.639,9.385ZM5.639,2.23C3.775,2.232 2.243,3.766 2.243,5.63C2.243,7.495 3.778,9.03 5.643,9.03C7.174,9.03 8.525,7.996 8.925,6.518C9.001,6.232 9.039,5.938 9.039,5.642C9.039,3.773 7.503,2.234 5.634,2.23L5.639,2.23Z" style="fill:rgb(255,195,0);fill-rule:nonzero;"/>
                            </g>
                            <g id="Group_4907" transform="matrix(1,0,0,1,63.54,86.026)">
                                <g id="Path_5764" transform="matrix(1,0,0,1,0.172,0.173)">
                                    <path d="M2.534,0.071C2.365,0.026 2.191,0.003 2.016,0.003C0.912,0.003 0.004,0.911 0.004,2.015C0.004,3.119 0.912,4.027 2.016,4.027C2.923,4.027 3.724,3.413 3.959,2.537C4.005,2.366 4.029,2.19 4.029,2.013C4.029,1.104 3.412,0.304 2.534,0.071ZM3.112,2.309C2.979,2.803 2.528,3.15 2.016,3.15C1.393,3.15 0.881,2.637 0.881,2.015C0.881,1.392 1.393,0.88 2.016,0.88C2.116,0.88 2.215,0.893 2.312,0.919C2.806,1.051 3.151,1.502 3.151,2.013C3.151,2.113 3.138,2.213 3.112,2.309Z" style="fill:rgb(255,195,0);fill-rule:nonzero;"/>
                                </g>
                                <path id="Path_5765" d="M2.186,4.372C0.992,4.365 0.015,3.381 0.015,2.187C0.015,0.988 1.001,0.002 2.2,0.002C2.385,0.002 2.569,0.026 2.748,0.072C3.709,0.321 4.385,1.195 4.385,2.187C4.385,3.386 3.398,4.372 2.2,4.372C2.195,4.372 2.19,4.372 2.185,4.372L2.186,4.372ZM2.186,0.346C2.183,0.346 2.181,0.346 2.178,0.346C1.166,0.346 0.333,1.179 0.333,2.191C0.333,3.203 1.166,4.036 2.178,4.036C3.19,4.036 4.023,3.203 4.023,2.191C4.023,1.36 3.462,0.627 2.66,0.41C2.504,0.368 2.343,0.347 2.182,0.347L2.186,0.346ZM2.186,3.494C1.47,3.494 0.88,2.904 0.88,2.188C0.88,1.472 1.47,0.882 2.186,0.882C2.903,0.882 3.492,1.472 3.492,2.188C3.492,2.302 3.478,2.416 3.448,2.526C3.295,3.095 2.775,3.493 2.186,3.494ZM2.186,1.225C1.659,1.225 1.225,1.66 1.225,2.187C1.225,2.715 1.659,3.149 2.187,3.149C2.621,3.149 3.004,2.855 3.116,2.436C3.138,2.355 3.148,2.272 3.148,2.188C3.148,1.66 2.715,1.226 2.187,1.225L2.186,1.225Z" style="fill:rgb(255,195,0);fill-rule:nonzero;"/>
                            </g>
                            <g id="Group_4908" transform="matrix(1,0,0,1,17.1,73.558)">
                                <g id="Path_5766" transform="matrix(1,0,0,1,0.172,0.17)">
                                    <path d="M2.534,0.071C2.365,0.026 2.191,0.003 2.016,0.003C0.912,0.003 0.004,0.911 0.004,2.015C0.004,3.119 0.912,4.027 2.016,4.027C2.923,4.027 3.724,3.413 3.959,2.537C4.005,2.366 4.029,2.19 4.029,2.013C4.029,1.104 3.412,0.304 2.534,0.071ZM3.112,2.309C2.979,2.803 2.528,3.15 2.016,3.15C1.393,3.15 0.881,2.637 0.881,2.015C0.881,1.392 1.393,0.88 2.016,0.88C2.116,0.88 2.215,0.893 2.312,0.919C2.806,1.051 3.151,1.502 3.151,2.013C3.151,2.113 3.138,2.213 3.112,2.309Z" style="fill:rgb(255,195,0);fill-rule:nonzero;"/>
                                </g>
                                <path id="Path_5767" d="M2.187,4.371C0.991,4.369 0.008,3.384 0.008,2.188C0.008,0.99 0.994,0.005 2.191,0.005C3.389,0.005 4.374,0.99 4.374,2.188C4.374,2.379 4.349,2.569 4.3,2.753C4.043,3.704 3.175,4.37 2.19,4.371L2.187,4.371ZM2.187,0.345C2.187,0.345 2.186,0.345 2.186,0.345C1.176,0.345 0.345,1.176 0.345,2.186C0.345,3.196 1.176,4.027 2.186,4.027C3.195,4.027 4.027,3.196 4.027,2.186C4.027,1.356 3.465,0.623 2.663,0.408C2.507,0.366 2.346,0.345 2.184,0.345L2.187,0.345ZM2.187,3.493C2.186,3.493 2.185,3.493 2.184,3.493C1.471,3.493 0.884,2.906 0.884,2.193C0.884,1.48 1.471,0.893 2.184,0.893C2.897,0.893 3.484,1.48 3.484,2.193C3.484,2.222 3.483,2.25 3.481,2.279C3.431,2.955 2.864,3.487 2.186,3.493L2.187,3.493ZM2.187,1.224C2.187,1.224 2.186,1.224 2.186,1.224C1.658,1.224 1.223,1.659 1.223,2.187C1.223,2.715 1.658,3.15 2.186,3.15C2.714,3.15 3.149,2.715 3.149,2.187C3.149,1.753 2.855,1.37 2.436,1.257C2.355,1.235 2.271,1.224 2.187,1.224Z" style="fill:rgb(255,195,0);fill-rule:nonzero;"/>
                            </g>
                            <g id="Group_4909" transform="matrix(1,0,0,1,13.564,26.549)">
                                <g id="Path_5768" transform="matrix(1,0,0,1,0.169,0.173)">
                                    <path d="M0.5,20.682C0.631,20.717 0.771,20.689 0.878,20.605C0.985,20.52 1.047,20.391 1.046,20.254L0.868,0.437C0.867,0.197 0.67,0 0.43,0C0.193,0.003 0,0.199 0,0.436C0,0.438 0,0.441 0,0.443L0.177,20.261C0.178,20.457 0.31,20.629 0.499,20.682L0.5,20.682Z" style="fill:rgb(255,195,0);fill-rule:nonzero;"/>
                                </g>
                                <path id="Path_5769" d="M0.782,21.043C0.729,21.043 0.677,21.036 0.626,21.022C0.363,20.948 0.18,20.708 0.178,20.435L0,0.617C0,0.614 0,0.611 0,0.608C0,0.277 0.269,0.004 0.6,0C0.934,0 1.209,0.274 1.21,0.608L1.387,20.426C1.387,20.429 1.387,20.432 1.387,20.435C1.387,20.766 1.118,21.039 0.787,21.043L0.782,21.043ZM0.606,0.346C0.461,0.347 0.342,0.466 0.342,0.611C0.342,0.612 0.342,0.614 0.342,0.615L0.519,20.433C0.52,20.552 0.6,20.656 0.714,20.688C0.737,20.694 0.76,20.697 0.784,20.697C0.928,20.695 1.045,20.576 1.045,20.432C1.045,20.431 1.045,20.429 1.045,20.428L0.868,0.611C0.867,0.467 0.75,0.349 0.606,0.347L0.606,0.346Z" style="fill:rgb(255,195,0);fill-rule:nonzero;"/>
                            </g>
                            <g id="Group_4910" transform="matrix(1,0,0,1,8.374,15.279)">
                                <g id="Path_5770" transform="matrix(1,0,0,1,0.172,0.173)">
                                    <path d="M0.425,12.138C0.557,12.174 0.698,12.145 0.805,12.061C0.913,11.977 0.975,11.847 0.974,11.71L0.872,0.436C0.87,0.198 0.674,0.003 0.436,0.003C0.197,0.003 0,0.2 0,0.44C0,0.441 0,0.442 0,0.443L0.1,11.717C0.102,11.914 0.235,12.087 0.425,12.138Z" style="fill:rgb(255,195,0);fill-rule:nonzero;"/>
                                </g>
                                <path id="Path_5771" d="M0.709,12.5C0.375,12.499 0.101,12.225 0.1,11.891L0,0.617C0,0.607 -0.001,0.598 -0.001,0.588C-0.001,0.255 0.274,-0.02 0.607,-0.02C0.941,-0.02 1.215,0.255 1.215,0.588C1.215,0.595 1.215,0.601 1.215,0.608L1.315,11.882C1.319,12.216 1.049,12.494 0.715,12.499L0.709,12.5ZM0.608,0.346C0.537,0.346 0.468,0.375 0.419,0.426C0.37,0.477 0.343,0.545 0.344,0.615L0.444,11.889C0.446,12.009 0.528,12.114 0.644,12.144C0.724,12.166 0.809,12.149 0.874,12.098C0.938,12.046 0.975,11.968 0.974,11.885L0.872,0.611C0.872,0.466 0.753,0.347 0.608,0.346Z" style="fill:rgb(255,195,0);fill-rule:nonzero;"/>
                            </g>
                            <g id="Group_4911" transform="matrix(1,0,0,1,8.488,29.209)">
                                <g id="Path_5772" transform="matrix(1,0,0,1,0.173,0.173)">
                                    <path d="M0.434,0C0.195,0.002 0,0.198 0,0.437C0,0.439 0,0.441 0,0.443L0.053,6.312C0.055,6.551 0.252,6.746 0.491,6.746C0.731,6.746 0.928,6.549 0.928,6.309C0.928,6.307 0.928,6.306 0.928,6.305L0.875,0.436C0.873,0.196 0.674,-0.001 0.434,0Z" style="fill:rgb(255,195,0);fill-rule:nonzero;"/>
                                </g>
                                <path id="Path_5773" d="M0.663,7.093C0.33,7.092 0.056,6.818 0.054,6.485L0,0.617C0,0.616 0,0.614 0,0.612C0,0.278 0.275,0.003 0.609,0.003C0.942,0.003 1.217,0.275 1.219,0.608L1.272,6.477C1.276,6.811 1.006,7.089 0.672,7.094L0.663,7.093ZM0.607,0.346C0.462,0.347 0.344,0.466 0.344,0.611C0.344,0.612 0.344,0.613 0.344,0.614L0.4,6.483C0.402,6.603 0.484,6.708 0.6,6.738C0.623,6.744 0.647,6.747 0.671,6.747C0.816,6.746 0.934,6.627 0.934,6.482C0.934,6.481 0.934,6.479 0.934,6.478L0.875,0.61C0.876,0.54 0.849,0.472 0.8,0.422C0.749,0.371 0.679,0.343 0.607,0.346Z" style="fill:rgb(255,195,0);fill-rule:nonzero;"/>
                            </g>
                        </g>
                    </g>
                </g>
                <g id="Group_4974" transform="matrix(1,0,0,1,0.001,35.477)">
                    <g opacity="0.22">
                        <g id="Group_4973" transform="matrix(1,0,0,1,0.027,60.374)">
                            <g id="Path_5790" transform="matrix(1,0,0,1,4.475,0.003)">
                                <path d="M4.7,2.248L6.943,3.476L4.7,4.7L3.476,6.944L2.247,4.7L0,3.47L2.245,2.246L3.47,0L4.7,2.248Z" style="fill:rgb(69,90,100);fill-rule:nonzero;"/>
                            </g>
                            <g id="Path_5791" transform="matrix(1,0,0,1,0.007,9.023)">
                                <path d="M2.35,1.124L3.472,1.739L2.351,2.352L1.738,3.473L1.124,2.35L0,1.736L1.121,1.123L1.735,0L2.35,1.124Z" style="fill:rgb(69,90,100);fill-rule:nonzero;"/>
                            </g>
                        </g>
                        <g id="Path_5792" transform="matrix(1,0,0,1,170.99,0.128)">
                            <path d="M5.047,2.413L7.458,3.733L5.049,5.049L3.733,7.457L2.413,5.047L0,3.727L2.411,2.411L3.727,0L5.047,2.413Z" style="fill:rgb(69,90,100);fill-rule:nonzero;"/>
                        </g>
                    </g>
                </g>
                <g id="Group_4979" transform="matrix(1,0,0,1,27.155,26.16)">
                    <g opacity="0.22">
                        <g id="Path_5796" transform="matrix(1,0,0,1,13.791,0.01)">
                            <path d="M1.679,6.916L1.674,0.838C1.674,0.838 1.674,0.838 1.674,0.838C1.674,0.378 1.296,0 0.837,0C0.378,0 0,0.378 0,0.837L0.006,6.915C0.021,7.363 0.394,7.723 0.843,7.723C1.291,7.723 1.664,7.363 1.679,6.915L1.679,6.916Z" style="fill:rgb(69,90,100);fill-rule:nonzero;"/>
                        </g>
                        <g id="Path_5797" transform="matrix(1,0,0,1,0.01,13.791)">
                            <path d="M7.752,0.843C7.751,0.384 7.374,0.007 6.915,0.006L0.837,0C0.389,0.015 0.029,0.388 0.029,0.837C0.029,1.285 0.389,1.658 0.837,1.673L6.915,1.678C6.916,1.678 6.916,1.678 6.917,1.678C7.375,1.678 7.752,1.301 7.752,0.843C7.752,0.843 7.752,0.843 7.752,0.843Z" style="fill:rgb(69,90,100);fill-rule:nonzero;"/>
                        </g>
                        <g id="Path_5798" transform="matrix(1,0,0,1,4.043,4.043)">
                            <path d="M5.853,5.017C5.853,4.795 5.764,4.582 5.607,4.425L1.429,0.246C1.272,0.089 1.059,0.001 0.837,0.001C0.379,0.001 0.001,0.379 0.001,0.837C0.001,1.059 0.089,1.272 0.246,1.429L4.425,5.608C4.582,5.765 4.795,5.854 5.017,5.854C5.476,5.854 5.853,5.476 5.853,5.018C5.853,5.017 5.853,5.017 5.853,5.017Z" style="fill:rgb(69,90,100);fill-rule:nonzero;"/>
                        </g>
                    </g>
                </g>
            </g>
            <g id="Group_4982" transform="matrix(0.992546,-0.121869,0.121869,0.992546,144.326,11.038)">
                <g id="Path_5747" transform="matrix(0.927,-0.375,0.375,0.927,1.819,2.378)">
                    <path d="M0.593,13.124C0.267,13.123 0,12.855 0,12.529C0,12.448 0.017,12.368 0.049,12.293L5.209,0.359C5.303,0.142 5.518,0.001 5.755,0.001C6.081,0.001 6.349,0.269 6.349,0.595C6.349,0.676 6.332,0.756 6.3,0.831L1.139,12.765C1.044,12.982 0.829,13.123 0.593,13.124Z" style="fill:white;fill-rule:nonzero;"/>
                </g>
                <g id="Path_5747-2" transform="matrix(0.375,0.927,-0.927,0.375,12.168,1.819)">
                    <path d="M0.593,13.124C0.267,13.123 0,12.855 0,12.529C0,12.448 0.017,12.368 0.049,12.293L5.209,0.359C5.303,0.142 5.518,0.001 5.755,0.001C6.081,0.001 6.349,0.269 6.349,0.595C6.349,0.676 6.332,0.756 6.3,0.831L1.139,12.765C1.044,12.982 0.829,13.123 0.593,13.124Z" style="fill:white;fill-rule:nonzero;"/>
                </g>
            </g>
        </g>
        <g id="Path_5801" transform="matrix(1,0,0,1,711.482,393.545)">
            <path d="M292.341,180.061C288.628,184.339 290.265,187.637 288.684,187.79C288.609,187.799 288.532,187.799 288.457,187.79C287.23,187.621 287.689,184.79 283.775,181.052C281.301,178.686 276.6,174.439 277.875,172.252C278.966,170.377 282.183,174.481 283.887,171.952C285.126,170.112 280.246,169.444 281.031,167.505C281.902,165.358 284.864,168.274 285.298,166.171C285.732,164.068 283.498,161.128 285.359,160.635C285.388,160.627 285.417,160.622 285.443,160.616C287.231,160.23 287.851,163.016 288.168,164.862C288.49,166.737 288.468,167.326 289.031,167.18C289.594,167.034 291.257,164.7 292.44,166.08C293.623,167.46 290.066,170.707 290.409,173.115C290.752,175.523 293.293,171.51 294.182,173.736C294.694,175 294.186,177.937 292.341,180.061Z" style="fill:rgb(189,189,189);fill-rule:nonzero;"/>
        </g>
    </g>
    <defs>
        <linearGradient id="_Linear1" x1="0" y1="0" x2="1" y2="0" gradientUnits="userSpaceOnUse" gradientTransform="matrix(2.23141e-15,36.4416,-36.4416,2.23141e-15,141,-8.84732)"><stop offset="0" style="stop-color:rgb(229,229,229);stop-opacity:1"/><stop offset="0.6" style="stop-color:rgb(238,238,239);stop-opacity:1"/><stop offset="1" style="stop-color:rgb(238,242,249);stop-opacity:1"/></linearGradient>
    </defs>
</svg>
