<?xml version="1.0" encoding="UTF-8" standalone="no"?>
<!DOCTYPE svg PUBLIC "-//W3C//DTD SVG 1.1//EN" "http://www.w3.org/Graphics/SVG/1.1/DTD/svg11.dtd">
<svg width="94px" height="95px" version="1.1" xmlns="http://www.w3.org/2000/svg" xmlns:xlink="http://www.w3.org/1999/xlink" xml:space="preserve" xmlns:serif="http://www.serif.com/" style="fill-rule:evenodd;clip-rule:evenodd;stroke-linejoin:round;stroke-miterlimit:1.41421;">
    <g id="Rectangle_2701" transform="matrix(0.707107,0.707107,-0.707107,0.707107,47,0)">
        <path d="M66.468,7C66.468,3.137 63.331,0 59.468,0L7,0C3.137,0 0,3.137 0,7L0,59.468C0,63.331 3.137,66.468 7,66.468L59.468,66.468C63.331,66.468 66.468,63.331 66.468,59.468L66.468,7Z" style="fill:white;"/>
    </g>
    <g transform="matrix(0.243999,0,0,0.243999,12.202,21.2799)">
        <g>
            <g transform="matrix(0.28485,0,0,0.28485,25.4183,44.7096)">
                <path d="M680.767,527.729L474.233,527.729C449.058,527.729 428.65,507.321 428.65,482.146L428.65,276.729C428.65,251.554 449.058,231.146 474.233,231.146L680.767,231.146C705.946,231.146 726.354,251.554 726.354,276.729L726.354,482.146C726.354,507.321 705.946,527.729 680.767,527.729Z" style="fill:rgb(248,227,25);fill-rule:nonzero;"/>
            </g>
            <g transform="matrix(0.28485,0,0,0.28485,25.4183,44.7096)">
                <path d="M348.633,527.729L142.096,527.729C116.921,527.729 96.513,507.321 96.513,482.146L96.513,276.729C96.513,251.554 116.921,231.146 142.096,231.146L348.633,231.146C373.808,231.146 394.217,251.554 394.217,276.729L394.217,482.146C394.217,507.321 373.808,527.729 348.633,527.729Z" style="fill:rgb(248,227,25);fill-rule:nonzero;"/>
            </g>
            <g transform="matrix(0.28485,0,0,0.28485,25.4183,-144.817)">
                <path d="M348.633,860.408L142.096,860.408C116.921,860.408 96.513,839.996 96.513,814.821L96.513,609.408C96.513,584.233 116.921,563.821 142.096,563.821L348.633,563.821C373.808,563.821 394.217,584.233 394.217,609.408L394.217,814.821C394.217,839.996 373.808,860.408 348.633,860.408Z" style="fill:rgb(248,227,25);fill-rule:nonzero;"/>
            </g>
            <g transform="matrix(0.28485,0,0,0.28485,25.4183,-109.018)">
                <path d="M227.15,622.3C203.983,645.612 178.604,674.042 166.408,687.912C162.375,692.437 155.438,692.633 151.158,688.304L146.142,683.241C142.013,679.108 142.112,672.417 146.292,668.387C159.079,656.087 185.442,630.266 207.475,605.921L211.658,612.021C215.346,617.333 220.904,621.021 227.15,622.3Z" style="fill:rgb(3,4,4);fill-rule:nonzero;"/>
            </g>
            <g transform="matrix(0.28485,0,0,0.28485,25.4183,-175.005)">
                <path d="M345.092,739.995C345.092,740.929 344.746,741.866 344.108,742.654C336.092,752.341 316.571,774.754 298.317,799.458C282.875,820.362 276.083,816.937 269.842,818.196C261.183,808.904 252.133,799.262 242.887,789.325C243.121,786.85 240.675,777.091 252.592,765.441C262.017,756.229 278.962,740.158 312.779,711.42C314.646,709.846 317.45,709.991 319.075,711.812C319.858,712.65 320.254,713.733 320.254,714.812C320.254,715.996 319.812,717.175 318.925,718.058L272.742,764.046C271.167,765.62 271.167,768.179 272.742,769.754C273.529,770.541 274.562,770.933 275.596,770.933C276.629,770.933 277.658,770.541 278.446,769.754L323.896,724.354C326.154,722.141 329.796,722.387 331.713,724.845C332.45,725.779 332.796,726.912 332.796,728.046C332.796,729.321 332.354,730.554 331.467,731.537L287.987,779.983C286.467,781.704 286.513,784.312 288.188,785.933C289.021,786.77 290.104,787.162 291.183,787.162C292.367,787.162 293.546,786.67 294.383,785.737L337.763,737.141C339.388,735.375 342.142,735.321 343.812,736.995C344.646,737.829 345.092,738.912 345.092,739.995Z" style="fill:rgb(3,4,4);fill-rule:nonzero;"/>
            </g>
            <g transform="matrix(0.28485,0,0,0.28485,25.4183,-146.031)">
                <path d="M337.321,814.159L332.746,818.884C329.55,822.18 324.383,822.425 320.942,819.375C308.842,808.654 294.138,791.538 285.233,782.83C279.925,777.767 277.512,773.534 275.154,766.846C271.658,754.355 261.575,740.188 246.775,740.188C244.463,740.188 241.954,740.534 239.396,741.317C238.754,741.663 238.067,741.909 237.429,742.155C230.988,744.367 223.754,742.104 219.771,736.354L214.212,728.288L213.575,727.4C207.625,718.742 201.425,710.284 195.079,701.921C149.096,640.884 149.588,617.425 150.521,611.917C151.554,606.067 154.7,606.067 157.012,608.621C182.638,637 211.363,668.134 238.413,697.204C246.133,705.513 253.758,713.68 261.087,721.5C296.104,758.929 325.517,789.913 337.371,802.404C340.517,805.7 340.471,810.863 337.321,814.159Z" style="fill:rgb(3,4,4);fill-rule:nonzero;"/>
            </g>
            <g transform="matrix(0.28485,0,0,0.28485,25.4183,-156.754)">
                <path d="M522.158,827.512C510.55,777.812 502.138,748.745 510.108,728.679C510.404,733.4 517.904,764.675 519.958,776.779C521.396,785.262 524.617,782.704 525.046,781.095C533.567,749.333 543.338,744.466 546.617,728.233C551.337,677.591 495.075,678.17 498.054,634.987C498.104,634.279 497.196,633.904 496.8,634.491C465.308,681.295 469.862,770.024 519.367,828.804C519.862,829.391 523.258,832.233 522.158,827.512Z" style="fill:rgb(104,153,66);fill-rule:nonzero;"/>
            </g>
            <g transform="matrix(0.28485,0,0,0.28485,25.4183,-134.174)">
                <path d="M696.846,589.5C697.721,591.009 694.083,593.946 692.725,595.171C658.546,626.221 682.829,682.442 674.933,727.563C668.071,766.784 642.067,781.767 635.096,785.042C635.096,785.042 606.988,799.317 572.371,792.93C561.996,789.959 560.529,782.367 561.329,773.242C562.029,765.238 565.592,752.704 568.837,745.355L600.567,673.492C569.425,705.034 559.538,725.246 548.242,780.18C547.688,782.879 545.792,783.371 543.571,781.713C543.571,781.713 530.346,769.821 529.362,746.1C526.562,678.209 557.554,644.609 590.783,623.538C606.521,613.554 624.292,606.629 642.775,604.259C671.529,600.567 678.379,596.721 690.275,590.775C691.921,589.959 695.712,587.55 696.846,589.5Z" style="fill:rgb(104,153,66);fill-rule:nonzero;"/>
            </g>
            <g transform="matrix(0.28485,0,0,0.28485,25.4183,45.5975)">
                <path d="M577.913,486.916C517.408,486.916 468.146,437.979 468.146,377.875C468.146,317.775 517.408,268.837 577.913,268.837C638.412,268.837 687.679,317.775 687.679,377.875C687.679,437.979 638.412,486.916 577.913,486.916ZM577.913,261.462C513.3,261.462 460.721,313.691 460.721,377.875C460.721,442.062 513.3,494.296 577.913,494.296C642.525,494.296 695.104,442.062 695.104,377.875C695.104,313.691 642.525,261.462 577.913,261.462Z" style="fill:rgb(30,28,15);fill-rule:nonzero;"/>
            </g>
            <g transform="matrix(0.28485,0,0,0.28485,25.4183,45.596)">
                <path d="M653.713,384.667C640.492,415.9 613.062,434.988 580.338,435.721C579.646,435.771 579.004,435.771 578.358,435.771C546.225,435.771 517.608,417.575 503.25,387.963C502.408,386.196 503.2,384.125 505.033,383.342C506.863,382.555 508.996,383.292 509.838,385.063C523.254,412.755 550.087,429.476 580.142,428.838C609.896,428.146 634.85,410.638 646.929,382.063C647.725,380.292 649.85,379.455 651.683,380.192C653.562,380.88 654.454,382.901 653.713,384.667ZM537.117,319.159C544.246,319.159 549.992,328.501 549.992,340.059C549.992,351.567 544.246,360.913 537.117,360.913C530.037,360.913 524.292,351.567 524.292,340.059C524.292,328.501 530.037,319.159 537.117,319.159ZM617.029,319.159C624.108,319.159 629.85,328.501 629.85,340.059C629.85,351.567 624.108,360.913 617.029,360.913C609.896,360.913 604.154,351.567 604.154,340.059C604.154,328.501 609.896,319.159 617.029,319.159ZM577.913,268.842C517.408,268.842 468.146,317.78 468.146,377.88C468.146,437.984 517.408,486.921 577.913,486.921C638.412,486.921 687.679,437.984 687.679,377.88C687.679,317.78 638.412,268.842 577.913,268.842Z" style="fill:rgb(248,183,22);fill-rule:nonzero;"/>
            </g>
            <g transform="matrix(0.28485,0,0,0.28485,25.4183,62.5341)">
                <path d="M653.713,325.204C640.492,356.437 613.062,375.525 580.338,376.258C579.646,376.308 579.004,376.308 578.358,376.308C546.225,376.308 517.608,358.112 503.25,328.5C502.408,326.733 503.2,324.662 505.033,323.879C506.863,323.092 508.996,323.829 509.838,325.6C523.254,353.292 550.087,370.013 580.142,369.375C609.896,368.683 634.85,351.175 646.929,322.6C647.725,320.829 649.85,319.992 651.683,320.729C653.562,321.417 654.454,323.438 653.713,325.204Z" style="fill:rgb(34,31,15);fill-rule:nonzero;"/>
            </g>
            <g transform="matrix(0,-0.28485,-0.28485,-0,296.843,295.46)">
                <ellipse cx="537.142" cy="415.727" rx="20.877" ry="12.85" style="fill:rgb(34,31,15);"/>
            </g>
            <g transform="matrix(0,-0.28485,-0.28485,-0,319.591,318.208)">
                <ellipse cx="617.002" cy="415.727" rx="20.877" ry="12.848" style="fill:rgb(34,31,15);"/>
            </g>
            <g transform="matrix(0.28485,0,0,0.28485,25.4183,11.3713)">
                <path d="M215.967,394.359C190.758,394.359 170.25,413.917 170.25,437.955C170.25,461.996 190.758,481.559 215.967,481.559C241.175,481.559 261.688,461.996 261.688,437.955C261.688,413.917 241.175,394.359 215.967,394.359ZM215.967,488.825C186.558,488.825 162.625,466.005 162.625,437.955C162.625,409.909 186.558,387.088 215.967,387.088C245.379,387.088 269.304,409.909 269.304,437.955C269.304,466.005 245.379,488.825 215.967,488.825Z" style="fill:rgb(3,5,6);fill-rule:nonzero;"/>
            </g>
            <g transform="matrix(0.28485,0,0,0.28485,25.4183,4.42951)">
                <path d="M215.975,465.146C214.488,465.146 213,464.604 211.842,463.516L188.812,441.912C187.325,440.516 187.25,438.183 188.646,436.695C190.038,435.212 192.379,435.137 193.858,436.533L215.975,457.275L229.158,444.97C230.646,443.587 232.979,443.658 234.371,445.15C235.763,446.641 235.679,448.975 234.192,450.366L220.087,463.529C218.933,464.604 217.454,465.146 215.975,465.146Z" style="fill:rgb(4,7,6);fill-rule:nonzero;"/>
            </g>
            <g transform="matrix(0.28485,0,0,0.28485,25.4183,66.998)">
                <path d="M345.396,384.012C344.608,380.175 342.933,376.637 340.625,373.637L357.742,373.637L357.788,384.012L345.396,384.012ZM294.587,363.8L294.587,277.287L319.671,277.287L334.771,311.029C335.117,311.812 335.654,312.5 336.296,312.991L357.542,328.783L357.692,363.8L294.587,363.8ZM321.346,405.804C313.671,405.804 307.179,400.787 305.017,393.854C304.525,392.229 304.229,390.508 304.229,388.737C304.229,387.116 304.475,385.491 304.917,384.012C306.196,379.537 309.196,375.85 313.179,373.637C315.637,372.308 318.392,371.571 321.346,371.571C324.296,371.571 327.05,372.308 329.458,373.637C334.821,376.587 338.458,382.246 338.458,388.737C338.458,398.129 330.737,405.804 321.346,405.804ZM297.292,384.012L208.121,384.012C207.333,380.175 205.663,376.637 203.35,373.637L302.063,373.637C299.754,376.637 298.079,380.175 297.292,384.012ZM200.4,393.854C198.237,400.787 191.746,405.804 184.071,405.804C176.45,405.804 169.958,400.787 167.742,393.854C167.25,392.229 166.954,390.508 166.954,388.737C166.954,387.116 167.204,385.491 167.646,384.012C168.925,379.537 171.975,375.85 175.908,373.637C178.367,372.308 181.171,371.571 184.071,371.571C187.021,371.571 189.779,372.308 192.238,373.637C196.221,375.85 199.221,379.537 200.5,384.012C200.942,385.491 201.187,387.116 201.187,388.737C201.187,390.508 200.892,392.229 200.4,393.854ZM160.021,384.012L152.496,384.012L152.496,373.637L164.792,373.637C162.479,376.637 160.808,380.175 160.021,384.012ZM367.575,373.637L367.529,363.8L367.379,328.783C367.379,325.683 365.904,322.729 363.396,320.862L343.229,305.862L327.346,270.35C326.554,268.583 324.8,267.45 322.867,267.45L274.621,267.45C271.913,267.45 269.7,269.662 269.7,272.366C269.7,275.075 271.913,277.287 274.621,277.287L284.75,277.287L284.75,363.8L147.625,363.8L147.625,351.508C147.625,348.787 145.425,346.587 142.708,346.587C139.992,346.587 137.788,348.787 137.788,351.508L137.788,366.358C137.788,369.558 139.804,372.258 142.658,373.196L142.658,388.933C142.658,391.637 144.871,393.854 147.579,393.854L160.121,393.854C162.479,404.867 172.367,413.179 184.071,413.179C195.829,413.179 205.663,404.867 208.025,393.854L297.392,393.854C299.754,404.867 309.588,413.179 321.346,413.179C333.05,413.179 342.933,404.867 345.296,393.854L362.708,393.854C364.033,393.854 365.267,393.312 366.2,392.425C367.133,391.492 367.625,390.212 367.625,388.933L367.575,373.637Z" style="fill:rgb(3,4,4);fill-rule:nonzero;"/>
            </g>
            <g transform="matrix(0.28485,0,0,0.28485,25.4183,61.771)">
                <path d="M154.013,354.221L130.242,354.221C128.079,354.221 126.329,352.104 126.329,349.492C126.329,346.875 128.079,344.758 130.242,344.758L154.013,344.758C156.171,344.758 157.925,346.875 157.925,349.492C157.925,352.104 156.171,354.221 154.013,354.221Z" style="fill:rgb(3,4,4);fill-rule:nonzero;"/>
            </g>
            <g transform="matrix(0.28485,0,0,0.28485,25.4183,50.676)">
                <path d="M165.625,374.3L119.937,374.3C117.6,374.3 115.704,371.916 115.704,368.966C115.704,366.016 117.6,363.629 119.937,363.629L165.625,363.629C167.963,363.629 169.858,366.016 169.858,368.966C169.858,371.916 167.963,374.3 165.625,374.3Z" style="fill:rgb(4,4,6);fill-rule:nonzero;"/>
            </g>
            <g transform="matrix(0.28485,0,0,0.28485,25.4183,34.2995)">
                <path d="M141.375,411.95C139.012,411.95 137.1,410.054 137.1,407.717L137.1,387.704C137.1,385.367 139.012,383.471 141.375,383.471L154.075,383.471C156.433,383.471 158.35,385.367 158.35,387.704C158.35,390.046 156.433,391.942 154.075,391.942L147.358,391.921L147.496,407.254C147.475,411.95 143.738,411.95 141.375,411.95Z" style="fill:rgb(4,4,6);fill-rule:nonzero;"/>
            </g>
        </g>
    </g>
</svg>
