<?xml version="1.0" encoding="UTF-8" standalone="no"?>
<!DOCTYPE svg PUBLIC "-//W3C//DTD SVG 1.1//EN" "http://www.w3.org/Graphics/SVG/1.1/DTD/svg11.dtd">
<svg width="311px" height="180px" version="1.1" xmlns="http://www.w3.org/2000/svg" xmlns:xlink="http://www.w3.org/1999/xlink" xml:space="preserve" xmlns:serif="http://www.serif.com/" style="fill-rule:evenodd;clip-rule:evenodd;stroke-linejoin:round;stroke-miterlimit:1.41421;">
    <g id="no_internet" transform="matrix(1,0,0,1,-951.928,-488.041)">
        <g id="Group_4865" transform="matrix(1,0,0,1,951.927,602.922)">
            <g id="Path_5726" transform="matrix(1,0,0,1,-1519.3,-905.126)">
                <path d="M1751.22,907.226C1751.09,906.411 1750.38,905.804 1749.56,905.804C1748.63,905.804 1747.88,906.563 1747.88,907.486C1747.88,907.573 1747.88,907.66 1747.89,907.746C1748.14,909.313 1748.44,914.221 1746.75,916.197C1746.4,916.614 1745.92,916.893 1745.38,916.982L1745.54,907.634C1745.54,907.614 1745.54,907.595 1745.54,907.575C1745.54,906.241 1744.44,905.143 1743.11,905.143C1741.77,905.143 1740.67,906.241 1740.67,907.575C1740.67,907.601 1740.67,907.628 1740.68,907.654L1741.12,925.395C1740.56,925.316 1740.05,925.033 1739.69,924.602C1738,922.627 1738.31,917.719 1738.55,916.151C1738.56,916.065 1738.57,915.978 1738.57,915.891C1738.57,914.968 1737.81,914.209 1736.88,914.209C1736.06,914.209 1735.35,914.816 1735.22,915.631C1735.1,916.403 1734.13,923.276 1737.13,926.786C1738.15,927.985 1739.63,928.71 1741.2,928.786L1741.39,936.508L1745.06,936.508L1745.33,920.375C1746.87,920.279 1748.31,919.56 1749.31,918.383C1752.31,914.872 1751.34,908 1751.22,907.226Z" style="fill:rgb(189,189,189);fill-rule:nonzero;"/>
            </g>
            <g id="Path_5727" transform="matrix(1,0,0,1,-1122.47,-946.864)">
                <path d="M1197.66,964C1197.58,963.48 1197.13,963.093 1196.6,963.093C1196.01,963.093 1195.53,963.577 1195.53,964.166C1195.53,964.221 1195.53,964.276 1195.54,964.331C1195.69,965.331 1195.89,968.459 1194.81,969.718C1194.59,969.983 1194.28,970.161 1193.94,970.218L1194.04,964.259C1194.04,963.411 1193.34,962.715 1192.49,962.715C1191.64,962.715 1190.94,963.415 1190.94,964.266C1190.94,964.268 1190.94,964.27 1190.94,964.272L1191.22,975.581C1190.87,975.531 1190.54,975.351 1190.31,975.076C1189.23,973.817 1189.43,970.688 1189.58,969.689C1189.59,969.634 1189.6,969.579 1189.6,969.524C1189.6,968.935 1189.11,968.451 1188.52,968.451C1188,968.451 1187.54,968.838 1187.46,969.358C1187.39,969.85 1186.76,974.232 1188.68,976.469C1189.33,977.233 1190.27,977.695 1191.27,977.743L1191.39,982.666L1193.73,982.666L1193.9,972.381C1194.89,972.32 1195.8,971.861 1196.44,971.111C1198.36,968.876 1197.74,964.5 1197.66,964Z" style="fill:rgb(189,189,189);fill-rule:nonzero;"/>
            </g>
            <g id="Path_5742" transform="matrix(1,0,0,1,0,21.303)">
                <path d="M153.326,0C238.006,0 310.28,42.856 310.28,42.856L0,42.856C0,42.856 68.646,0 153.326,0Z" style="fill:url(#_Linear1);fill-rule:nonzero;"/>
            </g>
        </g>
        <g id="wifi-svgrepo-com" transform="matrix(0.272308,0,0,0.272308,1107.07,557.564)">
            <g transform="matrix(1,0,0,1,-244.8,-244.8)">
                <g>
                    <g>
                        <path d="M179.6,235.6C145.9,245.9 114.1,264.1 87.4,290.7L134,337.3C147.9,323.4 164.1,312.5 181.6,304.8L179.6,235.6Z" style="fill-rule:nonzero;"/>
                        <path d="M175.8,109C111.3,122 49.9,153.4 0,203.3L46.6,249.9C84.1,212.4 129.7,188 177.8,176.2L175.8,109Z" style="fill-rule:nonzero;"/>
                        <path d="M313.8,109L311.8,176.3C359.9,188.1 405.5,212.5 443,250L489.6,203.4C439.8,153.4 378.3,122 313.8,109Z" style="fill-rule:nonzero;"/>
                        <path d="M307.9,304.8C325.4,312.5 341.6,323.4 355.6,337.4L402.2,290.8C375.6,264.2 343.7,245.9 310,235.6L307.9,304.8Z" style="fill-rule:nonzero;"/>
                    </g>
                    <circle cx="244.8" cy="403.2" r="40"/>
                    <path d="M260.6,330.4L228.9,330.4C220.6,330.4 213.8,323.8 213.6,315.5L206,62.2C205.7,53.6 212.7,46.4 221.3,46.4L268.3,46.4C276.9,46.4 283.9,53.5 283.6,62.2L275.9,315.5C275.7,323.8 268.9,330.4 260.6,330.4Z" style="fill-rule:nonzero;"/>
                </g>
            </g>
        </g>
    </g>
    <defs>
        <linearGradient id="_Linear1" x1="0" y1="0" x2="1" y2="0" gradientUnits="userSpaceOnUse" gradientTransform="matrix(2.4536e-15,40.0704,-40.0704,2.4536e-15,155.14,-9.72831)"><stop offset="0" style="stop-color:rgb(229,229,229);stop-opacity:1"/><stop offset="0.6" style="stop-color:rgb(238,238,239);stop-opacity:1"/><stop offset="1" style="stop-color:rgb(238,242,249);stop-opacity:1"/></linearGradient>
    </defs>
</svg>
