<?xml version="1.0" encoding="UTF-8" standalone="no"?>
<!DOCTYPE svg PUBLIC "-//W3C//DTD SVG 1.1//EN" "http://www.w3.org/Graphics/SVG/1.1/DTD/svg11.dtd">
<svg width="18px" height="18px" version="1.1" xmlns="http://www.w3.org/2000/svg" xmlns:xlink="http://www.w3.org/1999/xlink" xml:space="preserve" xmlns:serif="http://www.serif.com/" style="fill-rule:evenodd;clip-rule:evenodd;stroke-linejoin:round;stroke-miterlimit:1.41421;">
    <g id="noti_cart" transform="matrix(1,0,0,1,-23.206,-13.488)">
        <g id="Rectangle_2634" transform="matrix(1,0,0,1,23.206,13.487)">
            <rect x="0" y="0" width="18" height="18" style="fill:none;"/>
        </g>
        <g id="Icon_ionic-ios-cart" transform="matrix(1,0,0,1,23.708,16.756)">
            <g id="Path_5837" transform="matrix(1,0,0,1,-6.379,-15.955)">
                <path d="M11.372,29.03C11.372,29.524 10.966,29.93 10.472,29.93C9.978,29.93 9.572,29.524 9.572,29.03C9.572,28.536 9.978,28.13 10.472,28.13C10.966,28.13 11.372,28.536 11.372,29.03Z" style="fill:none;stroke:rgb(255,195,0);stroke-width:1px;"/>
            </g>
            <g id="Path_5838" transform="matrix(1,0,0,1,-14.116,-15.955)">
                <path d="M27.157,29.03C27.157,29.524 26.751,29.93 26.257,29.93C25.763,29.93 25.357,29.524 25.357,29.03C25.357,28.536 25.763,28.13 26.257,28.13C26.751,28.13 27.157,28.536 27.157,29.03Z" style="fill:none;stroke:rgb(255,195,0);stroke-width:1px;"/>
            </g>
            <g id="Path_5839" transform="matrix(1,0,0,1,-3.382,-4.477)">
                <path d="M18.507,6.948C18.482,6.863 18.406,6.803 18.318,6.796L6.467,5.659C6.355,5.648 6.254,5.585 6.194,5.489C6.071,5.249 5.922,5.024 5.75,4.817C5.47,4.478 4.942,4.488 3.974,4.481C3.953,4.478 3.931,4.477 3.91,4.477C3.626,4.477 3.39,4.706 3.381,4.99C3.385,5.272 3.618,5.502 3.9,5.502C3.917,5.502 3.933,5.502 3.95,5.5C4.267,5.492 4.584,5.515 4.896,5.569C5.067,5.619 5.205,5.898 5.256,6.14C5.254,6.143 5.254,6.148 5.256,6.151C5.263,6.194 5.329,6.52 5.329,6.523L6.783,14.166C6.847,14.633 7.029,15.077 7.31,15.455C7.591,15.833 8.039,16.051 8.51,16.041L17.119,16.041C17.393,16.046 17.626,15.831 17.643,15.557C17.643,15.548 17.644,15.539 17.644,15.53C17.644,15.256 17.418,15.03 17.144,15.03C17.14,15.03 17.137,15.03 17.134,15.03L8.505,15.03C8.396,15.036 8.288,15.001 8.205,14.93C7.968,14.671 7.821,14.341 7.787,13.991L7.629,13.133C7.628,13.123 7.634,13.113 7.644,13.111L17.744,11.411C17.839,11.396 17.912,11.319 17.922,11.223L18.504,7.04C18.512,7.01 18.513,6.978 18.507,6.948Z" style="fill:none;stroke:rgb(255,195,0);stroke-width:1px;"/>
            </g>
        </g>
    </g>
</svg>
