<?xml version="1.0" encoding="UTF-8" standalone="no"?>
<!DOCTYPE svg PUBLIC "-//W3C//DTD SVG 1.1//EN" "http://www.w3.org/Graphics/SVG/1.1/DTD/svg11.dtd">
<svg width="164px" height="175px" version="1.1" xmlns="http://www.w3.org/2000/svg" xmlns:xlink="http://www.w3.org/1999/xlink" xml:space="preserve" xmlns:serif="http://www.serif.com/" style="fill-rule:evenodd;clip-rule:evenodd;stroke-linejoin:round;stroke-miterlimit:1.41421;">
    <g id="orderplaced" transform="matrix(1,0,0,1,-444.54,-1240.31)">
        <g id="Rectangle_2641" transform="matrix(1,0,0,1,460,1265)">
            <rect x="0" y="0" width="133" height="133" style="fill:none;"/>
        </g>
        <g id="Group_5122" transform="matrix(1,0,0,1,469.519,1267.31)">
            <g id="Path_5878-2" transform="matrix(1,0,0,1,-29.37,-176.09)">
                <path d="M142.577,253.866L133.6,236.243C133.173,235.405 132.309,234.875 131.368,234.875L40.849,234.875C39.908,234.875 39.043,235.405 38.616,236.244L29.643,253.868C29.464,254.22 29.37,254.61 29.37,255.005C29.37,256.379 30.501,257.51 31.875,257.51L35,257.51L35,301.728C35,303.102 36.131,304.233 37.505,304.233L134.705,304.233C136.079,304.233 137.21,303.102 137.21,301.728L137.21,257.508L140.345,257.508C141.719,257.508 142.85,256.377 142.85,255.003C142.85,254.608 142.756,254.218 142.577,253.866ZM129.836,239.884L136.258,252.498L96.619,252.498L90.2,239.884L129.836,239.884ZM42.385,239.884L82.024,239.884L75.6,252.5L35.963,252.5L42.385,239.884ZM132.2,299.221L88.616,299.221L88.616,285.337C88.616,283.963 87.485,282.832 86.111,282.832C84.737,282.832 83.606,283.963 83.606,285.337L83.606,299.221L40.014,299.221L40.014,257.508L77.138,257.508C78.079,257.508 78.944,256.978 79.371,256.139L83.606,247.82L83.606,262.842C83.606,264.216 84.737,265.347 86.111,265.347C87.485,265.347 88.616,264.216 88.616,262.842L88.616,247.821L92.851,256.14C93.278,256.978 94.142,257.508 95.083,257.508L132.2,257.508L132.2,299.221Z" style="fill:rgb(255,195,0);fill-rule:nonzero;stroke:rgb(255,195,0);stroke-width:1px;"/>
            </g>
            <g id="Path_5879-2" transform="matrix(1,0,0,1,-84.87,-327.57)">
                <path d="M120.187,436.98L105.923,436.98C104.549,436.98 103.418,438.111 103.418,439.485C103.418,440.859 104.549,441.99 105.923,441.99L120.187,441.99C121.561,441.99 122.692,440.859 122.692,439.485C122.692,438.111 121.561,436.98 120.187,436.98Z" style="fill:rgb(255,195,0);fill-rule:nonzero;stroke:rgb(255,195,0);stroke-width:1px;"/>
            </g>
            <g id="Path_5880-2" transform="matrix(1,0,0,1,-122.2,-0.2)">
                <path d="M178.939,51.62C193.042,51.618 204.645,40.013 204.645,25.91C204.645,11.806 193.039,0.2 178.935,0.2C164.831,0.2 153.225,11.806 153.225,25.91C153.225,25.913 153.225,25.917 153.225,25.92C153.253,40.013 164.846,51.599 178.939,51.62ZM178.939,5.16C178.947,5.16 178.956,5.16 178.964,5.16C190.333,5.16 199.689,14.516 199.689,25.885C199.689,37.254 190.333,46.61 178.964,46.61C167.595,46.61 158.239,37.254 158.239,25.885C158.239,25.882 158.239,25.88 158.239,25.877C158.243,14.52 167.582,5.174 178.939,5.16Z" style="fill:rgb(255,195,0);fill-rule:nonzero;stroke:rgb(255,195,0);stroke-width:1px;"/>
            </g>
            <g id="Path_5881-2" transform="matrix(1,0,0,1,-162.88,-47.11)">
                <path d="M208.39,76.544L215.058,82.196C215.51,82.58 216.085,82.791 216.678,82.79C216.749,82.79 216.821,82.787 216.892,82.781C217.557,82.724 218.172,82.404 218.599,81.892L231.147,66.892C231.523,66.442 231.729,65.873 231.729,65.286C231.729,63.911 230.598,62.78 229.224,62.78C228.481,62.78 227.776,63.11 227.3,63.68L216.37,76.743L211.626,72.721C211.174,72.337 210.599,72.127 210.006,72.127C208.632,72.127 207.501,73.258 207.501,74.632C207.501,75.368 207.825,76.067 208.386,76.543L208.39,76.544Z" style="fill:rgb(255,195,0);fill-rule:nonzero;stroke:rgb(255,195,0);stroke-width:1px;"/>
            </g>
            <g id="Path_5882-2" transform="matrix(1,0,0,1,-44.4,-69.54)">
                <path d="M51.925,97.73L62.763,97.73C64.137,97.73 65.268,96.599 65.268,95.225C65.268,93.851 64.137,92.72 62.763,92.72L51.925,92.72C50.551,92.72 49.42,93.851 49.42,95.225C49.42,96.599 50.551,97.73 51.925,97.73Z" style="fill:rgb(255,195,0);fill-rule:nonzero;stroke:rgb(255,195,0);stroke-width:1px;"/>
            </g>
            <g id="Path_5883-2" transform="matrix(1,0,0,1,-44.4,-18.26)">
                <path d="M50.755,29.011L61.593,34.727C61.974,34.947 62.406,35.063 62.845,35.063C64.22,35.063 65.35,33.932 65.35,32.558C65.35,31.596 64.797,30.717 63.931,30.3L53.092,24.58C52.724,24.379 52.312,24.274 51.893,24.274C50.519,24.274 49.388,25.405 49.388,26.779C49.388,27.72 49.917,28.584 50.755,29.011Z" style="fill:rgb(255,195,0);fill-rule:nonzero;stroke:rgb(255,195,0);stroke-width:1px;"/>
            </g>
            <g id="Path_5884-2" transform="matrix(1,0,0,1,-44.4,-103.74)">
                <path d="M49.707,147.734C50.138,148.556 50.993,149.074 51.921,149.074C52.329,149.074 52.731,148.974 53.091,148.783L63.929,143.074C64.772,142.649 65.306,141.781 65.306,140.837C65.306,139.462 64.175,138.331 62.8,138.331C62.378,138.331 61.964,138.437 61.594,138.64L50.756,144.35C49.934,144.783 49.418,145.638 49.418,146.566C49.418,146.973 49.517,147.374 49.707,147.734Z" style="fill:rgb(255,195,0);fill-rule:nonzero;stroke:rgb(255,195,0);stroke-width:1px;"/>
            </g>
            <g id="Path_5885-2" transform="matrix(1,0,0,1,-306.43,-69.54)">
                <path d="M401.536,97.73L412.375,97.73C413.749,97.73 414.88,96.599 414.88,95.225C414.88,93.851 413.749,92.72 412.375,92.72L401.536,92.72C400.162,92.72 399.031,93.851 399.031,95.225C399.031,96.599 400.162,97.73 401.536,97.73Z" style="fill:rgb(255,195,0);fill-rule:nonzero;stroke:rgb(255,195,0);stroke-width:1px;"/>
            </g>
            <g id="Path_5886-2" transform="matrix(1,0,0,1,-306.43,-18.26)">
                <path d="M401.535,35.017C401.941,35.017 402.342,34.917 402.701,34.727L413.54,29.011C414.36,28.578 414.875,27.723 414.875,26.795C414.875,25.421 413.744,24.29 412.37,24.29C411.962,24.29 411.561,24.39 411.2,24.58L400.364,30.3C399.543,30.733 399.027,31.588 399.027,32.516C399.027,33.89 400.158,35.021 401.532,35.021C401.533,35.021 401.534,35.021 401.535,35.021L401.535,35.017Z" style="fill:rgb(255,195,0);fill-rule:nonzero;stroke:rgb(255,195,0);stroke-width:1px;"/>
            </g>
            <g id="Path_5887-2" transform="matrix(1,0,0,1,-306.43,-103.74)">
                <path d="M400.365,143.069L411.203,148.778C411.553,148.955 411.94,149.047 412.332,149.047C413.707,149.047 414.838,147.915 414.838,146.541C414.838,145.627 414.339,144.784 413.538,144.344L402.7,138.635C402.35,138.458 401.963,138.366 401.571,138.366C400.196,138.366 399.065,139.498 399.065,140.872C399.065,141.786 399.564,142.629 400.365,143.069Z" style="fill:rgb(255,195,0);fill-rule:nonzero;stroke:rgb(255,195,0);stroke-width:1px;"/>
            </g>
            <g id="Path_5888-2" transform="matrix(1,0,0,1,-191.64,-285.93)">
                <path d="M248.378,381.423C247.004,381.423 245.873,382.554 245.873,383.928L245.873,383.942C245.881,385.311 247.009,386.433 248.378,386.433C249.752,386.433 250.883,385.302 250.883,383.928C250.883,382.554 249.752,381.423 248.378,381.423Z" style="fill:rgb(255,195,0);fill-rule:nonzero;stroke:rgb(255,195,0);stroke-width:1px;"/>
            </g>
        </g>
    </g>
</svg>
