<?xml version="1.0" encoding="UTF-8" standalone="no"?>
<!DOCTYPE svg PUBLIC "-//W3C//DTD SVG 1.1//EN" "http://www.w3.org/Graphics/SVG/1.1/DTD/svg11.dtd">
<svg width="15px" height="20px" version="1.1" xmlns="http://www.w3.org/2000/svg" xmlns:xlink="http://www.w3.org/1999/xlink" xml:space="preserve" xmlns:serif="http://www.serif.com/" style="fill-rule:evenodd;clip-rule:evenodd;stroke-linejoin:round;stroke-miterlimit:1.41421;">
    <path d="M3.133,1.88C3.958,2.125 4.329,1.672 4.692,1.001C5.416,-0.358 5.353,-0.141 6.413,0.521C7.093,0.947 7.6,0.92 8.261,0.503C9.439,-0.24 9.349,-0.141 9.92,0.956C10.291,1.681 10.726,1.943 11.551,1.907C12.883,1.844 12.783,1.726 12.729,3.058C12.692,3.901 12.973,4.354 13.716,4.734C14.93,5.359 14.803,5.323 14.151,6.32C13.662,7.063 13.698,7.625 14.178,8.331C14.812,9.265 14.794,9.364 13.798,9.835C12.973,10.225 12.683,10.732 12.719,11.638C12.765,12.88 12.837,12.825 11.578,12.762C10.762,12.717 10.282,12.943 9.892,13.713C9.331,14.828 9.367,14.864 8.271,14.139C7.591,13.695 7.084,13.668 6.395,14.121C5.262,14.864 5.326,14.828 4.719,13.659C4.356,12.961 3.921,12.726 3.151,12.762C1.783,12.825 1.883,12.907 1.928,11.593C1.964,10.741 1.683,10.27 0.913,9.89C-0.147,9.373 -0.165,9.274 0.487,8.295C0.958,7.588 0.949,7.054 0.487,6.329C-0.165,5.323 -0.292,5.377 0.922,4.752C1.683,4.363 1.973,3.891 1.928,3.031C1.856,1.771 1.783,1.889 3.042,1.889C3.079,1.88 3.106,1.88 3.133,1.88ZM13.616,5.64C13.2,5.386 12.81,5.133 12.402,4.915C12.067,4.734 11.931,4.489 11.949,4.118C11.967,3.656 11.958,3.194 11.958,2.705C11.433,2.705 10.98,2.695 10.527,2.705C10.155,2.714 9.901,2.569 9.729,2.233C9.512,1.826 9.258,1.436 9.004,1.028C8.533,1.291 8.107,1.518 7.691,1.753C7.41,1.916 7.165,1.916 6.893,1.735C6.504,1.49 6.096,1.273 5.652,1.019C5.389,1.454 5.136,1.844 4.918,2.251C4.746,2.569 4.501,2.705 4.148,2.695C3.686,2.686 3.224,2.695 2.698,2.695C2.698,3.248 2.734,3.756 2.68,4.245C2.653,4.462 2.499,4.716 2.318,4.852C1.919,5.142 1.475,5.368 1.031,5.64C1.285,6.093 1.502,6.519 1.756,6.927C1.928,7.208 1.919,7.452 1.756,7.724C1.511,8.132 1.285,8.558 1.04,9.002C1.484,9.265 1.874,9.527 2.281,9.745C2.58,9.908 2.716,10.107 2.698,10.461C2.671,10.932 2.689,11.412 2.689,11.947C3.206,11.947 3.631,11.983 4.048,11.938C4.51,11.892 4.773,12.092 4.972,12.481C5.163,12.853 5.398,13.206 5.643,13.605C6.087,13.36 6.513,13.134 6.92,12.898C7.192,12.735 7.446,12.717 7.718,12.889C8.126,13.134 8.551,13.36 9.004,13.614C9.249,13.197 9.503,12.807 9.72,12.4C9.892,12.073 10.128,11.919 10.518,11.947C10.98,11.974 11.442,11.956 11.949,11.956C11.949,11.403 11.967,10.941 11.94,10.479C11.922,10.143 12.049,9.944 12.321,9.781C12.738,9.545 13.145,9.283 13.598,9.011C13.363,8.585 13.154,8.168 12.91,7.769C12.729,7.47 12.719,7.199 12.91,6.891C13.154,6.483 13.372,6.075 13.616,5.64Z" style="fill:rgb(255,195,0);fill-rule:nonzero;"/>
    <path d="M10.128,18.715C10.5,18.28 10.789,17.89 11.134,17.564C11.297,17.41 11.578,17.301 11.795,17.32C12.266,17.347 12.738,17.474 13.29,17.564C13.236,17.365 13.2,17.211 13.145,17.066C12.792,16.06 12.429,15.054 12.067,14.049C11.967,13.768 11.877,13.46 12.266,13.342C12.611,13.242 12.728,13.514 12.828,13.786C13.308,15.145 13.807,16.504 14.278,17.872C14.459,18.398 14.296,18.579 13.734,18.498C13.182,18.416 12.629,18.334 12.094,18.198C11.804,18.126 11.641,18.226 11.478,18.425C11.125,18.86 10.771,19.286 10.4,19.712C10.019,20.147 9.729,20.092 9.53,19.53C9.068,18.262 8.615,16.984 8.153,15.707C8.062,15.444 7.944,15.163 8.316,15.027C8.678,14.9 8.796,15.181 8.896,15.444C9.303,16.504 9.702,17.573 10.128,18.715Z" style="fill:rgb(255,195,0);fill-rule:nonzero;"/>
    <path d="M1.393,17.564C1.919,17.465 2.345,17.392 2.771,17.302C3.133,17.229 3.405,17.302 3.632,17.619C3.903,17.981 4.211,18.316 4.547,18.715C4.8,18.027 5.036,17.401 5.271,16.776C5.453,16.287 5.643,15.789 5.833,15.299C5.924,15.055 6.087,14.919 6.359,15.027C6.622,15.127 6.658,15.317 6.567,15.571C6.078,16.912 5.607,18.262 5.108,19.603C4.936,20.056 4.655,20.11 4.329,19.757C3.921,19.313 3.559,18.824 3.142,18.389C3.024,18.271 2.789,18.19 2.617,18.208C2.037,18.28 1.457,18.407 0.877,18.498C0.406,18.57 0.216,18.353 0.379,17.9C0.868,16.522 1.366,15.154 1.865,13.777C1.883,13.732 1.91,13.695 1.919,13.659C2.019,13.406 2.2,13.206 2.463,13.369C2.59,13.451 2.689,13.768 2.644,13.922C2.354,14.837 2.019,15.743 1.702,16.649C1.602,16.93 1.511,17.211 1.393,17.564Z" style="fill:rgb(255,195,0);fill-rule:nonzero;"/>
    <path d="M7.319,3.049C9.702,3.049 11.614,4.997 11.614,7.416C11.614,9.627 9.602,11.602 7.346,11.602C4.981,11.602 3.015,9.636 3.033,7.289C3.051,4.97 4.99,3.049 7.319,3.049ZM7.328,10.769C9.322,10.751 10.817,9.246 10.789,7.298C10.762,5.242 9.285,3.837 7.165,3.864C5.362,3.882 3.867,5.423 3.858,7.262C3.858,9.283 5.353,10.787 7.328,10.769Z" style="fill:rgb(255,195,0);fill-rule:nonzero;"/>
</svg>
