<?xml version="1.0" encoding="UTF-8" standalone="no"?>
<!DOCTYPE svg PUBLIC "-//W3C//DTD SVG 1.1//EN" "http://www.w3.org/Graphics/SVG/1.1/DTD/svg11.dtd">
<svg width="22px" height="22px" version="1.1" xmlns="http://www.w3.org/2000/svg" xmlns:xlink="http://www.w3.org/1999/xlink" xml:space="preserve" xmlns:serif="http://www.serif.com/" style="fill-rule:evenodd;clip-rule:evenodd;stroke-linejoin:round;stroke-miterlimit:1.41421;">
    <g id="pro_rateus" transform="matrix(1,0,0,1,-0.34,-0.031)">
        <g id="Rectangle_2666" transform="matrix(1,0,0,1,0.34,0.03)">
            <path d="M22,3C22,1.344 20.656,0 19,0L3,0C1.344,0 0,1.344 0,3L0,19C0,20.656 1.344,22 3,22L19,22C20.656,22 22,20.656 22,19L22,3Z" style="fill:rgb(236,240,248);"/>
        </g>
        <g id="rating" transform="matrix(1,0,0,1,3.193,2.3)">
            <path d="M2.662,10.462C2.954,10.658 3.356,10.579 3.552,10.287C4.588,8.741 6.331,7.812 8.191,7.812C10.047,7.812 11.786,8.737 12.823,10.276C12.943,10.449 13.14,10.552 13.35,10.552C13.703,10.552 13.992,10.262 13.992,9.91C13.992,9.785 13.956,9.663 13.888,9.559C13.072,8.344 11.888,7.423 10.511,6.929C11.356,6.24 11.848,5.206 11.848,4.116C11.848,2.126 10.21,0.488 8.22,0.488C6.229,0.488 4.592,2.126 4.592,4.116C4.592,5.199 5.076,6.226 5.911,6.915C4.512,7.406 3.309,8.338 2.485,9.571C2.414,9.677 2.377,9.801 2.377,9.928C2.377,10.142 2.484,10.343 2.662,10.462ZM8.22,1.774C9.506,1.774 10.564,2.832 10.564,4.118C10.564,5.404 9.506,6.462 8.22,6.462C6.934,6.462 5.876,5.404 5.876,4.118C5.876,2.832 6.934,1.774 8.22,1.774ZM10.78,11.858L9.823,12.549C9.681,12.651 9.621,12.834 9.676,13L10.061,14.117C10.076,14.164 10.083,14.213 10.081,14.262C10.061,14.478 9.877,14.646 9.66,14.646C9.572,14.646 9.487,14.619 9.415,14.568L8.458,13.877C8.316,13.774 8.122,13.774 7.98,13.877L7.023,14.568C6.951,14.619 6.866,14.646 6.778,14.646C6.561,14.646 6.377,14.478 6.357,14.262C6.355,14.213 6.362,14.164 6.378,14.117L6.765,13C6.82,12.834 6.759,12.65 6.617,12.549L5.66,11.859C5.554,11.777 5.492,11.65 5.492,11.516C5.492,11.288 5.672,11.097 5.899,11.084L7.082,11.084C7.248,11.103 7.407,11.007 7.468,10.851L7.834,9.726C7.889,9.56 8.045,9.447 8.221,9.447C8.396,9.447 8.552,9.56 8.607,9.726L8.973,10.851C9.034,11.007 9.193,11.103 9.359,11.084L10.542,11.084C10.769,11.099 10.947,11.289 10.947,11.516C10.947,11.65 10.885,11.776 10.78,11.858ZM16.27,14.105L15.313,14.795C15.171,14.896 15.11,15.08 15.165,15.246L15.551,16.364C15.566,16.411 15.573,16.46 15.571,16.509C15.551,16.725 15.367,16.893 15.15,16.893C15.062,16.893 14.977,16.866 14.905,16.815L13.948,16.124C13.806,16.021 13.612,16.021 13.47,16.124L12.513,16.815C12.441,16.866 12.356,16.893 12.268,16.893C12.051,16.893 11.867,16.725 11.847,16.509C11.845,16.46 11.852,16.411 11.868,16.364L12.253,15.247C12.308,15.081 12.247,14.897 12.105,14.796L11.148,14.106C11.042,14.024 10.98,13.897 10.98,13.763C10.98,13.535 11.16,13.344 11.387,13.331L12.569,13.331C12.735,13.35 12.894,13.254 12.955,13.098L13.32,11.973C13.375,11.807 13.531,11.694 13.706,11.694C13.882,11.694 14.038,11.807 14.093,11.973L14.459,13.098C14.52,13.254 14.679,13.35 14.845,13.331L16.028,13.331C16.255,13.344 16.435,13.535 16.435,13.763C16.435,13.897 16.373,14.024 16.267,14.106L16.27,14.105ZM5.29,14.105L4.333,14.795C4.191,14.896 4.13,15.08 4.185,15.246L4.57,16.363C4.585,16.41 4.592,16.459 4.59,16.508C4.57,16.724 4.386,16.892 4.169,16.892C4.081,16.892 3.996,16.865 3.924,16.814L2.967,16.123C2.825,16.02 2.631,16.02 2.489,16.123L1.532,16.814C1.46,16.865 1.375,16.892 1.287,16.892C1.07,16.892 0.886,16.724 0.866,16.508C0.864,16.459 0.871,16.41 0.887,16.363L1.272,15.246C1.327,15.08 1.266,14.896 1.124,14.795L0.167,14.104C0.061,14.022 -0.001,13.895 -0.001,13.761C-0.001,13.533 0.179,13.342 0.406,13.329L1.591,13.329C1.757,13.348 1.916,13.252 1.977,13.096L2.343,11.971C2.398,11.805 2.554,11.692 2.729,11.692C2.905,11.692 3.061,11.805 3.116,11.971L3.482,13.1C3.543,13.256 3.702,13.352 3.868,13.333L5.052,13.333C5.279,13.346 5.459,13.537 5.459,13.765C5.459,13.899 5.397,14.026 5.291,14.108L5.29,14.105Z" style="fill:rgb(255,195,0);fill-rule:nonzero;"/>
        </g>
    </g>
</svg>
