<?xml version="1.0" encoding="UTF-8" standalone="no"?>
<!DOCTYPE svg PUBLIC "-//W3C//DTD SVG 1.1//EN" "http://www.w3.org/Graphics/SVG/1.1/DTD/svg11.dtd">
<svg width="22px" height="22px" version="1.1" xmlns="http://www.w3.org/2000/svg" xmlns:xlink="http://www.w3.org/1999/xlink" xml:space="preserve" xmlns:serif="http://www.serif.com/" style="fill-rule:evenodd;clip-rule:evenodd;stroke-linejoin:round;stroke-miterlimit:1.41421;">
    <g id="pro_theme" transform="matrix(1,0,0,1,0.188,-0.031)">
        <g id="Rectangle_2666" transform="matrix(1,0,0,1,-0.188,0.03)">
            <path d="M22,3C22,1.344 20.656,0 19,0L3,0C1.344,0 0,1.344 0,3L0,19C0,20.656 1.344,22 3,22L19,22C20.656,22 22,20.656 22,19L22,3Z" style="fill:rgb(236,240,248);"/>
        </g>
        <g id="theme" transform="matrix(1,0,0,1,3.022,3.272)">
            <g id="Path_6324" transform="matrix(1,0,0,1,-234.673,-176.503)">
                <path d="M242,182.455L242,185.187C242,185.437 242.205,185.642 242.455,185.642L247.92,185.642C247.92,185.642 247.921,185.642 247.921,185.642C248.171,185.642 248.376,185.437 248.376,185.187C248.376,185.187 248.376,185.187 248.376,185.187L248.376,182.455C248.376,182.455 248.376,182.455 248.376,182.455C248.376,182.205 248.171,182 247.921,182C247.921,182 247.92,182 247.92,182L242.455,182C242.205,182 242,182.205 242,182.455Z" style="fill:rgb(255,195,0);fill-rule:nonzero;"/>
            </g>
            <g id="Path_6325" transform="matrix(1,0,0,1,-292.846,-409.249)">
                <path d="M304.277,422L302.455,422C302.205,422 302,422.205 302,422.455L302,424.276C302,424.526 302.205,424.731 302.455,424.731L304.277,424.731C304.527,424.731 304.732,424.526 304.732,424.276L304.732,422.455C304.732,422.205 304.527,422 304.277,422Z" style="fill:rgb(255,195,0);fill-rule:nonzero;"/>
            </g>
            <g id="Path_6326" transform="matrix(1,0,0,1,-240.159,0)">
                <path d="M249.489,0.455C249.489,0.455 249.489,0.455 249.489,0.455C249.489,0.205 249.284,0 249.034,0C249.034,0 249.033,0 249.033,0L247.667,0L247.667,1.821L249.489,1.821L249.489,0.455Z" style="fill:rgb(255,195,0);fill-rule:nonzero;"/>
            </g>
            <path id="Path_6327" d="M6.609,0L0.455,0C0.205,0 0,0.205 0,0.455L0,1.821L6.609,1.821L6.609,0Z" style="fill:rgb(255,195,0);fill-rule:nonzero;"/>
            <g id="Path_6328" transform="matrix(1,0,0,1,0,-87.29)">
                <path d="M9.34,97.8L9.34,97.345L7.8,97.345C7.051,97.344 6.435,96.728 6.434,95.979L6.434,93.248C6.435,92.499 7.051,91.883 7.8,91.882L9.34,91.882L9.34,90L0,90L0,97.8C0,98.05 0.205,98.255 0.455,98.255L8.885,98.255C9.135,98.255 9.34,98.05 9.34,97.8ZM4.613,96.4L1.822,96.4C1.572,96.4 1.366,96.194 1.366,95.944C1.366,95.695 1.572,95.489 1.822,95.489C1.822,95.489 4.613,95.489 4.613,95.489C4.863,95.489 5.069,95.695 5.069,95.944C5.069,96.194 4.863,96.4 4.613,96.4C4.613,96.4 4.613,96.4 4.613,96.4ZM4.613,94.579L1.822,94.579C1.572,94.579 1.366,94.373 1.366,94.123C1.366,93.874 1.572,93.668 1.822,93.668C1.822,93.668 4.613,93.668 4.613,93.668C4.863,93.668 5.069,93.874 5.069,94.123C5.069,94.373 4.863,94.579 4.613,94.579C4.613,94.579 4.613,94.579 4.613,94.579ZM4.613,92.758L1.822,92.758C1.572,92.758 1.366,92.552 1.366,92.303C1.366,92.053 1.572,91.847 1.822,91.847C1.822,91.847 4.613,91.847 4.613,91.847C4.863,91.847 5.069,92.053 5.069,92.303C5.069,92.552 4.863,92.758 4.613,92.758C4.613,92.758 4.613,92.758 4.613,92.758Z" style="fill:rgb(255,195,0);fill-rule:nonzero;"/>
            </g>
            <g id="Path_6329" transform="matrix(1,0,0,1,-321.941,-222.65)">
                <path d="M336.554,229.58L336.554,232.234C336.553,232.483 336.348,232.688 336.099,232.689L333.367,232.689C332.618,232.69 332.001,233.306 332,234.055L332,234.509L332.911,234.509L332.911,234.054C332.912,233.805 333.117,233.6 333.366,233.599L336.1,233.599C336.849,233.598 337.465,232.982 337.466,232.233L337.466,230.867C337.465,230.29 337.098,229.772 336.554,229.58Z" style="fill:rgb(255,195,0);fill-rule:nonzero;"/>
            </g>
        </g>
    </g>
</svg>
