<?xml version="1.0" encoding="UTF-8" standalone="no"?>
<!DOCTYPE svg PUBLIC "-//W3C//DTD SVG 1.1//EN" "http://www.w3.org/Graphics/SVG/1.1/DTD/svg11.dtd">
<svg width="22px" height="22px" version="1.1" xmlns="http://www.w3.org/2000/svg" xmlns:xlink="http://www.w3.org/1999/xlink" xml:space="preserve" xmlns:serif="http://www.serif.com/" style="fill-rule:evenodd;clip-rule:evenodd;stroke-linejoin:round;stroke-miterlimit:1.41421;">
    <g id="pro_pass" transform="matrix(1,0,0,1,-0.122,-0.031)">
        <g id="Rectangle_2666" transform="matrix(1,0,0,1,0.122,0.03)">
            <path d="M22,3C22,1.344 20.656,0 19,0L3,0C1.344,0 0,1.344 0,3L0,19C0,20.656 1.344,22 3,22L19,22C20.656,22 22,20.656 22,19L22,3Z" style="fill:rgb(236,240,248);"/>
        </g>
        <g id="Group_5431" transform="matrix(1,0,0,1,4.659,2.936)">
            <g id="Path_6311" transform="matrix(1,0,0,1,-11.071,-339.269)">
                <path d="M13.808,351.691C13.742,351.579 13.596,351.54 13.483,351.605L12.883,351.95L12.883,351.262C12.883,351.133 12.776,351.026 12.647,351.026C12.518,351.026 12.411,351.133 12.411,351.262L12.411,351.95L11.811,351.605C11.772,351.58 11.727,351.567 11.682,351.567C11.551,351.567 11.444,351.674 11.444,351.805C11.444,351.893 11.493,351.975 11.572,352.016L12.172,352.365L11.572,352.714C11.493,352.755 11.444,352.837 11.444,352.925C11.444,353.056 11.551,353.163 11.682,353.163C11.727,353.163 11.772,353.15 11.811,353.125L12.411,352.78L12.411,353.468C12.411,353.597 12.518,353.704 12.647,353.704C12.776,353.704 12.883,353.597 12.883,353.468C12.883,353.468 12.883,352.78 12.883,352.78L13.483,353.125C13.522,353.15 13.567,353.163 13.612,353.163C13.743,353.163 13.85,353.056 13.85,352.925C13.85,352.837 13.801,352.755 13.722,352.714L13.122,352.365L13.722,352.016C13.795,351.974 13.84,351.895 13.84,351.811C13.84,351.769 13.829,351.727 13.808,351.691Z" style="fill:rgb(255,195,0);fill-rule:nonzero;"/>
            </g>
            <g id="Path_6312" transform="matrix(1,0,0,1,-138.078,-339.128)">
                <path d="M143,352.895C143.066,353.007 143.212,353.046 143.325,352.981L143.925,352.636L143.925,353.324C143.925,353.453 144.032,353.56 144.161,353.56C144.29,353.56 144.397,353.453 144.397,353.324L144.397,352.636L144.997,352.981C145.036,353.006 145.081,353.019 145.126,353.019C145.257,353.019 145.364,352.912 145.364,352.781C145.364,352.693 145.315,352.611 145.236,352.57L144.636,352.221L145.236,351.872C145.315,351.831 145.364,351.749 145.364,351.661C145.364,351.53 145.257,351.423 145.126,351.423C145.081,351.423 145.036,351.436 144.997,351.461L144.397,351.806L144.397,351.118C144.397,350.989 144.29,350.882 144.161,350.882C144.032,350.882 143.925,350.989 143.925,351.118C143.925,351.118 143.925,351.806 143.925,351.806L143.325,351.464C143.288,351.442 143.245,351.43 143.202,351.43C143.071,351.43 142.964,351.537 142.964,351.668C142.964,351.753 143.01,351.833 143.085,351.875L143.685,352.224L143.085,352.569C142.973,352.635 142.934,352.782 143,352.895Z" style="fill:rgb(255,195,0);fill-rule:nonzero;"/>
            </g>
            <g id="Path_6313" transform="matrix(1,0,0,1,-127.002,-441.428)">
                <path d="M131.5,456.987L131.5,457.404C131.5,457.503 131.582,457.585 131.681,457.585L134.481,457.585C134.58,457.585 134.662,457.503 134.662,457.404L134.662,456.987C134.662,456.888 134.58,456.806 134.481,456.806L131.681,456.806C131.582,456.806 131.5,456.888 131.5,456.987Z" style="fill:rgb(255,195,0);fill-rule:nonzero;"/>
            </g>
            <g id="Path_6314" transform="matrix(1,0,0,1,-134.717,-7.2)">
                <path d="M143.733,11.095L143.713,11.095L143.713,10.165C143.72,8.546 142.394,7.208 140.775,7.2C139.21,7.231 137.938,8.524 137.932,10.089L137.932,10.178C137.933,10.311 138.042,10.42 138.175,10.421L138.953,10.421C139.086,10.42 139.195,10.311 139.196,10.178L139.196,10.151C139.183,9.282 139.852,8.541 140.718,8.465C140.752,8.463 140.787,8.462 140.821,8.462C141.713,8.462 142.447,9.194 142.449,10.086L142.449,11.092L140.049,11.092L137.836,11.092C137.427,11.103 137.096,11.442 137.094,11.851L137.094,16.059C137.095,16.477 137.439,16.821 137.857,16.822L143.727,16.822C144.145,16.821 144.489,16.477 144.49,16.059L144.49,11.859C144.49,11.857 144.49,11.856 144.49,11.854C144.49,11.438 144.148,11.096 143.732,11.096C143.731,11.096 143.731,11.096 143.73,11.096L143.733,11.095ZM141.25,14.15C141.198,14.183 141.169,14.243 141.175,14.304C141.175,14.612 141.175,14.92 141.175,15.231C141.184,15.36 141.116,15.483 141.001,15.542C140.947,15.572 140.886,15.588 140.824,15.588C140.627,15.588 140.464,15.428 140.461,15.231L140.461,14.3C140.466,14.242 140.44,14.186 140.393,14.153C140.116,13.959 140.017,13.591 140.16,13.284C140.276,13.026 140.533,12.859 140.816,12.859C141.207,12.859 141.53,13.178 141.535,13.569C141.55,13.798 141.442,14.018 141.253,14.148L141.25,14.15Z" style="fill:rgb(255,195,0);fill-rule:nonzero;"/>
            </g>
            <g id="Path_6315" transform="matrix(1,0,0,1,-253.907,-441.428)">
                <path d="M262.9,456.987L262.9,457.404C262.9,457.503 262.982,457.585 263.081,457.585L265.881,457.585C265.98,457.585 266.062,457.503 266.062,457.404L266.062,456.987C266.062,456.888 265.98,456.806 265.881,456.806L263.081,456.806C262.982,456.806 262.9,456.888 262.9,456.987Z" style="fill:rgb(255,195,0);fill-rule:nonzero;"/>
            </g>
            <g id="Path_6316" transform="matrix(1,0,0,1,-264.983,-339.129)">
                <path d="M274.4,352.9C274.466,353.012 274.612,353.051 274.725,352.986L275.325,352.641L275.325,353.329C275.325,353.458 275.432,353.565 275.561,353.565C275.69,353.565 275.797,353.458 275.797,353.329L275.797,352.641L276.397,352.986C276.436,353.011 276.481,353.024 276.526,353.024C276.657,353.024 276.764,352.917 276.764,352.786C276.764,352.698 276.715,352.616 276.636,352.575L276.036,352.226L276.636,351.877C276.711,351.835 276.757,351.755 276.757,351.67C276.757,351.539 276.65,351.432 276.519,351.432C276.476,351.432 276.433,351.444 276.396,351.466L275.796,351.812L275.796,351.124C275.796,350.995 275.689,350.888 275.56,350.888C275.431,350.888 275.324,350.995 275.324,351.124C275.324,351.124 275.324,351.812 275.324,351.812L274.724,351.467C274.685,351.442 274.64,351.429 274.595,351.429C274.464,351.429 274.357,351.536 274.357,351.667C274.357,351.755 274.406,351.837 274.485,351.878L275.085,352.227L274.485,352.576C274.373,352.642 274.334,352.788 274.399,352.901L274.4,352.9Z" style="fill:rgb(255,195,0);fill-rule:nonzero;"/>
            </g>
            <g id="Path_6318" transform="matrix(1,0,0,1,0,-441.428)">
                <path d="M0.181,457.585L2.981,457.585C3.08,457.585 3.162,457.503 3.162,457.404L3.162,456.987C3.162,456.888 3.08,456.806 2.981,456.806L0.181,456.806C0.082,456.806 0,456.888 0,456.987L0,457.404C0,457.503 0.082,457.585 0.181,457.585Z" style="fill:rgb(255,195,0);fill-rule:nonzero;"/>
            </g>
        </g>
    </g>
</svg>
