<?xml version="1.0" encoding="UTF-8" standalone="no"?>
<!DOCTYPE svg PUBLIC "-//W3C//DTD SVG 1.1//EN" "http://www.w3.org/Graphics/SVG/1.1/DTD/svg11.dtd">
<svg width="22px" height="22px" version="1.1" xmlns="http://www.w3.org/2000/svg" xmlns:xlink="http://www.w3.org/1999/xlink" xml:space="preserve" xmlns:serif="http://www.serif.com/" style="fill-rule:evenodd;clip-rule:evenodd;stroke-linejoin:round;stroke-miterlimit:1.41421;">
    <path id="Rectangle_2666" d="M22,3C22,1.344 20.656,0 19,0L3,0C1.344,0 0,1.344 0,3L0,19C0,20.656 1.344,22 3,22L19,22C20.656,22 22,20.656 22,19L22,3Z" style="fill:rgb(236,240,248);"/>
    <g id="referral" transform="matrix(1,0,0,1,3.332,3.332)">
        <g id="Ellipse_494" transform="matrix(1,0,0,1,7.541,1.04)">
            <circle cx="1.04" cy="1.04" r="1.04" style="fill:rgb(255,195,0);"/>
        </g>
        <g id="Ellipse_495" transform="matrix(1,0,0,1,3.641,1.04)">
            <ellipse cx="1.17" cy="1.04" rx="1.17" ry="1.04" style="fill:rgb(255,195,0);"/>
        </g>
        <g id="Path_6446" transform="matrix(1,0,0,1,-25.779,-13.273)">
            <path d="M34.245,17L34.045,19.028L34.3,19.283L34.555,19.028L34.349,17L34.3,17L34.245,17Z" style="fill:rgb(255,195,0);fill-rule:nonzero;"/>
        </g>
        <g id="Path_6447" transform="matrix(1,0,0,1,-10.338,-14.005)">
            <path d="M13,19.861L13,20.926L16.194,20.926L16.194,19.861C16.193,19.331 16.352,18.812 16.65,18.373C16.504,18.225 16.338,18.099 16.156,18C16.038,18.47 15.612,18.802 15.128,18.802C14.644,18.802 14.218,18.47 14.1,18C13.423,18.374 13.001,19.088 13,19.861Z" style="fill:rgb(255,195,0);fill-rule:nonzero;"/>
        </g>
        <g id="Path_6448" transform="matrix(1,0,0,1,-14.76,-13.273)">
            <path d="M19.026,17.068C19.057,17.334 19.284,17.536 19.551,17.536C19.819,17.536 20.046,17.334 20.077,17.068C19.733,16.977 19.37,16.977 19.026,17.068Z" style="fill:rgb(255,195,0);fill-rule:nonzero;"/>
        </g>
        <g id="Path_6449" transform="matrix(1,0,0,1,-17.676,-26.482)">
            <rect x="23" y="35" width="0.532" height="3.194" style="fill:rgb(255,195,0);fill-rule:nonzero;"/>
        </g>
        <g id="Path_6450" transform="matrix(1,0,0,1,-7.403,-27.101)">
            <path d="M9.266,36.417C9.12,36.417 9,36.537 9,36.683L9,37.748C9,37.894 9.12,38.014 9.266,38.014L10.066,38.014C10.814,38.016 11.548,38.214 12.196,38.588L12.196,35.843C11.548,36.217 10.814,36.415 10.066,36.417L9.266,36.417Z" style="fill:rgb(255,195,0);fill-rule:nonzero;"/>
        </g>
        <g id="Path_6451" transform="matrix(1,0,0,1,-20.611,-28.818)">
            <path d="M27,38.184L27,39.684C27.319,39.573 27.533,39.271 27.533,38.934C27.533,38.597 27.319,38.295 27,38.184Z" style="fill:rgb(255,195,0);fill-rule:nonzero;"/>
        </g>
        <g id="Path_6452" transform="matrix(1,0,0,1,-3,-23.547)">
            <path d="M10.719,31L3.8,31C3.361,31 3,31.361 3,31.8L3,36.59C3,37.029 3.361,37.39 3.8,37.39L7.358,37.39L9.132,38.91C9.189,38.959 9.262,38.986 9.338,38.986C9.512,38.986 9.654,38.844 9.655,38.67L9.655,37.389L10.72,37.389C11.159,37.389 11.52,37.028 11.52,36.589L11.52,31.8C11.52,31.361 11.159,31 10.72,31C10.72,31 10.719,31 10.719,31ZM9.389,34.966L9.389,35.791L7.969,35.791L7.9,35.738C7.547,35.475 7.151,35.277 6.729,35.152L6.729,36.057C6.729,36.496 6.368,36.857 5.929,36.857C5.49,36.857 5.129,36.496 5.129,36.057L5.129,34.993L4.863,34.993C4.424,34.993 4.063,34.632 4.063,34.193L4.063,33.13C4.063,32.691 4.424,32.33 4.863,32.33L5.663,32.33C6.469,32.329 7.254,32.068 7.9,31.586L7.971,31.533L9.391,31.533L9.391,32.358C10.008,32.484 10.455,33.032 10.455,33.662C10.455,34.292 10.008,34.84 9.391,34.966L9.389,34.966ZM10.989,36.324C10.988,36.616 10.749,36.855 10.457,36.856L9.921,36.856L9.921,36.324L10.453,36.324L10.453,34.724L10.985,34.724L10.989,36.324Z" style="fill:rgb(255,195,0);fill-rule:nonzero;"/>
        </g>
        <g id="Path_6453" transform="matrix(1,0,0,1,-20.611,-13.511)">
            <path d="M27,19.367L27,20.432L31.259,20.432L31.259,19.367C31.257,18.424 30.63,17.589 29.725,17.324L29.939,19.466L29.129,20.275L28.319,19.465L28.533,17.323C27.628,17.588 27.001,18.424 27,19.367Z" style="fill:rgb(255,195,0);fill-rule:nonzero;"/>
        </g>
        <g id="Ellipse_496" transform="matrix(1,0,0,1,11.182,1.04)">
            <circle cx="1.04" cy="1.04" r="1.04" style="fill:rgb(255,195,0);"/>
        </g>
        <g id="Path_6454" transform="matrix(1,0,0,1,-32.563,-14.005)">
            <path d="M43.287,18.373C43.585,18.812 43.744,19.331 43.743,19.861L43.743,20.926L46.937,20.926L46.937,19.861C46.935,19.088 46.512,18.373 45.835,18C45.715,18.468 45.291,18.798 44.808,18.798C44.325,18.798 43.901,18.468 43.781,18C43.599,18.1 43.432,18.226 43.287,18.375L43.287,18.373Z" style="fill:rgb(255,195,0);fill-rule:nonzero;"/>
        </g>
        <g id="Path_6455" transform="matrix(1,0,0,1,-7.403,-3)">
            <path d="M22.043,3L9.8,3C9.361,3 9,3.361 9,3.8L9,9.921L9.532,9.921L9.532,8.856C9.534,7.769 10.2,6.788 11.21,6.385C10.821,6.082 10.594,5.616 10.594,5.123C10.594,4.245 11.316,3.523 12.194,3.523C13.071,3.523 13.794,4.245 13.794,5.123C13.794,5.616 13.566,6.082 13.177,6.385C13.506,6.515 13.806,6.709 14.059,6.957C14.311,6.71 14.609,6.516 14.937,6.385C14.549,6.082 14.321,5.616 14.321,5.123C14.321,4.246 15.043,3.523 15.921,3.523C16.799,3.523 17.521,4.246 17.521,5.123C17.521,5.616 17.293,6.082 16.905,6.385C17.233,6.516 17.531,6.71 17.783,6.957C18.036,6.709 18.336,6.515 18.665,6.385C18.276,6.082 18.049,5.616 18.049,5.123C18.049,4.245 18.771,3.523 19.649,3.523C20.526,3.523 21.249,4.245 21.249,5.123C21.249,5.616 21.021,6.082 20.632,6.385C21.642,6.788 22.308,7.769 22.31,8.856L22.31,10.456L16.18,10.456C16.301,10.613 16.385,10.794 16.426,10.988L18.149,10.988L19.923,12.509C19.98,12.558 20.053,12.585 20.129,12.585C20.303,12.585 20.445,12.443 20.446,12.269L20.446,10.986L22.046,10.986C22.485,10.986 22.846,10.625 22.846,10.186L22.846,3.8C22.846,3.8 22.846,3.8 22.846,3.8C22.846,3.361 22.485,3 22.046,3C22.045,3 22.044,3 22.043,3ZM10.065,6.727L9.532,6.727L9.532,6.194L10.064,6.194L10.065,6.727ZM10.6,4.065L10.068,4.065L10.068,5.665L9.532,5.665L9.532,4.065C9.533,3.773 9.772,3.534 10.064,3.533L10.6,3.533L10.6,4.065ZM22.312,6.195L21.78,6.195L21.78,5.662L22.312,5.662L22.312,6.195ZM22.312,5.13L21.78,5.13L21.78,4.6L22.312,4.6L22.312,5.13ZM22.312,4.065L21.78,4.065L21.78,3.532L22.312,3.532L22.312,4.065Z" style="fill:rgb(255,195,0);fill-rule:nonzero;"/>
        </g>
        <g id="Path_6456" transform="matrix(1,0,0,1,-35.307,-13.273)">
            <path d="M47.026,17.068C47.057,17.334 47.284,17.536 47.552,17.536C47.819,17.536 48.046,17.334 48.077,17.068C47.733,16.977 47.37,16.977 47.026,17.068Z" style="fill:rgb(255,195,0);fill-rule:nonzero;"/>
        </g>
        <g id="Path_6457" transform="matrix(1,0,0,1,-10.338,-34.554)">
            <path d="M13,47.065C13,47.211 13.12,47.331 13.266,47.331C13.412,47.331 13.532,47.211 13.532,47.065L13.532,46.041C13.356,46.014 13.178,46.001 13,46L13,47.065Z" style="fill:rgb(255,195,0);fill-rule:nonzero;"/>
        </g>
    </g>
</svg>
