<?xml version="1.0" encoding="UTF-8" standalone="no"?>
<!DOCTYPE svg PUBLIC "-//W3C//DTD SVG 1.1//EN" "http://www.w3.org/Graphics/SVG/1.1/DTD/svg11.dtd">
<svg width="22px" height="22px" version="1.1" xmlns="http://www.w3.org/2000/svg" xmlns:xlink="http://www.w3.org/1999/xlink" xml:space="preserve" xmlns:serif="http://www.serif.com/" style="fill-rule:evenodd;clip-rule:evenodd;stroke-linejoin:round;stroke-miterlimit:1.41421;">
    <g id="pro_th" transform="matrix(1,0,0,1,0.01,-0.031)">
        <g id="Rectangle_2666" transform="matrix(1,0,0,1,-0.01,0.03)">
            <path d="M22,3C22,1.344 20.656,0 19,0L3,0C1.344,0 0,1.344 0,3L0,19C0,20.656 1.344,22 3,22L19,22C20.656,22 22,20.656 22,19L22,3Z" style="fill:rgb(236,240,248);"/>
        </g>
        <g id="Group_5446" transform="matrix(1,0,0,1,4.089,3.272)">
            <g id="Path_6366" transform="matrix(1,0,0,1,-68.955,-36.956)">
                <path d="M70.307,38C70.138,38.001 70,38.139 70,38.308L70,50.484C70.26,50.352 70.578,50.402 70.785,50.609L71.376,51.2L72.389,50.524C72.616,50.373 72.912,50.373 73.139,50.524L74.239,51.257L75.339,50.524C75.566,50.373 75.862,50.373 76.089,50.524L77.1,51.2L77.691,50.609C77.898,50.403 78.216,50.353 78.476,50.485L78.476,38.307C78.477,38.204 78.488,38.101 78.508,38L70.307,38ZM71.166,48.629C71.156,48.824 70.993,48.979 70.798,48.979C70.602,48.979 70.439,48.824 70.429,48.629L70.429,46.663C70.439,46.468 70.602,46.313 70.798,46.313C70.993,46.313 71.156,46.468 71.166,46.663L71.166,48.629ZM72.149,48.629C72.139,48.824 71.976,48.979 71.781,48.979C71.585,48.979 71.422,48.824 71.412,48.629L71.412,46.663C71.422,46.468 71.585,46.313 71.781,46.313C71.976,46.313 72.139,46.468 72.149,46.663L72.149,48.629ZM73.624,48.629C73.614,48.824 73.451,48.979 73.256,48.979C73.06,48.979 72.897,48.824 72.887,48.629L72.887,46.663C72.897,46.468 73.06,46.313 73.256,46.313C73.451,46.313 73.614,46.468 73.624,46.663L73.624,48.629ZM74.607,48.629C74.597,48.824 74.434,48.979 74.239,48.979C74.043,48.979 73.88,48.824 73.87,48.629L73.87,46.663C73.88,46.468 74.043,46.313 74.239,46.313C74.434,46.313 74.597,46.468 74.607,46.663L74.607,48.629ZM75.59,48.629C75.58,48.824 75.417,48.979 75.222,48.979C75.026,48.979 74.863,48.824 74.853,48.629L74.853,46.663C74.863,46.468 75.026,46.313 75.222,46.313C75.417,46.313 75.58,46.468 75.59,46.663L75.59,48.629ZM73.748,41.379L74.731,41.379C74.755,41.378 74.78,41.377 74.805,41.377C75.546,41.377 76.157,41.987 76.157,42.729C76.157,43.471 75.546,44.081 74.805,44.081C74.78,44.081 74.755,44.08 74.731,44.079L74.608,44.079L74.608,44.7C74.598,44.895 74.435,45.05 74.24,45.05C74.044,45.05 73.881,44.895 73.871,44.7L73.871,44.086L73.5,44.086C72.894,44.082 72.398,43.582 72.4,42.976C72.41,42.781 72.573,42.626 72.769,42.626C72.964,42.626 73.127,42.781 73.137,42.976C73.137,43.178 73.304,43.345 73.506,43.345L74.735,43.345C75.072,43.345 75.35,43.068 75.35,42.731C75.35,42.393 75.072,42.116 74.735,42.116L73.752,42.116C73.728,42.117 73.703,42.118 73.678,42.118C72.937,42.118 72.326,41.508 72.326,40.766C72.326,40.024 72.937,39.414 73.678,39.414C73.703,39.414 73.728,39.415 73.752,39.416L73.875,39.416L73.875,38.8C73.885,38.605 74.048,38.45 74.244,38.45C74.439,38.45 74.602,38.605 74.612,38.8L74.612,39.414L74.98,39.414C75.587,39.414 76.086,39.913 76.087,40.52C76.077,40.715 75.914,40.87 75.718,40.87C75.523,40.87 75.36,40.715 75.35,40.52C75.349,40.318 75.183,40.152 74.981,40.152L73.748,40.152C73.411,40.152 73.134,40.429 73.134,40.766C73.134,41.104 73.411,41.381 73.748,41.381L73.748,41.379ZM77.066,48.629C77.056,48.824 76.893,48.979 76.698,48.979C76.502,48.979 76.339,48.824 76.329,48.629L76.329,46.663C76.339,46.468 76.502,46.313 76.698,46.313C76.893,46.313 77.056,46.468 77.066,46.663L77.066,48.629ZM78.049,48.629C78.039,48.824 77.876,48.979 77.681,48.979C77.485,48.979 77.322,48.824 77.312,48.629L77.312,46.663C77.322,46.468 77.485,46.313 77.681,46.313C77.876,46.313 78.039,46.468 78.049,46.663L78.049,48.629Z" style="fill:rgb(255,195,0);fill-rule:nonzero;"/>
            </g>
            <g id="Path_6367" transform="matrix(1,0,0,1,-35.994,-4)">
                <path d="M50.126,5.966L48.526,5.966L48.526,5.352C48.525,4.612 47.917,4.002 47.177,4L37.346,4C36.605,4.001 35.995,4.611 35.994,5.352L35.994,19.113C35.997,19.314 36.164,19.478 36.365,19.478C36.462,19.478 36.555,19.441 36.624,19.373L37.324,18.673L37.343,18.654L38.062,19.373C38.186,19.498 38.383,19.517 38.529,19.419L39.653,18.669L39.799,18.569L39.945,18.669L41.068,19.418C41.192,19.5 41.353,19.5 41.477,19.418L42.601,18.669L42.747,18.569L42.893,18.669L44.017,19.418C44.163,19.515 44.358,19.496 44.482,19.372L45.182,18.672L45.201,18.653L45.92,19.372C45.989,19.439 46.082,19.476 46.178,19.476C46.379,19.476 46.546,19.312 46.549,19.111L46.549,12.6L49.13,12.6C49.136,12.6 49.141,12.6 49.147,12.6C49.888,12.6 50.498,11.991 50.5,11.25L50.5,6.335C50.5,6.133 50.333,5.966 50.131,5.966L50.126,5.966ZM44.95,17.87L44.18,18.639L42.957,17.823C42.833,17.741 42.672,17.741 42.548,17.823L41.278,18.67L40.008,17.823C39.884,17.741 39.723,17.741 39.599,17.823L38.376,18.638L37.607,17.869C37.538,17.8 37.444,17.761 37.346,17.761C37.248,17.761 37.154,17.8 37.085,17.869L36.731,18.222L36.731,5.352C36.732,5.015 37.009,4.738 37.346,4.738L45.974,4.738C45.877,4.928 45.826,5.138 45.826,5.352L45.826,18.224L45.471,17.87C45.328,17.727 45.093,17.727 44.95,17.87ZM46.562,11.864L46.562,5.352C46.562,5.015 46.839,4.738 47.177,4.738C47.514,4.738 47.791,5.015 47.791,5.352L47.791,11.252C47.791,11.466 47.842,11.676 47.939,11.866L46.562,11.864ZM49.762,11.25C49.762,11.587 49.485,11.865 49.148,11.865C48.81,11.865 48.533,11.587 48.533,11.25L48.533,6.7L49.762,6.7L49.762,11.25Z" style="fill:rgb(255,195,0);fill-rule:nonzero;"/>
            </g>
        </g>
    </g>
</svg>
