<?xml version="1.0" encoding="UTF-8" standalone="no"?>
<!DOCTYPE svg PUBLIC "-//W3C//DTD SVG 1.1//EN" "http://www.w3.org/Graphics/SVG/1.1/DTD/svg11.dtd">
<svg width="22px" height="22px" version="1.1" xmlns="http://www.w3.org/2000/svg" xmlns:xlink="http://www.w3.org/1999/xlink" xml:space="preserve" xmlns:serif="http://www.serif.com/" style="fill-rule:evenodd;clip-rule:evenodd;stroke-linejoin:round;stroke-miterlimit:1.41421;">
    <g id="pro_address" transform="matrix(1,0,0,1,0.391,-0.031)">
        <g id="Rectangle_2666" transform="matrix(1,0,0,1,-0.391,0.03)">
            <path d="M22,3C22,1.344 20.656,0 19,0L3,0C1.344,0 0,1.344 0,3L0,19C0,20.656 1.344,22 3,22L19,22C20.656,22 22,20.656 22,19L22,3Z" style="fill:rgb(236,240,248);"/>
        </g>
        <g id="Group_5209" transform="matrix(1,0,0,1,3.344,2.803)">
            <g id="Path_5916" transform="matrix(1,0,0,1,-35.124,-309.318)">
                <path d="M49.894,317.327C49.524,317.727 49.128,318.104 48.71,318.454C48.66,321.525 46.3,324.104 43.246,324.426L43.246,312.3L43.295,312.307C43.357,311.885 43.478,311.474 43.656,311.087C43.29,311.032 42.921,311.004 42.551,311.004C38.478,311.004 35.126,314.356 35.126,318.429C35.126,322.503 38.478,325.854 42.551,325.854C46.624,325.854 49.976,322.503 49.976,318.429C49.976,318.061 49.949,317.693 49.894,317.329L49.894,317.327ZM39.711,313C38.874,314.513 38.43,316.212 38.42,317.941L36.537,317.941C36.68,315.862 37.88,313.995 39.711,313ZM36.58,319.2L38.435,319.2C38.498,320.786 38.935,322.336 39.71,323.721C38.011,322.796 36.848,321.116 36.581,319.2L36.58,319.2ZM41.98,324.31C40.743,323.722 39.88,321.466 39.703,319.2L41.98,319.2L41.98,324.31ZM41.98,317.938L39.68,317.938C39.78,315.538 40.669,313.031 41.98,312.408L41.98,317.938Z" style="fill:rgb(255,195,0);fill-rule:nonzero;"/>
            </g>
            <g id="Path_5917" transform="matrix(1,0,0,1,-47.668,-307)">
                <path d="M60.149,307C60.147,307 60.146,307 60.144,307C58.209,307 56.616,308.593 56.616,310.528C56.616,310.652 56.623,310.776 56.636,310.9C56.85,313.362 59.114,315.2 59.89,315.759C60.042,315.87 60.252,315.866 60.4,315.75C61.205,315.121 63.679,312.989 63.679,310.526C63.677,308.591 62.084,306.999 60.149,307ZM60.149,312.176C59.245,312.176 58.502,311.433 58.502,310.529C58.502,309.625 59.245,308.882 60.149,308.882C61.053,308.882 61.796,309.625 61.796,310.529C61.796,311.433 61.053,312.176 60.149,312.176Z" style="fill:rgb(255,195,0);fill-rule:nonzero;"/>
            </g>
        </g>
    </g>
</svg>
