<?xml version="1.0" encoding="UTF-8" standalone="no"?>
<!DOCTYPE svg PUBLIC "-//W3C//DTD SVG 1.1//EN" "http://www.w3.org/Graphics/SVG/1.1/DTD/svg11.dtd">
<svg width="22px" height="22px" version="1.1" xmlns="http://www.w3.org/2000/svg" xmlns:xlink="http://www.w3.org/1999/xlink" xml:space="preserve" xmlns:serif="http://www.serif.com/" style="fill-rule:evenodd;clip-rule:evenodd;stroke-linejoin:round;stroke-miterlimit:1.41421;">
    <g id="pro_pp" transform="matrix(1,0,0,1,0.269,-0.031)">
        <g id="Rectangle_2666" transform="matrix(1,0,0,1,-0.269,0.03)">
            <path d="M22,3C22,1.344 20.656,0 19,0L3,0C1.344,0 0,1.344 0,3L0,19C0,20.656 1.344,22 3,22L19,22C20.656,22 22,20.656 22,19L22,3Z" style="fill:rgb(236,240,248);"/>
        </g>
        <g id="Group_5442" transform="matrix(1,0,0,1,5.091,3.273)">
            <g id="Path_6330" transform="matrix(1,0,0,1,-1820.12,-1616.72)">
                <path d="M1826.01,1616.72C1824.4,1618.17 1822.3,1618.98 1820.13,1618.96C1817.96,1618.94 1820.12,1625.47 1820.12,1626.43C1820.12,1627.99 1821.18,1629.61 1826.01,1632.2C1830.6,1629.74 1831.86,1627.99 1831.86,1626.43C1831.86,1625.25 1831.88,1618.96 1831.88,1618.96C1829.71,1618.98 1827.61,1618.17 1826.01,1616.72ZM1824.15,1621.38C1824.15,1621.37 1824.15,1621.36 1824.15,1621.35C1824.25,1620.43 1825.04,1619.73 1825.96,1619.73C1826.89,1619.73 1827.67,1620.43 1827.78,1621.35L1827.78,1622.48L1827.13,1622.48L1827.13,1621.39C1827.05,1620.81 1826.55,1620.37 1825.96,1620.37C1825.38,1620.37 1824.87,1620.81 1824.79,1621.39L1824.79,1622.48L1824.15,1622.48L1824.15,1621.38ZM1828.81,1627.6C1828.81,1628.13 1828.37,1628.57 1827.84,1628.57L1824.09,1628.57C1823.55,1628.57 1823.12,1628.13 1823.12,1627.6L1823.12,1624.13C1823.12,1624.13 1823.12,1624.13 1823.12,1624.13C1823.12,1623.6 1823.55,1623.16 1824.09,1623.16C1824.09,1623.16 1827.84,1623.16 1827.84,1623.16C1828.37,1623.16 1828.81,1623.6 1828.81,1624.13L1828.81,1627.6Z" style="fill:rgb(255,195,0);fill-rule:nonzero;"/>
            </g>
            <g id="Path_6331" transform="matrix(1,0,0,1,-1981.36,-1863.54)">
                <path d="M1987.24,1871.56C1987.24,1871.56 1987.24,1871.56 1987.23,1871.56C1986.88,1871.56 1986.6,1871.85 1986.6,1872.2C1986.6,1872.47 1986.77,1872.71 1987.02,1872.8L1987.02,1873.62C1987.02,1873.74 1987.12,1873.84 1987.24,1873.84C1987.35,1873.84 1987.45,1873.74 1987.45,1873.62C1987.45,1873.62 1987.45,1872.8 1987.45,1872.8C1987.7,1872.71 1987.88,1872.47 1987.88,1872.2C1987.88,1871.85 1987.59,1871.56 1987.24,1871.56C1987.24,1871.56 1987.24,1871.56 1987.24,1871.56Z" style="fill:rgb(255,195,0);fill-rule:nonzero;"/>
            </g>
        </g>
    </g>
</svg>
