<?xml version="1.0" encoding="UTF-8" standalone="no"?>
<!DOCTYPE svg PUBLIC "-//W3C//DTD SVG 1.1//EN" "http://www.w3.org/Graphics/SVG/1.1/DTD/svg11.dtd">
<svg width="22px" height="22px" version="1.1" xmlns="http://www.w3.org/2000/svg" xmlns:xlink="http://www.w3.org/1999/xlink" xml:space="preserve" xmlns:serif="http://www.serif.com/" style="fill-rule:evenodd;clip-rule:evenodd;stroke-linejoin:round;stroke-miterlimit:1.41421;">
    <g id="Group_5427" transform="matrix(1,0,0,1,0.31,-0.029)">
        <g id="Rectangle_2666" transform="matrix(1,0,0,1,-0.31,0.03)">
            <path d="M22,3C22,1.344 20.656,0 19,0L3,0C1.344,0 0,1.344 0,3L0,19C0,20.656 1.344,22 3,22L19,22C20.656,22 22,20.656 22,19L22,3Z" style="fill:rgb(236,240,248);"/>
        </g>
        <g id="Group_5199" transform="matrix(1,0,0,1,4.781,3.209)">
            <g id="Path_5904" transform="matrix(1,0,0,1,-318.584,-115.257)">
                <path d="M327.417,123.7C325.338,123.701 323.627,125.412 323.627,127.491C323.627,129.571 325.338,131.282 327.418,131.282C329.498,131.282 331.209,129.571 331.209,127.491C331.209,125.411 329.498,123.7 327.418,123.7C327.418,123.7 327.417,123.7 327.417,123.7ZM327.231,126.82L328.086,127.261C328.593,127.517 328.875,128.078 328.777,128.637C328.713,129.065 328.433,129.431 328.036,129.604L328.036,129.718C328.024,129.998 327.79,130.222 327.51,130.222C327.229,130.222 326.995,129.998 326.983,129.718L326.983,129.638C326.563,129.499 326.221,129.187 326.044,128.781C326.02,128.72 326.007,128.654 326.007,128.588C326.007,128.299 326.245,128.061 326.534,128.061C326.737,128.061 326.923,128.178 327.01,128.361C327.098,128.559 327.303,128.68 327.519,128.661C327.629,128.659 327.723,128.576 327.737,128.467C327.759,128.357 327.704,128.245 327.604,128.194L326.749,127.753C326.237,127.491 325.957,126.918 326.065,126.353C326.148,125.867 326.508,125.472 326.984,125.345L326.984,125.267C326.996,124.987 327.23,124.763 327.511,124.763C327.791,124.763 328.025,124.987 328.037,125.267L328.037,125.462C328.373,125.621 328.64,125.896 328.789,126.236C328.823,126.307 328.84,126.384 328.84,126.463C328.84,126.752 328.602,126.99 328.313,126.99C328.097,126.99 327.902,126.857 327.823,126.656C327.735,126.458 327.53,126.337 327.314,126.356C327.206,126.361 327.116,126.443 327.101,126.55C327.075,126.66 327.13,126.775 327.232,126.824L327.231,126.82Z" style="fill:rgb(255,195,0);fill-rule:nonzero;"/>
            </g>
            <g id="Path_5905" transform="matrix(1,0,0,1,-311.375,-103.296)">
                <path d="M321.284,103.575L320.351,104.075C320.226,104.141 320.076,104.141 319.951,104.075L318.597,103.344C318.472,103.277 318.322,103.277 318.197,103.344L316.845,104.075C316.72,104.142 316.57,104.142 316.445,104.075L315.094,103.345C314.969,103.278 314.819,103.278 314.694,103.345L313.343,104.075C313.218,104.142 313.068,104.142 312.943,104.075L312.016,103.575C311.954,103.541 311.884,103.523 311.813,103.523C311.583,103.523 311.394,103.711 311.392,103.941L311.392,117.3C311.394,117.529 311.584,117.717 311.813,117.717C311.883,117.717 311.952,117.7 312.014,117.666L312.947,117.166C313.072,117.099 313.222,117.099 313.347,117.166L314.701,117.897C314.826,117.964 314.976,117.964 315.101,117.897L315.895,117.468C315.63,116.866 315.494,116.216 315.495,115.558C315.519,112.92 317.696,110.764 320.334,110.764C320.874,110.764 321.41,110.854 321.92,111.031L321.92,103.942C321.918,103.713 321.728,103.525 321.499,103.525C321.429,103.525 321.36,103.542 321.298,103.576L321.284,103.575ZM314.114,113.7L313.481,113.7C313.195,113.7 312.96,113.465 312.96,113.179C312.96,112.893 313.195,112.658 313.481,112.658C313.481,112.658 314.113,112.658 314.113,112.658C314.399,112.658 314.634,112.893 314.634,113.179C314.634,113.465 314.399,113.7 314.113,113.7C314.113,113.7 314.114,113.7 314.114,113.7ZM315.347,111.616L313.481,111.616C313.195,111.616 312.96,111.381 312.96,111.095C312.96,110.809 313.195,110.574 313.481,110.574C313.481,110.574 315.347,110.574 315.347,110.574C315.633,110.574 315.868,110.809 315.868,111.095C315.868,111.381 315.633,111.616 315.347,111.616C315.347,111.616 315.347,111.616 315.347,111.616ZM319.698,109.531L313.481,109.531C313.195,109.531 312.96,109.296 312.96,109.01C312.96,108.724 313.195,108.489 313.481,108.489C313.481,108.489 319.7,108.489 319.7,108.489C319.986,108.489 320.221,108.724 320.221,109.01C320.221,109.296 319.986,109.531 319.7,109.531C319.7,109.531 319.698,109.531 319.698,109.531ZM319.698,107.446L313.481,107.446C313.195,107.446 312.96,107.211 312.96,106.925C312.96,106.639 313.195,106.404 313.481,106.404C313.481,106.404 319.7,106.404 319.7,106.404C319.986,106.404 320.221,106.639 320.221,106.925C320.221,107.211 319.986,107.446 319.7,107.446L319.698,107.446Z" style="fill:rgb(255,195,0);fill-rule:nonzero;"/>
            </g>
        </g>
    </g>
</svg>
