<?xml version="1.0" encoding="UTF-8" standalone="no"?>
<!DOCTYPE svg PUBLIC "-//W3C//DTD SVG 1.1//EN" "http://www.w3.org/Graphics/SVG/1.1/DTD/svg11.dtd">
<svg width="22px" height="22px" version="1.1" xmlns="http://www.w3.org/2000/svg" xmlns:xlink="http://www.w3.org/1999/xlink" xml:space="preserve" xmlns:serif="http://www.serif.com/" style="fill-rule:evenodd;clip-rule:evenodd;stroke-linejoin:round;stroke-miterlimit:1.41421;">
    <g id="pro_aboutus" transform="matrix(1,0,0,1,0,-0.031)">
        <g id="Rectangle_2666" transform="matrix(1,0,0,1,0,0.03)">
            <path d="M22,3C22,1.344 20.656,0 19,0L3,0C1.344,0 0,1.344 0,3L0,19C0,20.656 1.344,22 3,22L19,22C20.656,22 22,20.656 22,19L22,3Z" style="fill:rgb(236,240,248);"/>
        </g>
        <g id="Group_5228" transform="matrix(1,0,0,1,2.789,2.787)">
            <g id="Path_5930" transform="matrix(1,0,0,1,-376.002,-308)">
                <path d="M384.2,308C379.702,308 376,311.702 376,316.2C376,320.698 379.702,324.4 384.2,324.4C388.698,324.4 392.4,320.698 392.4,316.2C392.4,311.702 388.698,308 384.2,308ZM384.2,322.631C380.673,322.631 377.771,319.729 377.771,316.202C377.771,312.675 380.673,309.773 384.2,309.773C387.727,309.773 390.629,312.675 390.629,316.202C390.629,319.729 387.727,322.631 384.2,322.631Z" style="fill:rgb(255,195,0);fill-rule:nonzero;"/>
            </g>
            <g id="Path_5931" transform="matrix(1,0,0,1,-383.689,-311.612)">
                <path d="M392.114,317.514C392.932,317.507 393.602,316.832 393.602,316.014C393.602,315.191 392.925,314.514 392.102,314.514C391.279,314.514 390.602,315.191 390.602,316.014C390.602,316.014 390.602,316.014 390.602,316.014C390.602,316.837 391.279,317.514 392.102,317.514C392.106,317.514 392.11,317.514 392.114,317.514ZM393.584,320.586C393.614,320.457 393.629,320.326 393.629,320.194C393.629,319.25 392.853,318.474 391.909,318.474C391.907,318.474 391.905,318.474 391.903,318.474L390.603,318.474C390.602,318.474 390.602,318.474 390.601,318.474C390.358,318.474 390.158,318.674 390.158,318.917C390.158,318.917 390.158,318.917 390.158,318.917C390.161,319.013 390.201,319.104 390.269,319.171C390.496,319.394 390.594,319.718 390.528,320.029L389.848,322.792C389.818,322.92 389.803,323.051 389.803,323.183C389.803,324.127 390.58,324.904 391.524,324.904C391.526,324.904 391.527,324.904 391.529,324.904L392.83,324.904C393.073,324.904 393.273,324.704 393.274,324.461C393.271,324.365 393.232,324.274 393.164,324.206C392.937,323.983 392.839,323.659 392.905,323.348L393.584,320.586Z" style="fill:rgb(255,195,0);fill-rule:nonzero;"/>
            </g>
        </g>
    </g>
</svg>
