<?xml version="1.0" encoding="UTF-8" standalone="no"?>
<!DOCTYPE svg PUBLIC "-//W3C//DTD SVG 1.1//EN" "http://www.w3.org/Graphics/SVG/1.1/DTD/svg11.dtd">
<svg width="22px" height="22px" version="1.1" xmlns="http://www.w3.org/2000/svg" xmlns:xlink="http://www.w3.org/1999/xlink" xml:space="preserve" xmlns:serif="http://www.serif.com/" style="fill-rule:evenodd;clip-rule:evenodd;stroke-linejoin:round;stroke-miterlimit:1.41421;">
    <g id="pro_logout" transform="matrix(1,0,0,1,-0.081,-0.031)">
        <g id="Rectangle_2666" transform="matrix(1,0,0,1,0.081,0.03)">
            <path d="M22,3C22,1.344 20.656,0 19,0L3,0C1.344,0 0,1.344 0,3L0,19C0,20.656 1.344,22 3,22L19,22C20.656,22 22,20.656 22,19L22,3Z" style="fill:rgb(236,240,248);"/>
        </g>
        <g id="logout" transform="matrix(1,0,0,1,2.722,2.904)">
            <path id="Path_5932" d="M10.43,8.887C10.426,8.887 10.423,8.887 10.419,8.887C10.043,8.887 9.733,9.194 9.73,9.57L9.73,12.3C9.726,12.676 9.416,12.983 9.04,12.983C9.037,12.983 9.033,12.983 9.03,12.983L6.953,12.983L6.953,2.735C6.949,2.145 6.566,1.62 6.006,1.435L5.8,1.368L9.04,1.368C9.043,1.368 9.047,1.368 9.05,1.368C9.426,1.368 9.737,1.676 9.74,2.052L9.74,4.1C9.737,4.126 9.735,4.153 9.735,4.179C9.735,4.563 10.051,4.879 10.435,4.879C10.82,4.879 11.135,4.563 11.135,4.179C11.135,4.153 11.134,4.126 11.131,4.1L11.131,2.051C11.12,0.922 10.189,0 9.06,0C9.053,0 9.046,0 9.039,0L1.564,0C1.539,0.003 1.514,0.008 1.49,0.015C1.457,0.013 1.426,0 1.391,0C0.634,-0.006 0.007,0.611 0,1.368L0,13.668C0.004,14.258 0.387,14.783 0.947,14.968L5.132,16.339C5.272,16.381 5.417,16.403 5.563,16.402C6.319,16.408 6.947,15.791 6.954,15.035L6.954,14.352L9.039,14.352C10.174,14.36 11.115,13.435 11.125,12.3L11.125,9.57C11.122,9.194 10.812,8.887 10.436,8.887C10.432,8.887 10.429,8.887 10.425,8.887L10.43,8.887Z" style="fill:rgb(255,195,0);fill-rule:nonzero;"/>
            <g id="Path_5933" transform="matrix(1,0,0,1,-268.575,-103.289)">
                <path d="M284.777,109.651L282,106.87C281.869,106.744 281.695,106.673 281.513,106.673C281.133,106.673 280.819,106.982 280.813,107.362L280.813,109.448L278.032,109.448C278.006,109.445 277.979,109.444 277.953,109.444C277.569,109.444 277.253,109.759 277.253,110.144C277.253,110.528 277.569,110.844 277.953,110.844C277.979,110.844 278.006,110.842 278.032,110.839L280.813,110.839L280.813,112.925C280.819,113.305 281.133,113.614 281.513,113.614C281.695,113.614 281.869,113.543 282,113.417L284.781,110.636C284.912,110.506 284.986,110.328 284.986,110.144C284.986,109.959 284.912,109.781 284.781,109.651L284.777,109.651Z" style="fill:rgb(255,195,0);fill-rule:nonzero;"/>
            </g>
        </g>
    </g>
</svg>
