<?xml version="1.0" encoding="UTF-8" standalone="no"?>
<!DOCTYPE svg PUBLIC "-//W3C//DTD SVG 1.1//EN" "http://www.w3.org/Graphics/SVG/1.1/DTD/svg11.dtd">
<svg width="22px" height="22px" version="1.1" xmlns="http://www.w3.org/2000/svg" xmlns:xlink="http://www.w3.org/1999/xlink" xml:space="preserve" xmlns:serif="http://www.serif.com/" style="fill-rule:evenodd;clip-rule:evenodd;stroke-linejoin:round;stroke-miterlimit:1.41421;">
    <g id="pro_share" transform="matrix(1,0,0,1,0.229,-0.031)">
        <g id="Rectangle_2666" transform="matrix(1,0,0,1,-0.229,0.03)">
            <path d="M22,3C22,1.344 20.656,0 19,0L3,0C1.344,0 0,1.344 0,3L0,19C0,20.656 1.344,22 3,22L19,22C20.656,22 22,20.656 22,19L22,3Z" style="fill:rgb(236,240,248);"/>
        </g>
        <g id="share" transform="matrix(1,0,0,1,2.8,2.938)">
            <g id="Path_5928" transform="matrix(1,0,0,1,-124.058,0.005)">
                <path d="M140.319,4.829L135.819,0.155C135.721,0.052 135.586,-0.006 135.444,-0.006C135.16,-0.006 134.926,0.228 134.926,0.512C134.926,0.513 134.926,0.513 134.926,0.514L134.926,2.764L134.753,2.764C131.05,2.767 128.003,5.814 128,9.517L128,10.555C128,10.794 128.167,11.003 128.4,11.055C128.437,11.064 128.476,11.069 128.514,11.069C128.716,11.066 128.899,10.95 128.988,10.769C129.949,8.831 131.937,7.603 134.1,7.612L134.923,7.612L134.923,9.862C134.923,9.863 134.923,9.864 134.923,9.865C134.923,10.149 135.157,10.383 135.441,10.383C135.583,10.383 135.718,10.325 135.816,10.222L140.316,5.548C140.51,5.348 140.51,5.027 140.316,4.827L140.319,4.829Z" style="fill:rgb(255,195,0);fill-rule:nonzero;"/>
            </g>
            <g id="Path_5929" transform="matrix(1,0,0,1,0,-82.569)">
                <path d="M14.356,98.975L2.052,98.975C0.929,98.976 0.003,98.053 0,96.93L0,87.385C0.003,86.262 0.929,85.339 2.052,85.34L4.1,85.34C4.109,85.34 4.117,85.34 4.126,85.34C4.5,85.34 4.808,85.647 4.808,86.022C4.808,86.396 4.5,86.704 4.126,86.704C4.117,86.704 4.109,86.703 4.1,86.703L2.052,86.703C2.052,86.703 2.051,86.703 2.051,86.703C1.677,86.703 1.369,87.011 1.368,87.385L1.368,96.93C1.369,97.304 1.677,97.612 2.051,97.612C2.051,97.612 2.052,97.612 2.052,97.612L14.352,97.612C14.726,97.612 15.034,97.304 15.035,96.93L15.035,91.476C15.049,91.111 15.353,90.818 15.719,90.818C16.084,90.818 16.388,91.111 16.402,91.476L16.402,96.93C16.399,98.053 15.474,98.976 14.351,98.975L14.356,98.975Z" style="fill:rgb(255,195,0);fill-rule:nonzero;"/>
            </g>
        </g>
    </g>
</svg>
