<?xml version="1.0" encoding="UTF-8" standalone="no"?>
<!DOCTYPE svg PUBLIC "-//W3C//DTD SVG 1.1//EN" "http://www.w3.org/Graphics/SVG/1.1/DTD/svg11.dtd">
<svg width="22px" height="22px" version="1.1" xmlns="http://www.w3.org/2000/svg" xmlns:xlink="http://www.w3.org/1999/xlink" xml:space="preserve" xmlns:serif="http://www.serif.com/" style="fill-rule:evenodd;clip-rule:evenodd;stroke-linejoin:round;stroke-miterlimit:1.41421;">
    <g id="pro_language" transform="matrix(1,0,0,1,-0.259,-0.031)">
        <g id="Rectangle_2666" transform="matrix(1,0,0,1,0.259,0.03)">
            <path d="M22,3C22,1.344 20.656,0 19,0L3,0C1.344,0 0,1.344 0,3L0,19C0,20.656 1.344,22 3,22L19,22C20.656,22 22,20.656 22,19L22,3Z" style="fill:rgb(236,240,248);"/>
        </g>
        <g id="language" transform="matrix(1,0,0,1,3.773,3.401)">
            <g id="Path_6319" transform="matrix(1,0,0,1,-116.716,-132.926)">
                <path d="M120.841,137L120.65,137L120.293,138.784L121.193,138.784L120.841,137Z" style="fill:rgb(255,195,0);fill-rule:nonzero;"/>
            </g>
            <g id="Path_6320" transform="matrix(1,0,0,1,-370.033,-249.358)">
                <path d="M381.374,257C381.547,257.467 381.795,257.903 382.106,258.292C382.427,257.905 382.685,257.469 382.868,257L381.374,257Z" style="fill:rgb(255,195,0);fill-rule:nonzero;"/>
            </g>
            <g id="Path_6321" transform="matrix(1,0,0,1,-235.447,-88.294)">
                <path d="M249.334,91L243.795,91L244.95,100.268C244.98,100.637 244.861,101.003 244.619,101.283L242.663,103.518L249.334,103.518C250.068,103.517 250.671,102.914 250.672,102.18L250.672,92.368C250.674,91.628 250.074,91.015 249.334,91ZM249.334,95.936L249.215,95.936C248.99,96.652 248.624,97.316 248.14,97.89C248.468,98.19 248.818,98.434 249.166,98.711C249.272,98.796 249.335,98.925 249.335,99.061C249.335,99.307 249.133,99.509 248.887,99.509C248.786,99.509 248.687,99.474 248.608,99.411C248.23,99.111 247.874,98.862 247.519,98.536C247.164,98.862 246.838,99.112 246.46,99.411C246.381,99.474 246.283,99.508 246.181,99.508C245.936,99.508 245.734,99.306 245.734,99.061C245.734,98.925 245.796,98.796 245.903,98.711C246.251,98.436 246.572,98.19 246.903,97.89C246.429,97.314 246.073,96.65 245.858,95.936L245.739,95.936C245.494,95.936 245.293,95.735 245.293,95.49C245.293,95.245 245.494,95.044 245.739,95.044C245.739,95.044 247.077,95.044 247.077,95.044L247.077,94.6C247.077,94.355 247.278,94.154 247.523,94.154C247.768,94.154 247.969,94.355 247.969,94.6L247.969,95.045L249.336,95.045C249.581,95.045 249.782,95.246 249.782,95.491C249.782,95.736 249.581,95.937 249.336,95.937C249.336,95.937 249.334,95.936 249.334,95.936Z" style="fill:rgb(255,195,0);fill-rule:nonzero;"/>
            </g>
            <path id="Path_6322" d="M7.261,1.172C7.177,0.506 6.604,0.001 5.933,0L1.333,0C0.601,0.004 0.001,0.606 0,1.338L0,11.21C0.001,11.944 0.604,12.547 1.338,12.548L8.372,12.548C8.502,12.399 8.611,12.306 8.616,12.112C8.618,12.064 7.267,1.22 7.261,1.172ZM5.47,8.526C5.441,8.532 5.412,8.535 5.382,8.535C5.171,8.535 4.986,8.384 4.945,8.176L4.66,6.751L3.4,6.751L3.114,8.177C3.072,8.384 2.888,8.535 2.677,8.535C2.432,8.535 2.23,8.333 2.23,8.088C2.23,8.059 2.233,8.029 2.239,8L3.131,3.54C3.173,3.333 3.356,3.182 3.568,3.182L4.49,3.182C4.702,3.182 4.885,3.333 4.927,3.54L5.82,8C5.826,8.029 5.829,8.059 5.829,8.089C5.829,8.301 5.678,8.485 5.47,8.526Z" style="fill:rgb(255,195,0);fill-rule:nonzero;"/>
            <g id="Path_6323" transform="matrix(1,0,0,1,-170.049,-438.56)">
                <path d="M175.261,452L175.339,452.612C175.403,453.066 175.694,453.457 176.11,453.649L177.61,452L175.261,452Z" style="fill:rgb(255,195,0);fill-rule:nonzero;"/>
            </g>
        </g>
    </g>
</svg>
