<?xml version="1.0" encoding="UTF-8" standalone="no"?>
<!DOCTYPE svg PUBLIC "-//W3C//DTD SVG 1.1//EN" "http://www.w3.org/Graphics/SVG/1.1/DTD/svg11.dtd">
<svg width="22px" height="22px" version="1.1" xmlns="http://www.w3.org/2000/svg" xmlns:xlink="http://www.w3.org/1999/xlink" xml:space="preserve" xmlns:serif="http://www.serif.com/" style="fill-rule:evenodd;clip-rule:evenodd;stroke-linejoin:round;stroke-miterlimit:1.41421;">
    <g id="pro_wh" transform="matrix(1,0,0,1,-0.03,-0.031)">
        <g id="Rectangle_2666" transform="matrix(1,0,0,1,0.03,0.03)">
            <path d="M22,3C22,1.344 20.656,0 19,0L3,0C1.344,0 0,1.344 0,3L0,19C0,20.656 1.344,22 3,22L19,22C20.656,22 22,20.656 22,19L22,3Z" style="fill:rgb(236,240,248);"/>
        </g>
        <g id="Group_5445" transform="matrix(1,0,0,1,3.505,3.271)">
            <g id="Path_6361" transform="matrix(1,0,0,1,-236.67,-239.006)">
                <path d="M245.812,246.46L244.05,249.946C244.058,249.148 244.245,248.362 244.598,247.646C244.843,247.115 245.275,246.692 245.812,246.46Z" style="fill:rgb(255,195,0);fill-rule:nonzero;"/>
            </g>
            <g id="Path_6362" transform="matrix(1,0,0,1,-252.371,-246.881)">
                <path d="M262,254.58C262.133,255.152 262.048,255.753 261.761,256.265C261.394,256.971 260.874,257.586 260.238,258.065L262,254.58Z" style="fill:rgb(255,195,0);fill-rule:nonzero;"/>
            </g>
            <g id="Path_6363" transform="matrix(1,0,0,1,-55.306,-202.631)">
                <path d="M67.814,211.023L69.065,211.023L69.065,210.5C69.065,209.787 68.478,209.2 67.765,209.2L58.33,209.2C57.885,209.201 57.444,209.118 57.03,208.955L57.03,214.488C57.031,215.534 57.891,216.394 58.937,216.395L67.762,216.395C68.475,216.395 69.062,215.808 69.062,215.095L69.062,214.335L67.814,214.335C67.25,214.334 66.787,213.871 66.786,213.307L66.786,212.057C66.786,212.055 66.786,212.054 66.786,212.052C66.786,211.488 67.25,211.024 67.814,211.023ZM58.479,212.075C58.53,212.024 58.6,211.995 58.672,211.995L60.35,211.995C60.356,211.995 60.361,211.994 60.367,211.994C60.517,211.994 60.641,212.118 60.641,212.268C60.641,212.419 60.517,212.542 60.367,212.542C60.361,212.542 60.356,212.542 60.35,212.542L58.672,212.542C58.522,212.542 58.399,212.419 58.399,212.269C58.399,212.197 58.428,212.127 58.479,212.076L58.479,212.075ZM58.479,213.169C58.53,213.118 58.6,213.089 58.672,213.089L61.445,213.089C61.451,213.089 61.456,213.088 61.462,213.088C61.612,213.088 61.736,213.212 61.736,213.362C61.736,213.513 61.612,213.636 61.462,213.636C61.456,213.636 61.451,213.636 61.445,213.636L58.672,213.636C58.672,213.636 58.671,213.636 58.671,213.636C58.521,213.636 58.398,213.513 58.398,213.363C58.398,213.29 58.427,213.22 58.479,213.169ZM58.399,214.456C58.4,214.306 58.522,214.184 58.672,214.183L61.445,214.183C61.451,214.183 61.456,214.183 61.462,214.183C61.612,214.183 61.736,214.306 61.736,214.457C61.736,214.607 61.612,214.731 61.462,214.731C61.456,214.731 61.451,214.73 61.445,214.73L58.672,214.73C58.672,214.73 58.672,214.73 58.672,214.73C58.522,214.73 58.399,214.607 58.399,214.457C58.399,214.457 58.399,214.456 58.399,214.456ZM59.28,216.056C58.996,216.056 58.762,215.822 58.762,215.538C58.762,215.254 58.996,215.02 59.28,215.02C59.565,215.02 59.798,215.254 59.798,215.538C59.798,215.676 59.744,215.808 59.646,215.905C59.549,216.002 59.417,216.056 59.28,216.056ZM65.186,212.265C64.893,212.839 64.504,213.359 64.037,213.803L64.022,213.818L63.948,213.887L63.906,213.925C63.673,214.132 63.427,214.323 63.169,214.497L63.161,214.502C63.009,214.603 62.851,214.697 62.689,214.781L62.236,215.676C62.19,215.768 62.095,215.826 61.992,215.826L60.35,215.826C60.344,215.826 60.339,215.827 60.333,215.827C60.183,215.827 60.059,215.703 60.059,215.553C60.059,215.402 60.183,215.279 60.333,215.279C60.339,215.279 60.344,215.279 60.35,215.279L61.65,215.279C61.753,215.279 61.848,215.221 61.894,215.129L62.194,214.534C62.019,213.339 62.209,212.119 62.74,211.034C62.856,210.801 62.999,210.581 63.164,210.379L63.222,210.311C63.254,210.275 63.297,210.228 63.348,210.176C63.51,210.009 63.694,209.866 63.895,209.75L63.94,209.724C64.245,209.546 64.588,209.443 64.94,209.424L65.078,209.424L65.16,209.534C65.676,210.366 65.686,211.42 65.186,212.262L65.186,212.265ZM67.813,211.025L69.064,211.025L69.064,210.5C69.064,209.787 68.477,209.2 67.764,209.2L58.33,209.2C57.885,209.201 57.444,209.118 57.03,208.955L57.03,214.488C57.031,215.534 57.891,216.394 58.937,216.395L67.762,216.395C68.475,216.395 69.062,215.808 69.062,215.095L69.062,214.335L67.814,214.335C67.25,214.334 66.787,213.871 66.786,213.307L66.786,212.057C66.787,211.493 67.25,211.03 67.814,211.029L67.813,211.025ZM58.478,212.077C58.529,212.026 58.599,211.997 58.671,211.997L60.35,211.997C60.356,211.997 60.361,211.996 60.367,211.996C60.517,211.996 60.641,212.12 60.641,212.27C60.641,212.421 60.517,212.544 60.367,212.544C60.361,212.544 60.356,212.544 60.35,212.544L58.672,212.544C58.522,212.544 58.399,212.421 58.399,212.271C58.399,212.199 58.428,212.129 58.479,212.078L58.478,212.077ZM58.478,213.171C58.529,213.12 58.599,213.091 58.671,213.091L61.444,213.091C61.45,213.091 61.455,213.09 61.461,213.09C61.611,213.09 61.735,213.214 61.735,213.364C61.735,213.515 61.611,213.638 61.461,213.638C61.455,213.638 61.45,213.638 61.444,213.638L58.672,213.638C58.672,213.638 58.671,213.638 58.671,213.638C58.521,213.638 58.398,213.515 58.398,213.365C58.398,213.292 58.427,213.222 58.479,213.171L58.478,213.171ZM58.398,214.458C58.399,214.308 58.521,214.186 58.671,214.185L61.444,214.185C61.45,214.185 61.455,214.184 61.461,214.184C61.611,214.184 61.735,214.308 61.735,214.458C61.735,214.609 61.611,214.732 61.461,214.732C61.455,214.732 61.45,214.732 61.444,214.732L58.672,214.732C58.672,214.732 58.672,214.732 58.672,214.732C58.522,214.732 58.399,214.609 58.399,214.459C58.399,214.459 58.399,214.458 58.399,214.458L58.398,214.458ZM59.279,216.058C58.995,216.058 58.761,215.824 58.761,215.54C58.761,215.256 58.995,215.022 59.279,215.022C59.564,215.022 59.797,215.256 59.797,215.54C59.797,215.678 59.743,215.81 59.645,215.907C59.548,216.004 59.416,216.058 59.279,216.058ZM65.185,212.267C64.892,212.841 64.503,213.361 64.036,213.805L64.021,213.82L63.947,213.889L63.905,213.927C63.672,214.134 63.426,214.325 63.168,214.499L63.16,214.504C63.008,214.605 62.85,214.699 62.688,214.783L62.235,215.678C62.189,215.77 62.094,215.828 61.991,215.828L60.35,215.828C60.344,215.828 60.339,215.828 60.333,215.828C60.183,215.828 60.059,215.705 60.059,215.554C60.059,215.404 60.183,215.28 60.333,215.28C60.339,215.28 60.344,215.281 60.35,215.281L61.65,215.281C61.753,215.281 61.848,215.223 61.894,215.131L62.194,214.536C62.019,213.341 62.209,212.121 62.74,211.036C62.856,210.803 62.999,210.583 63.164,210.381L63.222,210.313C63.254,210.277 63.297,210.23 63.348,210.178C63.51,210.011 63.694,209.868 63.895,209.752L63.94,209.726C64.245,209.548 64.588,209.445 64.94,209.426L65.078,209.426L65.16,209.536C65.675,210.368 65.685,211.421 65.186,212.262L65.185,212.267ZM67.812,211.027L69.063,211.027L69.063,210.5C69.063,209.787 68.476,209.2 67.763,209.2L58.33,209.2C57.885,209.201 57.444,209.118 57.03,208.955L57.03,214.488C57.031,215.534 57.891,216.394 58.937,216.395L67.762,216.395C68.475,216.395 69.062,215.808 69.062,215.095L69.062,214.335L67.814,214.335C67.25,214.334 66.787,213.871 66.786,213.307L66.786,212.057C66.787,211.493 67.25,211.03 67.814,211.029L67.812,211.027ZM58.477,212.079C58.528,212.028 58.598,211.999 58.67,211.999L60.35,211.999C60.356,211.999 60.361,211.998 60.367,211.998C60.517,211.998 60.641,212.122 60.641,212.272C60.641,212.423 60.517,212.546 60.367,212.546C60.361,212.546 60.356,212.546 60.35,212.546L58.672,212.546C58.522,212.546 58.399,212.423 58.399,212.273C58.399,212.201 58.428,212.131 58.479,212.08L58.477,212.079ZM58.477,213.173C58.528,213.122 58.598,213.093 58.67,213.093L61.443,213.093C61.449,213.093 61.454,213.092 61.46,213.092C61.61,213.092 61.734,213.216 61.734,213.366C61.734,213.517 61.61,213.64 61.46,213.64C61.454,213.64 61.449,213.64 61.443,213.64L58.672,213.64C58.672,213.64 58.671,213.64 58.671,213.64C58.521,213.64 58.398,213.517 58.398,213.367C58.398,213.294 58.427,213.224 58.479,213.173L58.477,213.173ZM58.397,214.46C58.398,214.31 58.52,214.188 58.67,214.187L61.443,214.187C61.449,214.187 61.454,214.186 61.46,214.186C61.61,214.186 61.734,214.31 61.734,214.46C61.734,214.611 61.61,214.734 61.46,214.734C61.454,214.734 61.449,214.734 61.443,214.734L58.672,214.734C58.672,214.734 58.672,214.734 58.672,214.734C58.522,214.734 58.399,214.611 58.399,214.461C58.399,214.461 58.399,214.46 58.399,214.46L58.397,214.46ZM59.278,216.06C58.994,216.06 58.76,215.826 58.76,215.542C58.76,215.258 58.994,215.024 59.278,215.024C59.563,215.024 59.796,215.258 59.796,215.542C59.796,215.68 59.742,215.812 59.644,215.909C59.547,216.006 59.415,216.06 59.278,216.06ZM65.184,212.269C64.891,212.843 64.502,213.363 64.035,213.807L64.02,213.822L63.946,213.891L63.904,213.929C63.671,214.136 63.425,214.327 63.167,214.501L63.159,214.506C63.007,214.607 62.849,214.701 62.687,214.785L62.234,215.68C62.188,215.772 62.093,215.83 61.99,215.83L60.35,215.83C60.344,215.83 60.339,215.83 60.333,215.83C60.183,215.83 60.059,215.707 60.059,215.556C60.059,215.406 60.183,215.282 60.333,215.282C60.339,215.282 60.344,215.283 60.35,215.283L61.65,215.283C61.753,215.283 61.848,215.225 61.894,215.133L62.194,214.538C62.019,213.343 62.209,212.123 62.74,211.038C62.856,210.805 62.999,210.585 63.164,210.383L63.222,210.315C63.254,210.279 63.297,210.232 63.348,210.18C63.51,210.013 63.694,209.87 63.895,209.754L63.94,209.728C64.245,209.55 64.588,209.447 64.94,209.428L65.078,209.428L65.16,209.538C65.674,210.369 65.684,211.421 65.186,212.262L65.184,212.269Z" style="fill:rgb(255,195,0);fill-rule:nonzero;"/>
            </g>
            <g id="Path_6364" transform="matrix(1,0,0,1,-77.699,-77.637)">
                <path d="M90.157,80.06L80.723,80.06C80.391,80.06 80.118,80.333 80.118,80.665C80.118,80.997 80.391,81.27 80.723,81.27L90.157,81.27C90.489,81.27 90.762,80.997 90.762,80.665C90.762,80.333 90.489,80.06 90.157,80.06Z" style="fill:rgb(255,195,0);fill-rule:nonzero;"/>
            </g>
            <g id="Path_6365" transform="matrix(1,0,0,1,-0.04,0)">
                <path d="M14.917,4.266C15.246,4.266 15.517,3.995 15.517,3.666L15.517,3.026C15.515,1.37 14.156,0.007 12.5,0C10.844,-0.007 3.02,0 3,0C2.195,0.028 1.431,0.37 0.875,0.953C0.313,1.535 0.012,2.322 0.041,3.13C0.041,3.146 0.041,11.852 0.041,11.852C0.043,13.843 1.681,15.481 3.672,15.483L12.5,15.483C14.159,15.481 15.523,14.116 15.525,12.457L15.525,7.866C15.523,6.207 14.159,4.842 12.5,4.84L3.063,4.84C2.1,4.842 1.295,4.074 1.251,3.112C1.228,2.621 1.409,2.141 1.751,1.788C2.103,1.421 2.591,1.212 3.1,1.212L12.5,1.212C13.496,1.213 14.315,2.032 14.317,3.028L14.317,3.663C14.317,3.664 14.317,3.665 14.317,3.666C14.317,3.995 14.588,4.266 14.917,4.266C14.917,4.266 14.917,4.266 14.917,4.266ZM3.063,6.05L12.5,6.05C13.496,6.051 14.315,6.87 14.317,7.866L14.317,8.9L12.548,8.9C12.267,8.9 12.035,9.132 12.035,9.413L12.035,10.665C12.035,10.946 12.267,11.178 12.548,11.178C12.548,11.178 14.313,11.178 14.313,11.178L14.313,12.452C14.315,13.449 13.497,14.271 12.5,14.274L3.671,14.274C2.343,14.273 1.251,13.181 1.249,11.853L1.249,5.447C1.773,5.838 2.409,6.049 3.063,6.047L3.063,6.05ZM13.2,10.044C13.2,10.201 13.07,10.331 12.913,10.331C12.756,10.331 12.626,10.201 12.626,10.044C12.626,9.887 12.756,9.757 12.913,9.757C13.07,9.757 13.2,9.887 13.2,10.044Z" style="fill:rgb(255,195,0);fill-rule:nonzero;"/>
            </g>
        </g>
    </g>
</svg>
