<?xml version="1.0" encoding="UTF-8" standalone="no"?>
<!DOCTYPE svg PUBLIC "-//W3C//DTD SVG 1.1//EN" "http://www.w3.org/Graphics/SVG/1.1/DTD/svg11.dtd">
<svg width="22px" height="22px" version="1.1" xmlns="http://www.w3.org/2000/svg" xmlns:xlink="http://www.w3.org/1999/xlink" xml:space="preserve" xmlns:serif="http://www.serif.com/" style="fill-rule:evenodd;clip-rule:evenodd;stroke-linejoin:round;stroke-miterlimit:1.41421;">
    <g id="pro_faq" transform="matrix(1,0,0,1,-0.041,-0.031)">
        <g id="Rectangle_2666" transform="matrix(1,0,0,1,0.041,0.03)">
            <path d="M22,3C22,1.344 20.656,0 19,0L3,0C1.344,0 0,1.344 0,3L0,19C0,20.656 1.344,22 3,22L19,22C20.656,22 22,20.656 22,19L22,3Z" style="fill:rgb(236,240,248);"/>
        </g>
        <g id="chat" transform="matrix(1,0,0,1,2.814,3.796)">
            <g id="Path_6277" transform="matrix(1,0,0,1,-220.875,-176.742)">
                <path d="M237.237,189.773L237.237,189.767L236.585,187.787L236.585,182.939C236.584,182.148 235.934,181.498 235.143,181.497L230.934,181.497L230.934,183.855C230.931,185.17 229.849,186.252 228.534,186.255L228.193,186.255L228.193,188.574C228.194,189.365 228.844,190.015 229.635,190.016L234.527,190.016L235.786,190.854C235.945,190.962 236.133,191.019 236.325,191.019C236.852,191.019 237.286,190.586 237.286,190.058C237.286,189.961 237.271,189.864 237.242,189.771L237.237,189.773ZM233.965,188.066C233.718,188.159 233.439,188.032 233.346,187.786L233.137,187.231L231.674,187.231L231.462,187.787C231.391,187.973 231.211,188.097 231.012,188.097C230.748,188.097 230.531,187.88 230.531,187.616C230.531,187.558 230.541,187.5 230.562,187.445L231.886,183.97L231.886,183.959C231.973,183.75 232.178,183.612 232.405,183.612C232.631,183.612 232.836,183.75 232.923,183.959L232.928,183.972L234.239,187.447C234.332,187.693 234.205,187.972 233.959,188.065L233.965,188.066Z" style="fill:rgb(255,195,0);fill-rule:nonzero;"/>
            </g>
            <g id="Path_6278" transform="matrix(1,0,0,1,-337.22,-291.704)">
                <path d="M348.384,301.232L349.118,301.232L348.753,300.264L348.384,301.232Z" style="fill:rgb(255,195,0);fill-rule:nonzero;"/>
            </g>
            <g id="Path_6279" transform="matrix(1,0,0,1,0.003,-33.126)">
                <path d="M7.65,33.126L2.139,33.126C1.349,33.129 0.701,33.778 0.7,34.568L0.7,39.449L0.048,41.429L0.048,41.435C-0.078,41.824 0.061,42.253 0.391,42.494C0.717,42.74 1.166,42.749 1.502,42.518L2.761,41.68L7.65,41.68C8.441,41.679 9.091,41.029 9.092,40.238L9.092,34.568C9.091,33.777 8.441,33.127 7.65,33.126ZM6.9,39.538C6.713,39.724 6.407,39.724 6.22,39.538L6.01,39.328C5.645,39.566 5.219,39.693 4.783,39.693C3.551,39.693 2.538,38.68 2.538,37.448C2.538,36.217 3.551,35.203 4.783,35.203C6.014,35.203 7.028,36.217 7.028,37.448C7.028,37.87 6.909,38.284 6.684,38.642L6.9,38.858C7.086,39.045 7.086,39.351 6.9,39.538Z" style="fill:rgb(255,195,0);fill-rule:nonzero;"/>
            </g>
            <g id="Path_6280" transform="matrix(1,0,0,1,-105.939,-125.112)">
                <path d="M110.727,128.156C110.726,128.156 110.725,128.156 110.723,128.156C110.021,128.156 109.442,128.734 109.442,129.437C109.442,130.14 110.021,130.718 110.723,130.718C110.903,130.718 111.081,130.68 111.245,130.607L111.035,130.397C110.95,130.308 110.903,130.189 110.903,130.066C110.903,129.802 111.12,129.585 111.384,129.585C111.507,129.585 111.626,129.632 111.715,129.717L111.915,129.917C111.977,129.764 112.008,129.602 112.008,129.437C112.008,128.735 111.431,128.157 110.728,128.157C110.728,128.157 110.728,128.157 110.728,128.157L110.727,128.156Z" style="fill:rgb(255,195,0);fill-rule:nonzero;"/>
            </g>
        </g>
    </g>
</svg>
