<?xml version="1.0" encoding="UTF-8" standalone="no"?>
<!DOCTYPE svg PUBLIC "-//W3C//DTD SVG 1.1//EN" "http://www.w3.org/Graphics/SVG/1.1/DTD/svg11.dtd">
<svg width="22px" height="22px" version="1.1" xmlns="http://www.w3.org/2000/svg" xmlns:xlink="http://www.w3.org/1999/xlink" xml:space="preserve" xmlns:serif="http://www.serif.com/" style="fill-rule:evenodd;clip-rule:evenodd;stroke-linejoin:round;stroke-miterlimit:1.41421;">
    <g id="pro_tc" transform="matrix(1,0,0,1,-0.381,-0.031)">
        <g id="Rectangle_2666" transform="matrix(1,0,0,1,0.381,0.03)">
            <path d="M22,3C22,1.344 20.656,0 19,0L3,0C1.344,0 0,1.344 0,3L0,19C0,20.656 1.344,22 3,22L19,22C20.656,22 22,20.656 22,19L22,3Z" style="fill:rgb(236,240,248);"/>
        </g>
        <g id="accept" transform="matrix(1,0,0,1,3.69,3.272)">
            <path id="Path_6335" d="M11.067,7.067L11.151,7.067C11.296,7.067 11.439,7.076 11.581,7.094L11.581,1.827C11.58,0.825 10.756,0.001 9.754,0L1.827,0C0.825,0.001 0.001,0.825 0,1.827L0,12.335C0.001,13.337 0.825,14.161 1.827,14.162L7.119,14.162C6.664,13.427 6.423,12.579 6.423,11.715C6.423,9.167 8.519,7.069 11.067,7.067ZM6.552,2.983L9.26,2.983C9.267,2.983 9.274,2.983 9.281,2.983C9.53,2.983 9.735,3.187 9.735,3.437C9.735,3.686 9.53,3.891 9.281,3.891C9.274,3.891 9.267,3.89 9.26,3.89L6.552,3.89C6.545,3.89 6.538,3.891 6.531,3.891C6.282,3.891 6.077,3.686 6.077,3.437C6.077,3.187 6.282,2.983 6.531,2.983C6.538,2.983 6.545,2.983 6.552,2.983ZM6.552,4.797L9.26,4.797C9.267,4.797 9.274,4.797 9.281,4.797C9.53,4.797 9.735,5.001 9.735,5.251C9.735,5.5 9.53,5.705 9.281,5.705C9.274,5.705 9.267,5.704 9.26,5.704L6.552,5.704C6.545,5.704 6.538,5.705 6.531,5.705C6.282,5.705 6.077,5.5 6.077,5.251C6.077,5.001 6.282,4.797 6.531,4.797C6.538,4.797 6.545,4.797 6.552,4.797ZM5.028,11.179L2.321,11.179C2.314,11.179 2.307,11.18 2.3,11.18C2.051,11.18 1.846,10.975 1.846,10.726C1.846,10.476 2.051,10.272 2.3,10.272C2.307,10.272 2.314,10.272 2.321,10.272L5.028,10.272C5.035,10.272 5.042,10.272 5.049,10.272C5.298,10.272 5.503,10.476 5.503,10.726C5.503,10.975 5.298,11.18 5.049,11.18C5.042,11.18 5.035,11.179 5.028,11.179ZM5.028,9.334L2.321,9.334C2.314,9.334 2.307,9.335 2.3,9.335C2.051,9.335 1.846,9.13 1.846,8.881C1.846,8.631 2.051,8.426 2.3,8.426C2.307,8.426 2.314,8.427 2.321,8.427L5.028,8.427C5.035,8.427 5.042,8.426 5.049,8.426C5.298,8.426 5.503,8.631 5.503,8.881C5.503,9.13 5.298,9.335 5.049,9.335C5.042,9.335 5.035,9.334 5.028,9.334ZM5.028,7.52L2.321,7.52C2.314,7.52 2.307,7.52 2.3,7.52C2.051,7.52 1.846,7.316 1.846,7.066C1.846,6.817 2.051,6.613 2.3,6.613C2.307,6.613 2.314,6.613 2.321,6.613L5.028,6.613C5.035,6.613 5.042,6.613 5.049,6.613C5.298,6.613 5.503,6.817 5.503,7.066C5.503,7.316 5.298,7.52 5.049,7.52C5.042,7.52 5.035,7.52 5.028,7.52ZM5.028,5.706L2.321,5.706C2.314,5.706 2.307,5.706 2.3,5.706C2.051,5.706 1.846,5.502 1.846,5.252C1.846,5.003 2.051,4.799 2.3,4.799C2.307,4.799 2.314,4.799 2.321,4.799L5.028,4.799C5.035,4.799 5.042,4.799 5.049,4.799C5.298,4.799 5.503,5.003 5.503,5.252C5.503,5.502 5.298,5.706 5.049,5.706C5.042,5.706 5.035,5.706 5.028,5.706ZM5.028,3.892L2.321,3.892C2.314,3.892 2.307,3.892 2.3,3.892C2.051,3.892 1.846,3.688 1.846,3.438C1.846,3.189 2.051,2.984 2.3,2.984C2.307,2.984 2.314,2.985 2.321,2.985L5.028,2.985C5.035,2.985 5.042,2.984 5.049,2.984C5.298,2.984 5.503,3.189 5.503,3.438C5.503,3.688 5.298,3.892 5.049,3.892C5.042,3.892 5.035,3.892 5.028,3.892ZM6.1,7.066C6.1,6.817 6.305,6.612 6.554,6.612L7.854,6.612C7.861,6.612 7.868,6.612 7.875,6.612C8.124,6.612 8.329,6.816 8.329,7.066C8.329,7.315 8.124,7.52 7.875,7.52C7.868,7.52 7.861,7.519 7.854,7.519L6.554,7.519C6.305,7.519 6.101,7.315 6.1,7.066Z" style="fill:rgb(255,195,0);fill-rule:nonzero;"/>
            <g id="Path_6336" transform="matrix(1,0,0,1,-234.078,-254.738)">
                <path d="M247.832,263.808C247.142,263.102 246.201,262.697 245.214,262.682L245.146,262.682C245.145,262.682 245.145,262.682 245.144,262.682C243.076,262.682 241.375,264.383 241.375,266.451C241.375,268.519 243.076,270.22 245.144,270.22C247.212,270.22 248.913,268.519 248.913,266.451C248.913,265.463 248.525,264.514 247.832,263.809L247.832,263.808ZM246.755,265.838L245.316,267.631C245.165,267.818 244.891,267.855 244.696,267.714L243.623,266.937C243.497,266.853 243.421,266.711 243.421,266.559C243.421,266.31 243.626,266.105 243.875,266.105C243.976,266.105 244.075,266.139 244.155,266.202L244.878,266.726L246.046,265.27C246.132,265.157 246.266,265.091 246.408,265.091C246.657,265.091 246.862,265.296 246.862,265.545C246.862,265.652 246.823,265.756 246.754,265.838L246.755,265.838Z" style="fill:rgb(255,195,0);fill-rule:nonzero;"/>
            </g>
        </g>
    </g>
</svg>
