<?xml version="1.0" encoding="UTF-8" standalone="no"?>
<!DOCTYPE svg PUBLIC "-//W3C//DTD SVG 1.1//EN" "http://www.w3.org/Graphics/SVG/1.1/DTD/svg11.dtd">
<svg width="22px" height="22px" version="1.1" xmlns="http://www.w3.org/2000/svg" xmlns:xlink="http://www.w3.org/1999/xlink" xml:space="preserve" xmlns:serif="http://www.serif.com/" style="fill-rule:evenodd;clip-rule:evenodd;stroke-linejoin:round;stroke-miterlimit:1.41421;">
    <g id="pro_customersupport" transform="matrix(1,0,0,1,-0.432,-0.031)">
        <g id="Rectangle_2666" transform="matrix(1,0,0,1,0.432,0.031)">
            <path d="M22,3C22,1.344 20.656,0 19,0L3,0C1.344,0 0,1.344 0,3L0,19C0,20.656 1.344,22 3,22L19,22C20.656,22 22,20.656 22,19L22,3Z" style="fill:rgb(236,240,248);"/>
        </g>
        <g id="headphones_1_" transform="matrix(1,0,0,1,2.551,2.881)">
            <g id="Group_5227" transform="matrix(1,0,0,1,0,5.693)">
                <g id="Group_5224">
                    <g id="Path_5922" transform="matrix(1,0,0,1,0,-247.769)">
                        <path d="M0,251.753L0,253.665C0.001,254.626 0.792,255.417 1.753,255.417L2.709,255.417C2.971,255.417 3.187,255.201 3.187,254.939L3.187,250L1.753,250C0.791,250 0,250.791 0,251.753Z" style="fill:rgb(255,195,0);fill-rule:nonzero;"/>
                    </g>
                    <g id="Path_5923" transform="matrix(1,0,0,1,-155.907,-180)">
                        <path d="M167.055,183.665L167.055,181.115C167.054,180.504 166.552,180.002 165.941,180L162.115,180C161.504,180.001 161.002,180.503 161,181.114L161,183.663C161.002,184.274 161.503,184.775 162.114,184.777L163.214,184.777L165,186.261C165.086,186.333 165.194,186.372 165.306,186.372C165.568,186.372 165.784,186.156 165.784,185.894L165.784,184.78L165.943,184.78C166.554,184.779 167.057,184.277 167.059,183.666L167.055,183.665ZM164.665,182.865L163.39,182.865C163.128,182.865 162.912,182.649 162.912,182.387C162.912,182.125 163.128,181.909 163.39,181.909C163.39,181.909 164.665,181.909 164.665,181.909C164.927,181.909 165.143,182.125 165.143,182.387C165.143,182.649 164.927,182.865 164.665,182.865C164.665,182.865 164.665,182.865 164.665,182.865Z" style="fill:rgb(255,195,0);fill-rule:nonzero;"/>
                    </g>
                    <g id="Path_5924" transform="matrix(1,0,0,1,-194.632,-443.332)">
                        <path d="M201,452.956C201,453.48 201.432,453.912 201.956,453.912L203.549,453.912C204.073,453.912 204.505,453.48 204.505,452.956C204.505,452.432 204.073,452 203.549,452C203.549,452 201.956,452 201.956,452C201.432,452 201,452.432 201,452.956Z" style="fill:rgb(255,195,0);fill-rule:nonzero;"/>
                    </g>
                </g>
                <g id="Group_5226" transform="matrix(1,0,0,1,10.76,2.231)">
                    <g id="Path_5925" transform="matrix(1,0,0,1,-338.817,-443.627)">
                        <path d="M341.468,450L341.468,450.1C341.468,450.362 341.252,450.578 340.99,450.578L338.834,450.578C338.91,450.893 338.904,451.222 338.817,451.534L340.99,451.534C341.776,451.533 342.423,450.886 342.424,450.1L342.424,450L341.468,450Z" style="fill:rgb(255,195,0);fill-rule:nonzero;"/>
                    </g>
                    <g id="Path_5926" transform="matrix(1,0,0,1,-409.668,-250)">
                        <path d="M413.434,250L412,250L412,254.939C412,255.201 412.216,255.417 412.478,255.417L413.434,255.417C414.396,255.417 415.187,254.626 415.187,253.664L415.187,251.752C415.186,250.791 414.395,250 413.434,250Z" style="fill:rgb(255,195,0);fill-rule:nonzero;"/>
                    </g>
                </g>
            </g>
            <g id="Path_5927" transform="matrix(1,0,0,1,-38.725,-0.02)">
                <path d="M51.719,2.031C50.432,0.744 48.685,0.021 46.865,0.021C43.099,0.021 40,3.12 40,6.886L40,7.028L41.907,7.028L41.907,6.9C41.907,4.18 44.145,1.942 46.865,1.942C49.585,1.942 51.823,4.18 51.823,6.9L51.823,7.028L53.73,7.028L53.73,6.9C53.735,5.075 53.011,3.322 51.72,2.033L51.719,2.031Z" style="fill:rgb(255,195,0);fill-rule:nonzero;"/>
            </g>
        </g>
    </g>
</svg>
