<?xml version="1.0" encoding="UTF-8" standalone="no"?>
<!DOCTYPE svg PUBLIC "-//W3C//DTD SVG 1.1//EN" "http://www.w3.org/Graphics/SVG/1.1/DTD/svg11.dtd">
<svg width="20px" height="20px" version="1.1" xmlns="http://www.w3.org/2000/svg" xmlns:xlink="http://www.w3.org/1999/xlink" xml:space="preserve" xmlns:serif="http://www.serif.com/" style="fill-rule:evenodd;clip-rule:evenodd;stroke-linejoin:round;stroke-miterlimit:1.41421;">
    <path d="M19.993,10.006C19.995,8.343 19.581,6.706 18.791,5.243C18,3.78 16.857,2.538 15.465,1.628C14.073,0.718 12.476,0.17 10.818,0.034C9.161,-0.103 7.496,0.176 5.973,0.845C4.451,1.515 3.12,2.553 2.1,3.867C1.08,5.18 0.404,6.727 0.134,8.368C-0.137,10.009 0.005,11.691 0.549,13.263C1.092,14.834 2.019,16.246 3.245,17.369L3.236,17.377L3.561,17.65C3.582,17.668 3.605,17.683 3.626,17.7C3.798,17.843 3.977,17.979 4.158,18.11C4.217,18.152 4.276,18.195 4.336,18.236C4.53,18.37 4.729,18.497 4.932,18.617C4.977,18.643 5.021,18.669 5.066,18.694C5.289,18.821 5.516,18.941 5.749,19.049C5.767,19.057 5.784,19.064 5.801,19.072C6.571,19.43 7.383,19.687 8.219,19.838L8.286,19.85C8.549,19.895 8.815,19.932 9.084,19.956C9.117,19.959 9.149,19.961 9.183,19.964C9.451,19.986 9.722,20 9.997,20C10.272,20 10.538,19.986 10.805,19.965C10.838,19.962 10.872,19.96 10.906,19.957C11.173,19.932 11.437,19.898 11.698,19.852L11.766,19.84C12.588,19.693 13.389,19.442 14.149,19.093C14.176,19.08 14.205,19.068 14.232,19.055C14.457,18.95 14.676,18.836 14.891,18.715C14.944,18.685 14.997,18.654 15.05,18.623C15.246,18.508 15.438,18.386 15.625,18.26C15.692,18.214 15.758,18.165 15.825,18.117C15.984,18.003 16.141,17.884 16.293,17.76C16.327,17.733 16.363,17.709 16.397,17.681L16.729,17.403L16.72,17.395C17.751,16.46 18.575,15.32 19.139,14.047C19.703,12.774 19.994,11.398 19.993,10.006ZM0.727,10.006C0.726,8.457 1.112,6.933 1.851,5.573C2.591,4.212 3.659,3.058 4.958,2.217C6.258,1.375 7.748,0.873 9.292,0.755C10.836,0.637 12.384,0.908 13.797,1.543C15.209,2.178 16.44,3.156 17.377,4.389C18.314,5.622 18.927,7.069 19.16,8.6C19.394,10.131 19.24,11.696 18.713,13.152C18.186,14.608 17.303,15.908 16.144,16.935C16.04,16.863 15.932,16.798 15.819,16.74L12.741,15.203C12.606,15.136 12.493,15.032 12.414,14.904C12.335,14.776 12.293,14.629 12.293,14.478L12.293,13.402C12.365,13.313 12.441,13.214 12.518,13.106C12.921,12.533 13.241,11.906 13.469,11.243C13.695,11.137 13.887,10.968 14.021,10.756C14.156,10.544 14.227,10.298 14.226,10.048L14.226,8.758C14.225,8.442 14.111,8.137 13.904,7.897L13.904,6.201C13.967,5.428 13.721,4.661 13.22,4.069C12.55,3.304 11.465,2.916 9.996,2.916C8.528,2.916 7.443,3.303 6.773,4.067C6.272,4.659 6.026,5.426 6.089,6.199L6.089,7.896C5.882,8.135 5.767,8.44 5.766,8.757L5.766,10.045C5.766,10.242 5.81,10.436 5.894,10.613C5.978,10.79 6.101,10.947 6.253,11.071C6.477,11.909 6.858,12.698 7.377,13.393L7.377,14.445C7.377,14.591 7.338,14.734 7.263,14.859C7.189,14.985 7.083,15.087 6.955,15.157L4.08,16.725C3.986,16.777 3.895,16.834 3.807,16.898C2.838,16.03 2.063,14.968 1.532,13.78C1.001,12.593 0.727,11.307 0.727,10.006L0.727,10.006Z" style="fill:rgb(255,195,0);fill-rule:nonzero;"/>
</svg>
