<?xml version="1.0" encoding="UTF-8" standalone="no"?>
<!DOCTYPE svg PUBLIC "-//W3C//DTD SVG 1.1//EN" "http://www.w3.org/Graphics/SVG/1.1/DTD/svg11.dtd">
<svg width="20px" height="20px" version="1.1" xmlns="http://www.w3.org/2000/svg" xmlns:xlink="http://www.w3.org/1999/xlink" xml:space="preserve" xmlns:serif="http://www.serif.com/" style="fill-rule:evenodd;clip-rule:evenodd;stroke-linejoin:round;stroke-miterlimit:1.41421;">
    <circle cx="10" cy="10" r="8" style="fill:rgb(255,195,0);"/>
    <path d="M9.61,0C9.716,0 9.817,0 9.923,0C10.079,0.113 10.247,0.215 10.391,0.34C10.719,0.625 11.043,0.918 11.36,1.219C11.59,1.437 11.844,1.496 12.149,1.398C12.621,1.25 13.094,1.113 13.566,0.972C13.996,0.847 14.289,0.988 14.457,1.402C14.644,1.867 14.836,2.328 15.015,2.796C15.125,3.081 15.324,3.234 15.621,3.281C16.109,3.355 16.597,3.433 17.085,3.515C17.554,3.593 17.757,3.859 17.722,4.327C17.683,4.819 17.655,5.315 17.616,5.807C17.593,6.1 17.71,6.319 17.952,6.487C18.362,6.764 18.765,7.049 19.171,7.331C19.557,7.6 19.632,7.916 19.401,8.323C19.167,8.74 18.936,9.166 18.686,9.576C18.511,9.869 18.515,10.143 18.69,10.436C18.936,10.849 19.167,11.271 19.401,11.693C19.624,12.095 19.549,12.412 19.175,12.673C18.776,12.955 18.378,13.24 17.972,13.505C17.706,13.681 17.589,13.911 17.612,14.228C17.652,14.728 17.679,15.227 17.718,15.727C17.745,16.122 17.527,16.419 17.144,16.481C16.644,16.563 16.144,16.645 15.64,16.719C15.328,16.762 15.117,16.923 15.004,17.219C14.832,17.668 14.648,18.114 14.469,18.559C14.281,19.028 13.996,19.16 13.508,19.016C13.059,18.883 12.61,18.758 12.164,18.61C11.836,18.5 11.571,18.571 11.325,18.805C11.004,19.11 10.676,19.406 10.344,19.699C10.215,19.813 10.059,19.898 9.919,20C9.813,20 9.712,20 9.606,20C9.458,19.895 9.302,19.805 9.165,19.688C8.833,19.399 8.505,19.098 8.185,18.793C7.942,18.563 7.681,18.504 7.361,18.61C6.896,18.758 6.427,18.891 5.962,19.028C5.533,19.153 5.24,19.012 5.072,18.598C4.881,18.129 4.689,17.661 4.506,17.188C4.4,16.919 4.209,16.77 3.928,16.727C3.432,16.649 2.939,16.567 2.443,16.489C1.983,16.419 1.772,16.145 1.811,15.673C1.85,15.188 1.873,14.7 1.912,14.212C1.936,13.9 1.819,13.677 1.561,13.505C1.151,13.232 0.749,12.943 0.342,12.662C-0.021,12.408 -0.095,12.088 0.12,11.697C0.362,11.267 0.6,10.834 0.85,10.408C1.01,10.135 1.014,9.873 0.854,9.6C0.604,9.174 0.366,8.74 0.124,8.311C-0.095,7.924 -0.021,7.6 0.342,7.346C0.733,7.073 1.116,6.792 1.514,6.538C1.823,6.339 1.948,6.081 1.912,5.718C1.865,5.237 1.846,4.757 1.807,4.277C1.78,3.886 2.006,3.585 2.385,3.527C2.885,3.445 3.385,3.363 3.889,3.288C4.205,3.245 4.408,3.081 4.521,2.785C4.701,2.32 4.888,1.855 5.08,1.39C5.24,1 5.541,0.855 5.943,0.972C6.423,1.113 6.904,1.254 7.38,1.402C7.681,1.496 7.939,1.441 8.169,1.222C8.485,0.922 8.809,0.629 9.138,0.344C9.286,0.215 9.454,0.113 9.61,0ZM17.413,10.01C17.405,5.776 13.976,2.347 9.766,2.351C5.552,2.355 2.104,5.8 2.115,9.986C2.131,14.224 5.56,17.661 9.762,17.645C13.992,17.629 17.421,14.204 17.413,10.01Z" style="fill:rgb(255,195,0);fill-rule:nonzero;"/>
    <path d="M7.521,12.572C7.064,12.564 6.833,12.162 7.025,11.849C7.075,11.763 7.157,11.689 7.232,11.615C8.567,10.275 9.903,8.936 11.25,7.604C11.371,7.483 11.559,7.35 11.711,7.354C11.856,7.358 12.074,7.506 12.121,7.639C12.176,7.788 12.129,8.041 12.024,8.163C11.66,8.577 11.25,8.955 10.86,9.346C9.864,10.342 8.872,11.338 7.868,12.33C7.751,12.443 7.595,12.521 7.521,12.572Z" style="fill:white;fill-rule:nonzero;"/>
    <path d="M9.43,8.576C9.43,9.233 8.856,9.807 8.192,9.815C7.532,9.822 6.958,9.256 6.946,8.588C6.935,7.92 7.524,7.323 8.196,7.331C8.86,7.342 9.43,7.916 9.43,8.576ZM8.173,8.022C7.864,8.03 7.634,8.264 7.63,8.569C7.63,8.885 7.884,9.135 8.196,9.127C8.513,9.119 8.751,8.862 8.735,8.541C8.727,8.241 8.485,8.018 8.173,8.022Z" style="fill:white;fill-rule:nonzero;"/>
    <path d="M12.188,11.33C12.195,11.998 11.637,12.564 10.965,12.572C10.301,12.584 9.727,12.025 9.711,11.353C9.696,10.674 10.27,10.096 10.953,10.096C11.621,10.104 12.18,10.658 12.188,11.33ZM11.508,11.338C11.508,11.037 11.274,10.795 10.969,10.787C10.637,10.779 10.403,11.006 10.403,11.334C10.403,11.642 10.629,11.884 10.93,11.896C11.235,11.908 11.504,11.646 11.508,11.338Z" style="fill:white;fill-rule:nonzero;"/>
</svg>
