<?xml version="1.0" encoding="UTF-8" standalone="no"?>
<!DOCTYPE svg PUBLIC "-//W3C//DTD SVG 1.1//EN" "http://www.w3.org/Graphics/SVG/1.1/DTD/svg11.dtd">
<svg width="13px" height="13px" version="1.1" xmlns="http://www.w3.org/2000/svg" xmlns:xlink="http://www.w3.org/1999/xlink" xml:space="preserve" xmlns:serif="http://www.serif.com/" style="fill-rule:evenodd;clip-rule:evenodd;stroke-linejoin:round;stroke-miterlimit:1.41421;">
    <g id="search" transform="matrix(1,0,0,1,-9.292,-10.141)">
        <path d="M22.089,22.923C21.955,23.062 21.769,23.14 21.576,23.14C21.383,23.14 21.197,23.062 21.063,22.923L19.235,21.086C16.724,23.108 13.022,22.808 10.869,20.408C8.71,18.002 8.79,14.287 11.049,11.976C13.303,9.672 17.015,9.532 19.436,11.66C21.861,13.796 22.218,17.495 20.245,20.055L22.073,21.892C22.356,22.172 22.363,22.634 22.089,22.923ZM15.515,11.755C15.513,11.755 15.511,11.755 15.509,11.755C13.025,11.755 10.981,13.799 10.981,16.283C10.981,18.767 13.025,20.811 15.509,20.811C17.993,20.811 20.037,18.767 20.037,16.283C20.037,15.084 19.562,13.934 18.715,13.085C17.867,12.236 16.715,11.757 15.515,11.755Z" style="fill:rgb(255,195,0);fill-rule:nonzero;"/>
    </g>
</svg>
