<?xml version="1.0" encoding="UTF-8" standalone="no"?>
<!DOCTYPE svg PUBLIC "-//W3C//DTD SVG 1.1//EN" "http://www.w3.org/Graphics/SVG/1.1/DTD/svg11.dtd">
<svg width="19px" height="19px" version="1.1" xmlns="http://www.w3.org/2000/svg" xmlns:xlink="http://www.w3.org/1999/xlink" xml:space="preserve" xmlns:serif="http://www.serif.com/" style="fill-rule:evenodd;clip-rule:evenodd;stroke-linejoin:round;stroke-miterlimit:1.41421;">
    <g id="sel_home" transform="matrix(1,0,0,1,-0.034,0)">
        <g id="Rectangle_2636" transform="matrix(1,0,0,1,0.034,0)">
            <rect x="0" y="0" width="19" height="19" style="fill:none;"/>
        </g>
        <g id="sel_home-2" transform="matrix(1,0,0,1,-211.641,-118.764)">
            <path d="M230.422,127.266L221.64,119.949C221.409,119.761 221.076,119.761 220.845,119.949L212.063,127.266C211.802,127.486 211.765,127.879 211.979,128.144C212.203,128.396 212.589,128.433 212.857,128.228L214.551,126.828L214.551,134.522C214.615,135.973 215.86,137.114 217.311,137.052L225.152,137.052C226.603,137.114 227.848,135.973 227.912,134.522L227.912,126.828L229.606,128.228C229.716,128.325 229.859,128.377 230.006,128.374C230.193,128.373 230.369,128.289 230.487,128.144C230.593,128.034 230.653,127.886 230.653,127.733C230.653,127.551 230.569,127.378 230.425,127.266L230.422,127.266ZM219.78,135.754L219.78,131.363C219.78,131.359 219.78,131.356 219.78,131.352C219.78,131.014 220.058,130.736 220.396,130.736C220.4,130.736 220.403,130.736 220.407,130.736L222.08,130.736C222.084,130.736 222.087,130.736 222.091,130.736C222.429,130.736 222.707,131.014 222.707,131.352C222.707,131.356 222.707,131.359 222.707,131.363L222.707,135.754L219.78,135.754Z" style="fill:rgb(255,195,0);fill-rule:nonzero;"/>
        </g>
    </g>
</svg>
