<?xml version="1.0" encoding="UTF-8" standalone="no"?>
<!DOCTYPE svg PUBLIC "-//W3C//DTD SVG 1.1//EN" "http://www.w3.org/Graphics/SVG/1.1/DTD/svg11.dtd">
<svg width="19px" height="19px" version="1.1" xmlns="http://www.w3.org/2000/svg" xmlns:xlink="http://www.w3.org/1999/xlink" xml:space="preserve" xmlns:serif="http://www.serif.com/" style="fill-rule:evenodd;clip-rule:evenodd;stroke-linejoin:round;stroke-miterlimit:1.41421;">
    <g id="sel_user" transform="matrix(1,0,0,1,-0.103,0)">
        <g id="Rectangle_2635" transform="matrix(1,0,0,1,0.102,0)">
            <rect x="0" y="0" width="19" height="19" style="fill:none;"/>
        </g>
        <g id="user" transform="matrix(1,0,0,1,0.733,1.056)">
            <path d="M17.424,8.687C17.424,8.683 17.424,8.679 17.424,8.675C17.424,3.895 13.491,-0.038 8.711,-0.038C3.931,-0.038 -0.002,3.895 -0.002,8.675C-0.002,11.117 1.025,13.45 2.826,15.1L2.818,15.107L3.102,15.345C3.12,15.36 3.14,15.373 3.159,15.388C3.309,15.512 3.465,15.631 3.623,15.745L3.778,15.855C3.947,15.972 4.121,16.082 4.298,16.187L4.414,16.254C4.608,16.365 4.807,16.469 5.014,16.563L5.059,16.583C5.73,16.895 6.438,17.119 7.166,17.25L7.224,17.261C7.453,17.301 7.685,17.332 7.924,17.354L8,17.366C8.234,17.385 8.47,17.398 8.71,17.398C8.95,17.398 9.181,17.386 9.41,17.367L9.5,17.36C9.733,17.339 9.963,17.308 10.19,17.269L10.249,17.258C10.966,17.129 11.664,16.911 12.326,16.607L12.399,16.574C12.594,16.482 12.786,16.382 12.973,16.274L13.112,16.194C13.282,16.094 13.45,15.988 13.612,15.877C13.671,15.837 13.728,15.795 13.786,15.753C13.925,15.653 14.062,15.553 14.195,15.442C14.224,15.418 14.256,15.398 14.285,15.373L14.575,15.131L14.566,15.124C16.382,13.477 17.42,11.136 17.419,8.684L17.424,8.687ZM0.632,8.687C0.632,8.684 0.632,8.682 0.632,8.679C0.632,4.247 4.279,0.6 8.711,0.6C13.143,0.6 16.79,4.247 16.79,8.679C16.79,10.99 15.799,13.193 14.069,14.726C13.978,14.663 13.884,14.606 13.785,14.556L11.1,13.216C10.86,13.098 10.709,12.852 10.71,12.585L10.71,11.647C10.772,11.57 10.839,11.484 10.91,11.389C11.262,10.89 11.541,10.343 11.739,9.765C12.142,9.576 12.4,9.169 12.4,8.724L12.4,7.6C12.399,7.325 12.299,7.058 12.119,6.85L12.119,5.371C12.173,4.697 11.957,4.028 11.519,3.513C10.775,2.784 9.748,2.417 8.711,2.508C7.674,2.415 6.647,2.781 5.902,3.508C5.462,4.024 5.246,4.694 5.3,5.37L5.3,6.848C5.12,7.056 5.02,7.323 5.019,7.598L5.019,8.722C5.019,9.068 5.175,9.397 5.443,9.616C5.638,10.347 5.97,11.034 6.422,11.64L6.422,12.557C6.422,12.815 6.28,13.053 6.054,13.177L3.555,14.543C3.473,14.588 3.393,14.639 3.317,14.694C1.609,13.166 0.632,10.979 0.632,8.687Z" style="fill:rgb(255,195,0);fill-rule:nonzero;"/>
        </g>
    </g>
</svg>
